Merriweather-BoldDisplayNarrowItalic.ufo
<glyph name="numbersign" format="2">
  <advance width="1188.913043478261"/>
  <unicode hex="0023"/>
  <outline>
    <contour>
      <point x="344.9130434782609" y="413.0" type="line"/>
      <point x="280.9130434782609" y="0.0" type="line"/>
      <point x="348.9130434782609" y="0.0" type="line"/>
      <point x="413.9130434782609" y="413.0" type="line"/>
      <point x="725.0" y="413.0" type="line"/>
      <point x="662.0" y="0.0" type="line"/>
      <point x="730.0" y="0.0" type="line"/>
      <point x="793.0" y="413.0" type="line"/>
      <point x="1054.913043478261" y="413.0" type="line"/>
      <point x="1079.8695652173915" y="594.695652173913" type="line"/>
      <point x="821.9565217391304" y="594.695652173913" type="line"/>
      <point x="878.3478260869565" y="928.304347826087" type="line"/>
      <point x="1125.9565217391305" y="928.304347826087" type="line"/>
      <point x="1150.913043478261" y="1108.0" type="line"/>
      <point x="904.0" y="1108.0" type="line"/>
      <point x="973.9999999999999" y="1539.0" type="line"/>
      <point x="905.0" y="1539.0" type="line"/>
      <point x="835.0" y="1108.0" type="line"/>
      <point x="524.9130434782609" y="1108.0" type="line"/>
      <point x="592.9130434782609" y="1539.0" type="line"/>
      <point x="524.9130434782609" y="1539.0" type="line"/>
      <point x="456.9130434782609" y="1108.0" type="line"/>
      <point x="204.0" y="1108.0" type="line"/>
      <point x="179.04347826086956" y="928.304347826087" type="line"/>
      <point x="428.95652173913044" y="928.304347826087" type="line"/>
      <point x="374.95652173913044" y="594.695652173913" type="line"/>
      <point x="133.95652173913044" y="594.695652173913" type="line"/>
      <point x="109.0" y="413.0" type="line"/>
    </contour>
    <contour>
      <point x="753.9565217391304" y="594.695652173913" type="line"/>
      <point x="441.95652173913044" y="594.695652173913" type="line"/>
      <point x="497.9565217391304" y="928.304347826087" type="line"/>
      <point x="809.3478260869565" y="928.304347826087" type="line"/>
    </contour>
  </outline>
</glyph>
<glyph name="dollar" format="2">
  <advance width="1090.4782608695652"/>
  <unicode hex="0024"/>
  <outline>
    <contour>
      <point x="379.6086956521739" y="-257.8695652173913" type="line"/>
      <point x="472.4347826086957" y="-257.5652173913044" type="line"/>
      <point x="511.1304347826087" y="-23.47826086956522" type="line"/>
      <point x="799.391304347826" y="1.7826086956521738"/>
      <point x="986.3478260869565" y="194.6521739130435"/>
      <point x="986.3478260869565" y="443.2173913043478" type="curve" smooth="yes"/>
      <point x="986.3478260869565" y="641.4347826086956"/>
      <point x="865.5217391304349" y="732.1739130434783"/>
      <point x="729.5217391304349" y="827.4782608695651" type="curve"/>
      <point x="546.5217391304348" y="946.3913043478261"/>
      <point x="474.17391304347825" y="1031.9565217391305"/>
      <point x="474.17391304347825" y="1162.3043478260868" type="curve" smooth="yes"/>
      <point x="474.17391304347825" y="1320.6086956521738"/>
      <point x="578.5217391304349" y="1447.5217391304348"/>
      <point x="703.6086956521739" y="1447.5217391304348" type="curve" smooth="yes"/>
      <point x="759.9565217391304" y="1447.8260869565217"/>
      <point x="829.8695652173914" y="1423.0"/>
      <point x="850.5652173913044" y="1392.391304347826" type="curve"/>
      <point x="854.695652173913" y="1145.5217391304348" type="line"/>
      <point x="1009.3478260869566" y="1145.5217391304348" type="line"/>
      <point x="1068.6086956521738" y="1430.1739130434783" type="line"/>
      <point x="1022.5217391304348" y="1439.6521739130435"/>
      <point x="891.0" y="1493.391304347826"/>
      <point x="767.3043478260869" y="1502.6956521739132" type="curve"/>
      <point x="804.7826086956522" y="1732.5217391304348" type="line"/>
      <point x="712.0434782608695" y="1732.2173913043478" type="line"/>
      <point x="676.2608695652174" y="1501.782608695652" type="line"/>
      <point x="396.5217391304348" y="1492.9565217391305"/>
      <point x="205.82608695652175" y="1307.608695652174"/>
      <point x="205.82608695652175" y="1047.6086956521738" type="curve" smooth="yes"/>
      <point x="205.82608695652175" y="822.695652173913"/>
      <point x="351.39130434782606" y="724.6521739130435"/>
      <point x="459.7391304347826" y="655.2608695652174" type="curve"/>
      <point x="605.8695652173913" y="561.2173913043479"/>
      <point x="698.391304347826" y="479.65217391304344"/>
      <point x="698.391304347826" y="328.6521739130435" type="curve" smooth="yes"/>
      <point x="698.391304347826" y="171.6086956521739"/>
      <point x="601.7391304347826" y="35.17391304347826"/>
      <point x="446.17391304347825" y="35.17391304347826" type="curve" smooth="yes"/>
      <point x="378.9130434782609" y="35.17391304347826"/>
      <point x="315.30434782608694" y="60.434782608695656"/>
      <point x="268.73913043478257" y="106.82608695652173" type="curve"/>
      <point x="269.4347826086957" y="367.69565217391306" type="line"/>
      <point x="120.34782608695653" y="367.69565217391306" type="line"/>
      <point x="56.04347826086956" y="65.91304347826087" type="line"/>
      <point x="103.69565217391305" y="55.21739130434783"/>
      <point x="238.0" y="-11.391304347826088"/>
      <point x="418.695652173913" y="-23.086956521739133" type="curve"/>
    </contour>
  </outline>
</glyph>
<glyph name="percent" format="2">
  <advance width="1627.913043478261"/>
  <unicode hex="0025"/>
  <outline>
    <contour>
      <point x="404.0434782608696" y="706.0434782608695" type="curve" smooth="yes"/>
      <point x="605.3913043478261" y="706.0434782608695"/>
      <point x="781.0434782608696" y="894.3478260869565"/>
      <point x="781.0434782608696" y="1165.5652173913043" type="curve" smooth="yes"/>
      <point x="781.0434782608696" y="1332.6521739130435"/>
      <point x="708.3478260869565" y="1450.6521739130435"/>
      <point x="538.391304347826" y="1450.6521739130435" type="curve" smooth="yes"/>
      <point x="324.4347826086956" y="1450.6521739130435"/>
      <point x="154.47826086956522" y="1263.695652173913"/>
      <point x="154.47826086956522" y="1004.3478260869565" type="curve" smooth="yes"/>
      <point x="154.47826086956522" y="818.3478260869566"/>
      <point x="248.2173913043478" y="706.0434782608695"/>
    </contour>
    <contour>
      <point x="422.1739130434783" y="753.0869565217391" type="curve" smooth="yes"/>
      <point x="370.8695652173913" y="753.0869565217391"/>
      <point x="342.6086956521739" y="814.2173913043479"/>
      <point x="342.6086956521739" y="954.5652173913044" type="curve" smooth="yes"/>
      <point x="342.6086956521739" y="1213.086956521739"/>
      <point x="424.13043478260875" y="1405.6956521739132"/>
      <point x="512.2608695652175" y="1405.6956521739132" type="curve" smooth="yes"/>
      <point x="564.1739130434783" y="1405.6956521739132"/>
      <point x="592.1304347826087" y="1346.4782608695652"/>
      <point x="592.1304347826087" y="1208.4347826086957" type="curve" smooth="yes"/>
      <point x="592.1304347826087" y="951.5217391304348"/>
      <point x="513.304347826087" y="753.0869565217391"/>
    </contour>
    <contour>
      <point x="1222.6521739130435" y="1499.5652173913043" type="line"/>
      <point x="364.82608695652175" y="0.0" type="line"/>
      <point x="458.60869565217394" y="0.0" type="line"/>
      <point x="1317.4347826086955" y="1499.8695652173913" type="line"/>
    </contour>
    <contour>
      <point x="1130.5217391304348" y="54.34782608695652" type="curve" smooth="yes"/>
      <point x="1329.0869565217392" y="54.34782608695652"/>
      <point x="1509.3478260869565" y="242.26086956521738"/>
      <point x="1509.3478260869565" y="526.0869565217391" type="curve" smooth="yes"/>
      <point x="1509.3478260869565" y="687.2173913043479"/>
      <point x="1439.6086956521738" y="798.9565217391305"/>
      <point x="1275.304347826087" y="798.9565217391305" type="curve" smooth="yes"/>
      <point x="1062.086956521739" y="798.9565217391305"/>
      <point x="891.8260869565217" y="609.6521739130435"/>
      <point x="891.8260869565217" y="342.304347826087" type="curve" smooth="yes"/>
      <point x="891.8260869565217" y="163.17391304347825"/>
      <point x="980.5652173913043" y="54.34782608695652"/>
    </contour>
    <contour>
      <point x="1162.5652173913045" y="101.3913043478261" type="curve" smooth="yes"/>
      <point x="1101.5217391304348" y="101.3913043478261"/>
      <point x="1063.9565217391305" y="184.3913043478261"/>
      <point x="1063.9565217391305" y="328.0" type="curve" smooth="yes"/>
      <point x="1063.9565217391305" y="574.608695652174"/>
      <point x="1142.6521739130435" y="754.0"/>
      <point x="1236.6521739130435" y="754.0" type="curve" smooth="yes"/>
      <point x="1296.608695652174" y="754.0"/>
      <point x="1336.1304347826087" y="673.5217391304349"/>
      <point x="1336.1304347826087" y="528.3043478260869" type="curve" smooth="yes"/>
      <point x="1336.1304347826087" y="287.0"/>
      <point x="1257.9565217391305" y="101.3913043478261"/>
    </contour>
  </outline>
</glyph>
<glyph name="asterisk" format="2">
  <advance width="1034.9130434782608"/>
  <unicode hex="002A"/>
  <outline>
    <contour>
      <point x="146.43478260869566" y="1068.304347826087" type="line"/>
      <point x="240.82608695652175" y="842.2608695652174" type="line"/>
      <point x="495.82608695652175" y="1060.695652173913" type="line"/>
      <point x="576.695652173913" y="1133.913043478261" type="line"/>
      <point x="535.0869565217391" y="1029.5217391304345" type="line"/>
      <point x="431.9130434782609" y="706.5217391304348" type="line"/>
      <point x="677.695652173913" y="705.1304347826086" type="line"/>
      <point x="648.1304347826087" y="1019.3913043478261" type="line"/>
      <point x="636.8260869565217" y="1128.3478260869565" type="line"/>
      <point x="701.5652173913044" y="1055.4347826086957" type="line"/>
      <point x="914.6086956521739" y="844.0869565217391" type="line"/>
      <point x="1047.5217391304348" y="1047.1739130434785" type="line"/>
      <point x="755.0" y="1146.8695652173913" type="line"/>
      <point x="665.2173913043478" y="1173.5652173913043" type="line"/>
      <point x="764.304347826087" y="1199.8695652173913" type="line"/>
      <point x="1084.304347826087" y="1299.695652173913" type="line"/>
      <point x="989.9130434782609" y="1517.3913043478262" type="line"/>
      <point x="729.3478260869565" y="1297.5652173913045" type="line"/>
      <point x="643.6086956521739" y="1219.4782608695652" type="line"/>
      <point x="688.0" y="1330.8260869565217" type="line"/>
      <point x="790.1739130434784" y="1653.1304347826087" type="line"/>
      <point x="545.7826086956522" y="1655.9130434782608" type="line"/>
      <point x="568.6956521739131" y="1340.9565217391303" type="line"/>
      <point x="584.8695652173914" y="1225.7391304347825" type="line"/>
      <point x="514.5652173913043" y="1303.5217391304348" type="line"/>
      <point x="303.60869565217394" y="1515.5652173913045" type="line"/>
      <point x="167.91304347826087" y="1305.5217391304348" type="line"/>
      <point x="461.13043478260875" y="1206.5217391304348" type="line"/>
      <point x="556.8695652173914" y="1180.5217391304348" type="line"/>
      <point x="452.5217391304348" y="1154.9130434782608" type="line"/>
    </contour>
  </outline>
</glyph>
<glyph name="hyphen" format="2">
  <advance width="899.0"/>
  <unicode hex="002D"/>
  <outline>
    <contour>
      <point x="765.0" y="604.0" type="line"/>
      <point x="163.0" y="604.0" type="line"/>
      <point x="151.0" y="524.0" type="line"/>
      <point x="753.0" y="524.0" type="line"/>
    </contour>
  </outline>
</glyph>
<glyph name="slash" format="2">
  <advance width="706.5652173913044"/>
  <unicode hex="002F"/>
  <outline>
    <contour>
      <point x="-102.26086956521739" y="-354.0" type="line"/>
      <point x="-21.043478260869577" y="-354.0" type="line"/>
      <point x="770.8695652173914" y="1561.391304347826" type="line"/>
      <point x="691.0434782608695" y="1561.391304347826" type="line"/>
    </contour>
  </outline>
</glyph>
<glyph name="one" format="2">
  <advance width="768.8695652173913"/>
  <unicode hex="0031"/>
  <anchor x="425.1739130434783" y="1660.0" name="top"/>
  <outline>
    <contour>
      <point x="4.173913043478258" y="38.086956521739125" type="line"/>
      <point x="-0.13043478260869534" y="0.0" type="line"/>
      <point x="671.5217391304348" y="0.0" type="line"/>
      <point x="675.8260869565217" y="38.086956521739125" type="line"/>
      <point x="493.26086956521743" y="70.47826086956523" type="line"/>
      <point x="684.4782608695652" y="1468.8260869565217" type="line"/>
      <point x="532.3478260869565" y="1506.6086956521738" type="line"/>
      <point x="432.9130434782609" y="1407.0434782608695"/>
      <point x="303.4347826086957" y="1316.6521739130435"/>
      <point x="124.39130434782608" y="1260.0869565217392" type="curve"/>
      <point x="133.56521739130434" y="1208.304347826087" type="line"/>
      <point x="217.30434782608697" y="1217.8695652173915"/>
      <point x="320.2173913043478" y="1244.0"/>
      <point x="370.7391304347826" y="1262.0" type="curve"/>
      <point x="208.39130434782606" y="70.47826086956522" type="line"/>
    </contour>
  </outline>
</glyph>
<glyph name="two" format="2">
  <advance width="1026.6521739130435"/>
  <unicode hex="0032"/>
  <outline>
    <contour>
      <point x="24.782608695652172" y="0.0" type="line"/>
      <point x="870.1304347826087" y="0.0" type="line"/>
      <point x="970.2173913043478" y="405.2608695652174" type="line"/>
      <point x="912.608695652174" y="428.65217391304344" type="line"/>
      <point x="813.6521739130434" y="261.04347826086956" type="line"/>
      <point x="119.69565217391303" y="161.56521739130437" type="line"/>
      <point x="515.0434782608695" y="419.2608695652174"/>
      <point x="985.5217391304348" y="759.3478260869565"/>
      <point x="985.5217391304348" y="1144.8695652173913" type="curve" smooth="yes"/>
      <point x="985.5217391304348" y="1386.9565217391305"/>
      <point x="798.9130434782609" y="1500.478260869565"/>
      <point x="595.0869565217391" y="1500.478260869565" type="curve" smooth="yes"/>
      <point x="411.60869565217394" y="1500.478260869565"/>
      <point x="220.95652173913044" y="1394.5217391304348"/>
      <point x="132.95652173913044" y="1267.695652173913" type="curve"/>
      <point x="154.8695652173913" y="1225.086956521739" type="line"/>
      <point x="252.04347826086956" y="1313.304347826087"/>
      <point x="354.82608695652175" y="1360.8260869565217"/>
      <point x="458.13043478260875" y="1360.8260869565217" type="curve" smooth="yes"/>
      <point x="602.695652173913" y="1360.8260869565217"/>
      <point x="687.6521739130435" y="1263.4347826086957"/>
      <point x="687.6521739130435" y="1100.782608695652" type="curve" smooth="yes"/>
      <point x="687.6521739130435" y="775.7391304347826"/>
      <point x="294.8695652173913" y="345.0"/>
      <point x="-23.565217391304344" y="115.69565217391303" type="curve"/>
    </contour>
  </outline>
</glyph>
<glyph name="four" format="2">
  <advance width="1096.2173913043478"/>
  <unicode hex="0034"/>
  <outline>
    <contour>
      <point x="576.608695652174" y="0.0" type="line"/>
      <point x="851.608695652174" y="0.0" type="line"/>
      <point x="897.1304347826087" y="330.7391304347826" type="line"/>
      <point x="1060.1304347826085" y="330.7391304347826" type="line"/>
      <point x="1078.0" y="486.00000000000006" type="line"/>
      <point x="915.7826086956521" y="470.1739130434783" type="line"/>
      <point x="974.1739130434783" y="879.0" type="line"/>
      <point x="719.0" y="832.0" type="line"/>
      <point x="639.4782608695652" y="451.7391304347826" type="line"/>
      <point x="117.47826086956522" y="402.9130434782609" type="line"/>
      <point x="175.08695652173915" y="454.56521739130426"/>
      <point x="223.3478260869565" y="506.9565217391305"/>
      <point x="265.6521739130435" y="552.6521739130435" type="curve"/>
      <point x="387.695652173913" y="689.2173913043478"/>
      <point x="697.8695652173914" y="1167.3478260869565"/>
      <point x="815.5217391304349" y="1398.0434782608697" type="curve"/>
      <point x="599.7826086956521" y="1500.9130434782608" type="line"/>
      <point x="526.9565217391304" y="1500.9130434782608" type="line"/>
      <point x="379.5652173913044" y="1142.0"/>
      <point x="189.7826086956522" y="687.304347826087"/>
      <point x="23.260869565217394" y="435.0" type="curve"/>
      <point x="83.34782608695652" y="330.7391304347826" type="line"/>
      <point x="621.8260869565217" y="330.7391304347826" type="line"/>
    </contour>
  </outline>
</glyph>
<glyph name="five" format="2">
  <advance width="965.4782608695652"/>
  <unicode hex="0035"/>
  <outline>
    <contour>
      <point x="19.43478260869565" y="80.82608695652173" type="curve"/>
      <point x="12.347826086956523" y="28.130434782608695" type="line"/>
      <point x="72.3913043478261" y="-1.739130434782611"/>
      <point x="145.21739130434784" y="-18.17391304347826"/>
      <point x="241.52173913043478" y="-18.17391304347826" type="curve" smooth="yes"/>
      <point x="621.0434782608696" y="-18.17391304347826"/>
      <point x="916.3043478260869" y="239.39130434782606"/>
      <point x="916.3043478260869" y="551.0869565217391" type="curve" smooth="yes"/>
      <point x="916.3043478260869" y="802.5652173913044"/>
      <point x="768.3913043478261" y="914.608695652174"/>
      <point x="562.7826086956522" y="914.608695652174" type="curve" smooth="yes"/>
      <point x="416.82608695652175" y="914.608695652174"/>
      <point x="271.17391304347825" y="843.6086956521739"/>
      <point x="150.39130434782606" y="748.5217391304348" type="curve"/>
      <point x="328.0" y="1231.304347826087" type="line"/>
      <point x="932.9130434782609" y="1231.304347826087" type="line"/>
      <point x="996.6956521739131" y="1513.391304347826" type="line"/>
      <point x="924.3043478260869" y="1513.391304347826" type="line"/>
      <point x="899.1739130434783" y="1486.0" type="line"/>
      <point x="243.69565217391306" y="1486.0" type="line"/>
      <point x="87.95652173913045" y="744.6521739130435" type="line"/>
      <point x="146.43478260869563" y="702.5217391304349" type="line"/>
      <point x="234.30434782608697" y="752.3043478260869"/>
      <point x="293.1304347826087" y="788.5652173913044"/>
      <point x="411.5217391304348" y="788.5652173913044" type="curve" smooth="yes"/>
      <point x="550.8260869565217" y="788.5652173913044"/>
      <point x="631.5652173913044" y="684.6521739130435"/>
      <point x="628.5217391304349" y="507.5217391304348" type="curve" smooth="yes"/>
      <point x="624.5652173913044" y="243.6086956521739"/>
      <point x="429.13043478260875" y="51.7391304347826"/>
      <point x="182.2173913043478" y="51.7391304347826" type="curve" smooth="yes"/>
      <point x="115.08695652173913" y="51.7391304347826"/>
      <point x="66.13043478260869" y="65.08695652173913"/>
    </contour>
  </outline>
</glyph>
<glyph name="eight" format="2">
  <advance width="1081.6521739130435"/>
  <unicode hex="0038"/>
  <outline>
    <contour>
      <point x="469.0869565217391" y="-19.391304347826086" type="curve" smooth="yes"/>
      <point x="790.2608695652174" y="-19.391304347826086"/>
      <point x="1005.2608695652174" y="185.86956521739128"/>
      <point x="1008.0434782608696" y="402.2608695652174" type="curve" smooth="yes"/>
      <point x="1010.1304347826087" y="590.9565217391304"/>
      <point x="875.8260869565217" y="715.8260869565217"/>
      <point x="712.7391304347825" y="830.1739130434783" type="curve"/>
      <point x="905.2608695652174" y="881.5652173913043"/>
      <point x="1042.1304347826085" y="1020.0434782608695"/>
      <point x="1044.2173913043478" y="1198.7826086956522" type="curve" smooth="yes"/>
      <point x="1046.304347826087" y="1399.6521739130435"/>
      <point x="858.4347826086957" y="1503.5217391304348"/>
      <point x="664.6521739130435" y="1503.5217391304348" type="curve" smooth="yes"/>
      <point x="393.78260869565213" y="1503.5217391304348"/>
      <point x="185.17391304347828" y="1314.2608695652175"/>
      <point x="182.3913043478261" y="1074.0" type="curve" smooth="yes"/>
      <point x="181.0" y="945.2608695652174"/>
      <point x="254.0" y="818.5217391304348"/>
      <point x="383.6086956521739" y="709.0869565217391" type="curve"/>
      <point x="166.69565217391306" y="657.8695652173913"/>
      <point x="38.39130434782609" y="525.4782608695652"/>
      <point x="38.391304347826086" y="340.0" type="curve" smooth="yes"/>
      <point x="38.39130434782609" y="118.2608695652174"/>
      <point x="254.26086956521738" y="-19.391304347826086"/>
    </contour>
    <contour>
      <point x="684.6521739130435" y="854.0434782608695" type="curve"/>
      <point x="533.3478260869565" y="948.9565217391304"/>
      <point x="424.26086956521743" y="1050.9130434782608"/>
      <point x="424.2608695652174" y="1210.7391304347827" type="curve" smooth="yes"/>
      <point x="424.2608695652174" y="1371.6521739130435"/>
      <point x="538.6086956521739" y="1449.8695652173913"/>
      <point x="653.6521739130435" y="1449.8695652173913" type="curve" smooth="yes"/>
      <point x="774.0869565217391" y="1449.8695652173913"/>
      <point x="855.5652173913044" y="1336.6521739130435"/>
      <point x="853.4782608695651" y="1191.6521739130435" type="curve" smooth="yes"/>
      <point x="852.0869565217391" y="1070.695652173913"/>
      <point x="790.8695652173913" y="925.6956521739131"/>
    </contour>
    <contour>
      <point x="482.9130434782609" y="34.95652173913044" type="curve" smooth="yes"/>
      <point x="348.7391304347826" y="34.95652173913044"/>
      <point x="242.2173913043478" y="167.13043478260872"/>
      <point x="242.21739130434784" y="338.5652173913043" type="curve" smooth="yes"/>
      <point x="242.2173913043478" y="489.8695652173913"/>
      <point x="285.4782608695652" y="624.1739130434783"/>
      <point x="404.95652173913044" y="687.0869565217391" type="curve"/>
      <point x="560.3913043478261" y="576.4347826086956"/>
      <point x="738.6956521739131" y="457.95652173913044"/>
      <point x="738.695652173913" y="289.69565217391306" type="curve" smooth="yes"/>
      <point x="738.695652173913" y="124.65217391304347"/>
      <point x="638.8260869565217" y="34.95652173913044"/>
    </contour>
  </outline>
</glyph>
<glyph name="nine" format="2">
  <advance width="1101.2608695652175"/>
  <unicode hex="0039"/>
  <outline>
    <contour>
      <point x="218.52173913043475" y="-51.1304347826087" type="line"/>
      <point x="731.1304347826086" y="1.3043478260869534"/>
      <point x="1088.4347826086955" y="456.1304347826087"/>
      <point x="1088.4347826086955" y="958.1739130434783" type="curve" smooth="yes"/>
      <point x="1088.4347826086955" y="1245.4347826086955"/>
      <point x="947.8695652173913" y="1503.0"/>
      <point x="628.6956521739131" y="1503.0" type="curve" smooth="yes"/>
      <point x="344.9130434782609" y="1503.0"/>
      <point x="96.34782608695653" y="1282.8260869565217"/>
      <point x="96.34782608695653" y="932.3913043478261" type="curve" smooth="yes"/>
      <point x="96.34782608695653" y="698.2173913043478"/>
      <point x="238.04347826086956" y="510.0869565217391"/>
      <point x="439.3478260869565" y="510.0869565217391" type="curve" smooth="yes"/>
      <point x="561.2173913043479" y="510.0869565217391"/>
      <point x="689.8260869565217" y="592.1739130434784"/>
      <point x="752.2608695652174" y="723.6521739130435" type="curve"/>
      <point x="708.391304347826" y="426.69565217391306"/>
      <point x="515.0" y="68.26086956521739"/>
      <point x="201.08695652173913" y="-4.608695652173914" type="curve"/>
    </contour>
    <contour>
      <point x="555.4347826086956" y="634.5217391304349" type="curve" smooth="yes"/>
      <point x="453.52173913043475" y="634.5217391304349"/>
      <point x="393.5652173913043" y="774.6521739130435"/>
      <point x="393.5652173913043" y="960.1739130434783" type="curve" smooth="yes"/>
      <point x="393.5652173913043" y="1238.0434782608695"/>
      <point x="482.0" y="1451.391304347826"/>
      <point x="626.8260869565217" y="1452.913043478261" type="curve" smooth="yes"/>
      <point x="754.0" y="1454.7391304347827"/>
      <point x="793.1304347826087" y="1263.2173913043478"/>
      <point x="791.0" y="1064.3478260869565" type="curve" smooth="yes"/>
      <point x="790.3913043478261" y="948.1739130434783"/>
      <point x="774.1304347826087" y="858.4347826086956"/>
      <point x="756.4782608695652" y="784.3478260869566" type="curve"/>
      <point x="703.9130434782609" y="672.9565217391304"/>
      <point x="611.0" y="634.5217391304349"/>
    </contour>
  </outline>
</glyph>
<glyph name="at" format="2">
  <advance width="1713.9565217391305"/>
  <unicode hex="0040"/>
  <outline>
    <contour>
      <point x="49.69565217391304" y="315.04347826086956" type="curve" smooth="yes"/>
      <point x="49.69565217391304" y="-205.43478260869563"/>
      <point x="356.1304347826087" y="-500.0"/>
      <point x="759.2608695652174" y="-500.0" type="curve" smooth="yes"/>
      <point x="933.1304347826087" y="-500.0"/>
      <point x="1100.2173913043478" y="-446.7391304347826"/>
      <point x="1203.0434782608695" y="-358.0" type="curve"/>
      <point x="1185.3478260869565" y="-303.0" type="line"/>
      <point x="1092.7391304347825" y="-387.0"/>
      <point x="918.1304347826086" y="-445.30434782608694"/>
      <point x="775.7826086956522" y="-444.60869565217394" type="curve" smooth="yes"/>
      <point x="418.5652173913043" y="-443.2173913043478"/>
      <point x="177.34782608695653" y="-126.86956521739131"/>
      <point x="177.34782608695653" y="341.3478260869565" type="curve" smooth="yes"/>
      <point x="177.34782608695653" y="882.1739130434783"/>
      <point x="528.7391304347826" y="1380.0"/>
      <point x="995.3913043478261" y="1380.0" type="curve" smooth="yes"/>
      <point x="1275.8695652173913" y="1380.0"/>
      <point x="1568.7391304347825" y="1185.8695652173913"/>
      <point x="1568.7391304347825" y="781.9565217391304" type="curve" smooth="yes"/>
      <point x="1568.7391304347825" y="370.2608695652174"/>
      <point x="1346.1739130434783" y="71.34782608695653"/>
      <point x="1255.4782608695652" y="71.34782608695653" type="curve" smooth="yes"/>
      <point x="1219.304347826087" y="71.34782608695653"/>
      <point x="1203.5652173913045" y="96.08695652173913"/>
      <point x="1203.5652173913045" y="153.08695652173913" type="curve" smooth="yes"/>
      <point x="1203.5652173913043" y="186.56521739130434"/>
      <point x="1208.304347826087" y="235.91304347826085"/>
      <point x="1216.7826086956522" y="294.6521739130435" type="curve" smooth="yes"/>
      <point x="1240.0" y="459.0434782608696"/>
      <point x="1303.9565217391303" y="784.4347826086957"/>
      <point x="1353.4347826086955" y="944.1739130434784" type="curve"/>
      <point x="1146.4782608695652" y="917.0869565217391" type="line"/>
      <point x="1085.0869565217392" y="945.304347826087"/>
      <point x="1000.0" y="966.0"/>
      <point x="918.5652173913043" y="966.0" type="curve" smooth="yes"/>
      <point x="611.0" y="966.0"/>
      <point x="422.13043478260875" y="635.3913043478261"/>
      <point x="422.13043478260863" y="339.0" type="curve" smooth="yes"/>
      <point x="422.13043478260875" y="90.1304347826087"/>
      <point x="557.3043478260869" y="-33.30434782608695"/>
      <point x="646.3913043478261" y="-33.30434782608695" type="curve" smooth="yes"/>
      <point x="830.695652173913" y="-33.30434782608695"/>
      <point x="932.4347826086957" y="158.95652173913044"/>
      <point x="1042.478260869565" y="387.4782608695652" type="curve"/>
      <point x="996.6086956521739" y="224.52173913043478"/>
      <point x="986.5652173913044" y="144.04347826086956"/>
      <point x="986.5652173913044" y="90.78260869565217" type="curve" smooth="yes"/>
      <point x="986.5652173913044" y="7.17391304347826"/>
      <point x="1030.3478260869565" y="-31.0"/>
      <point x="1108.1304347826087" y="-31.0" type="curve" smooth="yes"/>
      <point x="1351.3478260869567" y="-31.0"/>
      <point x="1682.086956521739" y="296.2173913043478"/>
      <point x="1682.086956521739" y="804.2608695652174" type="curve" smooth="yes"/>
      <point x="1682.086956521739" y="1211.478260869565"/>
      <point x="1375.391304347826" y="1434.0"/>
      <point x="1047.0869565217392" y="1434.0" type="curve" smooth="yes"/>
      <point x="526.5217391304349" y="1434.0"/>
      <point x="49.69565217391304" y="961.6521739130435"/>
    </contour>
    <contour>
      <point x="665.2173913043479" y="371.69565217391306" type="curve" smooth="yes"/>
      <point x="665.9130434782609" y="717.3478260869565"/>
      <point x="789.0434782608696" y="913.9130434782609"/>
      <point x="901.2173913043478" y="913.9130434782609" type="curve" smooth="yes"/>
      <point x="990.304347826087" y="913.9130434782609"/>
      <point x="1054.4347826086957" y="876.5217391304348"/>
      <point x="1115.3478260869565" y="806.0869565217391" type="curve"/>
      <point x="1056.6521739130435" y="494.6521739130435"/>
      <point x="903.2173913043478" y="111.78260869565217"/>
      <point x="770.4347826086956" y="111.78260869565217" type="curve" smooth="yes"/>
      <point x="709.0434782608696" y="111.78260869565217"/>
      <point x="665.9130434782609" y="189.95652173913044"/>
    </contour>
  </outline>
</glyph>
<glyph name="A" format="2">
  <advance width="1144.1739130434783"/>
  <unicode hex="0041"/>
  <anchor x="440.60869565217394" y="0.0" name="bottom"/>
  <anchor x="950.695652173913" y="0.0" name="ogonek"/>
  <anchor x="723.9130434782609" y="1486.0" name="top"/>
  <outline>
    <contour>
      <point x="-145.65217391304347" y="0.0" type="line"/>
      <point x="257.0" y="-0.6956521739130435" type="line"/>
      <point x="262.0" y="35.30434782608695" type="line"/>
      <point x="90.2608695652174" y="69.26086956521739" type="line"/>
      <point x="540.7826086956521" y="1196.6956521739132" type="line"/>
      <point x="616.3043478260869" y="1408.8260869565217" type="line"/>
      <point x="575.5652173913044" y="1384.0" type="line"/>
      <point x="602.6086956521739" y="1137.0" type="line"/>
      <point x="750.9130434782609" y="67.73913043478261" type="line"/>
      <point x="607.7391304347826" y="37.391304347826086" type="line"/>
      <point x="602.7391304347826" y="0.0" type="line"/>
      <point x="1176.2608695652173" y="0.0" type="line"/>
      <point x="1180.5652173913043" y="37.391304347826086" type="line"/>
      <point x="1064.9565217391305" y="67.73913043478261" type="line"/>
      <point x="848.0434782608695" y="1492.1304347826087" type="line"/>
      <point x="595.6086956521739" y="1490.7391304347827" type="line"/>
      <point x="-7.217391304347826" y="70.73913043478261" type="line"/>
      <point x="-142.73913043478262" y="36.0" type="line"/>
    </contour>
    <contour>
      <point x="208.0" y="486.2173913043478" type="line"/>
      <point x="873.1739130434783" y="486.2173913043478" type="line"/>
      <point x="873.1739130434783" y="550.1304347826087" type="line"/>
      <point x="225.39130434782606" y="550.1304347826087" type="line"/>
    </contour>
  </outline>
</glyph>
<glyph name="B" format="2">
  <advance width="1194.8695652173915"/>
  <unicode hex="0042"/>
  <anchor x="518.0" y="0.0" name="bottom"/>
  <anchor x="718.6521739130435" y="1486.0" name="top"/>
  <outline>
    <contour>
      <point x="168.2608695652174" y="1486.0" type="line"/>
      <point x="163.26086956521738" y="1450.0" type="line"/>
      <point x="289.1304347826087" y="1415.1304347826087" type="line"/>
      <point x="104.52173913043478" y="70.47826086956522" type="line"/>
      <point x="-32.73913043478261" y="37.39130434782609" type="line"/>
      <point x="-37.73913043478261" y="0.0" type="line"/>
      <point x="256.60869565217394" y="0.0" type="line" smooth="yes"/>
      <point x="345.95652173913044" y="0.0"/>
      <point x="417.73913043478257" y="-18.47826086956522"/>
      <point x="521.8695652173914" y="-18.47826086956522" type="curve" smooth="yes"/>
      <point x="886.3478260869565" y="-18.47826086956522"/>
      <point x="1142.2173913043478" y="134.3913043478261"/>
      <point x="1142.2173913043478" y="451.3478260869565" type="curve" smooth="yes"/>
      <point x="1142.2173913043478" y="644.1739130434783"/>
      <point x="1025.2173913043478" y="763.2608695652175"/>
      <point x="813.0434782608696" y="774.5652173913044" type="curve"/>
      <point x="1038.0434782608697" y="818.5217391304349"/>
      <point x="1162.2608695652175" y="971.5217391304349"/>
      <point x="1162.2608695652175" y="1185.8260869565217" type="curve" smooth="yes"/>
      <point x="1162.2608695652175" y="1347.3478260869565"/>
      <point x="1065.9565217391303" y="1502.0"/>
      <point x="728.8695652173913" y="1502.0" type="curve" smooth="yes"/>
      <point x="622.5217391304348" y="1502.0"/>
      <point x="557.8695652173914" y="1486.0"/>
      <point x="472.78260869565213" y="1486.0" type="curve" smooth="yes"/>
    </contour>
    <contour>
      <point x="382.0869565217391" y="25.69565217391304" type="line"/>
      <point x="480.69565217391306" y="748.2173913043479" type="line"/>
      <point x="382.82608695652175" y="726.2608695652174" type="line"/>
      <point x="445.82608695652175" y="727.1739130434783"/>
      <point x="543.0" y="732.1304347826086"/>
      <point x="618.9565217391304" y="732.1304347826086" type="curve" smooth="yes"/>
      <point x="764.5652173913043" y="732.1304347826086"/>
      <point x="847.5652173913043" y="654.0869565217391"/>
      <point x="847.2608695652174" y="460.695652173913" type="curve" smooth="yes"/>
      <point x="846.9565217391304" y="194.52173913043478"/>
      <point x="738.9565217391305" y="36.30434782608695"/>
      <point x="520.6086956521739" y="36.30434782608695" type="curve" smooth="yes"/>
      <point x="451.1304347826087" y="36.30434782608695"/>
      <point x="385.4782608695652" y="53.78260869565218"/>
      <point x="370.5652173913044" y="69.73913043478262" type="curve"/>
    </contour>
    <contour>
      <point x="484.0869565217391" y="770.391304347826" type="line"/>
      <point x="578.608695652174" y="1458.3043478260868" type="line"/>
      <point x="532.0434782608696" y="1420.2173913043478" type="line"/>
      <point x="564.7391304347826" y="1432.4347826086957"/>
      <point x="643.8695652173914" y="1445.8260869565217"/>
      <point x="686.8260869565217" y="1445.8260869565217" type="curve" smooth="yes"/>
      <point x="833.7826086956521" y="1445.8260869565217"/>
      <point x="883.4347826086956" y="1346.7826086956522"/>
      <point x="883.1304347826087" y="1179.3478260869567" type="curve" smooth="yes"/>
      <point x="882.5217391304348" y="919.4782608695652"/>
      <point x="741.695652173913" y="791.0"/>
      <point x="631.2173913043479" y="791.9130434782609" type="curve" smooth="yes"/>
      <point x="558.6086956521739" y="792.5217391304348"/>
      <point x="471.04347826086956" y="788.9130434782609"/>
      <point x="414.1304347826087" y="791.608695652174" type="curve"/>
    </contour>
  </outline>
</glyph>
<glyph name="D" format="2">
  <advance width="1290.695652173913"/>
  <unicode hex="0044"/>
  <anchor x="319.8386086956522" y="748.0" name="bar"/>
  <anchor x="579.9130434782609" y="0.0" name="bottom"/>
  <anchor x="792.304347826087" y="1486.0" name="top"/>
  <outline>
    <contour>
      <point x="168.2608695652174" y="1486.0" type="line"/>
      <point x="163.26086956521738" y="1450.0" type="line"/>
      <point x="289.1304347826087" y="1415.1304347826087" type="line"/>
      <point x="104.52173913043478" y="70.47826086956522" type="line"/>
      <point x="-32.73913043478261" y="37.39130434782609" type="line"/>
      <point x="-37.73913043478261" y="0.0" type="line"/>
      <point x="248.30434782608694" y="0.0" type="line" smooth="yes"/>
      <point x="325.0" y="0.0"/>
      <point x="446.4782608695652" y="-21.17391304347826"/>
      <point x="534.2173913043479" y="-21.17391304347826" type="curve" smooth="yes"/>
      <point x="1015.5652173913044" y="-21.17391304347826"/>
      <point x="1295.1304347826087" y="378.5217391304348"/>
      <point x="1297.2608695652175" y="907.5217391304348" type="curve" smooth="yes"/>
      <point x="1298.7826086956522" y="1223.5652173913045"/>
      <point x="1149.6521739130435" y="1503.391304347826"/>
      <point x="740.7826086956522" y="1503.391304347826" type="curve" smooth="yes"/>
      <point x="640.7826086956522" y="1503.3913043478262"/>
      <point x="544.0434782608696" y="1486.0"/>
      <point x="440.04347826086956" y="1486.0" type="curve"/>
    </contour>
    <contour>
      <point x="384.39130434782606" y="13.391304347826093" type="line"/>
      <point x="583.2608695652174" y="1465.7391304347827" type="line"/>
      <point x="531.0434782608696" y="1392.8260869565217" type="line"/>
      <point x="570.0" y="1426.913043478261"/>
      <point x="623.2173913043478" y="1448.217391304348"/>
      <point x="694.2608695652174" y="1448.217391304348" type="curve" smooth="yes"/>
      <point x="930.9565217391304" y="1448.217391304348"/>
      <point x="992.5652173913044" y="1222.2608695652173"/>
      <point x="992.5652173913044" y="901.3913043478261" type="curve" smooth="yes"/>
      <point x="992.5652173913044" y="461.8260869565217"/>
      <point x="841.4347826086956" y="34.30434782608697"/>
      <point x="532.9130434782609" y="34.30434782608697" type="curve" smooth="yes"/>
      <point x="434.5217391304348" y="34.30434782608697"/>
      <point x="392.30434782608694" y="71.1304347826087"/>
      <point x="345.0" y="90.95652173913044" type="curve"/>
    </contour>
  </outline>
</glyph>
<glyph name="J" format="2">
  <advance width="607.1739130434783"/>
  <unicode hex="004A"/>
  <anchor x="218.21739130434784" y="-164.0" name="btm"/>
  <anchor x="438.695652173913" y="1486.0" name="top"/>
  <outline>
    <contour>
      <point x="-133.34782608695653" y="-309.69565217391306" type="line"/>
      <point x="172.65217391304347" y="-248.65217391304347"/>
      <point x="339.5652173913044" y="-102.04347826086958"/>
      <point x="395.04347826086956" y="121.73913043478261" type="curve" smooth="yes"/>
      <point x="453.52173913043475" y="352.7826086956522"/>
      <point x="498.04347826086956" y="775.5217391304348"/>
      <point x="570.6521739130435" y="1413.6086956521738" type="curve"/>
      <point x="710.5652173913044" y="1450.0" type="line"/>
      <point x="714.8695652173914" y="1486.0" type="line"/>
      <point x="159.34782608695653" y="1486.0" type="line"/>
      <point x="154.34782608695653" y="1450.0" type="line"/>
      <point x="284.0" y="1415.1304347826087" type="line"/>
      <point x="242.26086956521738" y="990.8260869565217"/>
      <point x="185.65217391304347" y="486.95652173913044"/>
      <point x="124.04347826086956" y="129.8695652173913" type="curve" smooth="yes"/>
      <point x="94.1304347826087" y="-41.95652173913044"/>
      <point x="12.82608695652174" y="-194.08695652173913"/>
      <point x="-161.39130434782606" y="-263.9130434782609" type="curve"/>
    </contour>
  </outline>
</glyph>
<glyph name="K" format="2">
  <advance width="1299.9130434782608"/>
  <unicode hex="004B"/>
  <anchor x="711.9565217391304" y="0.0" name="bottom"/>
  <anchor x="842.5652173913044" y="1486.0" name="top"/>
  <outline>
    <contour>
      <point x="-37.73913043478261" y="0.0" type="line"/>
      <point x="528.2173913043479" y="0.0" type="line"/>
      <point x="534.608695652174" y="37.39130434782608" type="line"/>
      <point x="391.5652173913044" y="70.47826086956522" type="line"/>
      <point x="576.1739130434783" y="1415.1304347826087" type="line"/>
      <point x="717.5652173913044" y="1450.0" type="line"/>
      <point x="721.8695652173913" y="1486.0" type="line"/>
      <point x="168.2608695652174" y="1486.0" type="line"/>
      <point x="163.26086956521738" y="1450.0" type="line"/>
      <point x="289.1304347826087" y="1415.1304347826087" type="line"/>
      <point x="104.52173913043478" y="70.47826086956522" type="line"/>
      <point x="-32.73913043478261" y="37.39130434782609" type="line"/>
    </contour>
    <contour>
      <point x="425.5217391304348" y="534.8260869565217" type="line"/>
      <point x="1211.5217391304348" y="1414.9565217391303" type="line"/>
      <point x="1351.304347826087" y="1450.0" type="line"/>
      <point x="1356.3043478260868" y="1486.0" type="line"/>
      <point x="948.4347826086957" y="1486.0" type="line"/>
      <point x="943.4347826086956" y="1450.0" type="line"/>
      <point x="1096.7391304347825" y="1414.3478260869565" type="line"/>
      <point x="416.04347826086956" y="613.1304347826086" type="line"/>
    </contour>
    <contour>
      <point x="1247.9565217391305" y="0.0" type="line"/>
      <point x="1253.6521739130435" y="38.78260869565217" type="line"/>
      <point x="1175.8260869565217" y="66.6086956521739" type="line"/>
      <point x="1124.1304347826087" y="106.43478260869564"/>
      <point x="1043.9565217391303" y="329.1739130434783"/>
      <point x="959.8260869565217" y="533.4782608695652" type="curve" smooth="yes"/>
      <point x="885.3478260869565" y="717.2608695652174"/>
      <point x="829.4347826086956" y="844.1739130434783"/>
      <point x="784.8260869565217" y="952.0434782608696" type="curve"/>
      <point x="579.1739130434783" y="741.3478260869565" type="line"/>
      <point x="618.391304347826" y="645.1739130434783"/>
      <point x="705.4782608695651" y="384.8695652173913"/>
      <point x="743.5652173913044" y="291.7391304347826" type="curve" smooth="yes"/>
      <point x="812.8260869565217" y="118.95652173913044"/>
      <point x="839.0434782608696" y="1.217391304347827"/>
      <point x="893.1739130434783" y="0.0" type="curve"/>
    </contour>
  </outline>
</glyph>
<glyph name="L" format="2">
  <advance width="1085.6521739130435"/>
  <unicode hex="004C"/>
  <anchor x="521.3043478260869" y="0.0" name="bottom"/>
  <anchor x="803.9565217391305" y="1110.0" name="car"/>
  <anchor x="917.3043478260869" y="1618.0" name="caron"/>
  <anchor x="347.3913043478261" y="743.0" name="center"/>
  <anchor x="450.2173913043478" y="1486.0" name="top"/>
  <anchor x="1201.601" y="1486.0" name="topright"/>
  <outline>
    <contour>
      <point x="-37.73913043478261" y="0.0" type="line"/>
      <point x="939.7391304347826" y="0.0" type="line"/>
      <point x="1052.8260869565217" y="483.30434782608694" type="line"/>
      <point x="915.1739130434783" y="500.78260869565213" type="line"/>
      <point x="745.1739130434783" y="83.2608695652174" type="line"/>
      <point x="389.47826086956525" y="56.34782608695653" type="line"/>
      <point x="576.1739130434783" y="1415.1304347826087" type="line"/>
      <point x="717.5652173913044" y="1450.0" type="line"/>
      <point x="721.8695652173913" y="1486.0" type="line"/>
      <point x="168.2608695652174" y="1486.0" type="line"/>
      <point x="163.26086956521738" y="1450.0" type="line"/>
      <point x="289.1304347826087" y="1415.1304347826087" type="line"/>
      <point x="104.52173913043478" y="70.47826086956522" type="line"/>
      <point x="-32.73913043478261" y="37.39130434782609" type="line"/>
    </contour>
  </outline>
</glyph>
<glyph name="N" format="2">
  <advance width="1299.2608695652175"/>
  <unicode hex="004E"/>
  <anchor x="677.7391304347826" y="0.0" name="bottom"/>
  <anchor x="868.0434782608696" y="1486.0" name="top"/>
  <outline>
    <contour>
      <point x="-30.08695652173913" y="0.0" type="line"/>
      <point x="394.17391304347825" y="0.0" type="line"/>
      <point x="399.1739130434783" y="36.0" type="line"/>
      <point x="223.21739130434784" y="71.08695652173913" type="line"/>
      <point x="371.4782608695652" y="1434.304347826087" type="line"/>
      <point x="322.13043478260875" y="1427.8260869565217" type="line"/>
      <point x="449.2173913043478" y="1070.1739130434783" type="line"/>
      <point x="856.304347826087" y="0.0" type="line"/>
      <point x="1056.4347826086957" y="0.0" type="line"/>
      <point x="1265.3478260869565" y="1413.4347826086957" type="line"/>
      <point x="1396.913043478261" y="1450.0" type="line"/>
      <point x="1399.8260869565217" y="1486.0" type="line"/>
      <point x="1005.304347826087" y="1486.0" type="line"/>
      <point x="1000.3043478260869" y="1450.0" type="line"/>
      <point x="1168.6086956521738" y="1412.8260869565217" type="line"/>
      <point x="1026.1304347826087" y="195.26086956521738" type="line"/>
      <point x="1067.1739130434783" y="248.56521739130437" type="line"/>
      <point x="962.1739130434783" y="530.6521739130435" type="line"/>
      <point x="599.8260869565217" y="1486.0" type="line"/>
      <point x="179.3913043478261" y="1486.0" type="line"/>
      <point x="173.69565217391303" y="1447.913043478261" type="line"/>
      <point x="314.5652173913044" y="1413.7391304347827" type="line"/>
      <point x="117.43478260869564" y="70.47826086956522" type="line"/>
      <point x="-27.173913043478258" y="36.0" type="line"/>
    </contour>
  </outline>
</glyph>
<glyph name="R" format="2">
  <advance width="1247.8260869565217"/>
  <unicode hex="0052"/>
  <anchor x="674.0434782608695" y="0.0" name="bottom"/>
  <anchor x="719.4782608695652" y="1486.0" name="top"/>
  <outline>
    <contour>
      <point x="-37.73913043478261" y="0.0" type="line"/>
      <point x="541.6086956521739" y="0.0" type="line"/>
      <point x="548.304347826087" y="37.39130434782609" type="line"/>
      <point x="391.5652173913043" y="70.47826086956522" type="line"/>
      <point x="582.2608695652174" y="1458.8260869565215" type="line"/>
      <point x="553.7391304347826" y="1425.304347826087" type="line"/>
      <point x="585.0" y="1439.4782608695652"/>
      <point x="634.9130434782609" y="1447.5217391304348"/>
      <point x="676.4782608695651" y="1447.5217391304348" type="curve" smooth="yes"/>
      <point x="821.1304347826086" y="1447.5217391304348"/>
      <point x="875.8695652173914" y="1325.6521739130435"/>
      <point x="874.0869565217391" y="1139.608695652174" type="curve" smooth="yes"/>
      <point x="872.304347826087" y="948.4347826086957"/>
      <point x="795.8260869565217" y="707.4782608695651"/>
      <point x="591.9130434782609" y="710.5217391304348" type="curve" smooth="yes"/>
      <point x="554.4347826086956" y="710.9130434782609"/>
      <point x="493.4347826086956" y="711.2173913043478"/>
      <point x="464.3478260869565" y="716.6956521739131" type="curve"/>
      <point x="454.73913043478257" y="650.7391304347826" type="line"/>
      <point x="496.7826086956522" y="650.1304347826086"/>
      <point x="559.9565217391304" y="650.7391304347826"/>
      <point x="615.8260869565217" y="650.7391304347826" type="curve" smooth="yes"/>
      <point x="663.0" y="617.3478260869565"/>
      <point x="713.5217391304348" y="431.30434782608694"/>
      <point x="761.0" y="245.7391304347826" type="curve" smooth="yes"/>
      <point x="791.608695652174" y="118.0"/>
      <point x="830.8695652173914" y="0.0"/>
      <point x="867.695652173913" y="0.0" type="curve"/>
      <point x="1185.391304347826" y="0.0" type="line"/>
      <point x="1190.695652173913" y="38.78260869565217" type="line"/>
      <point x="1115.8260869565217" y="51.21739130434783"/>
      <point x="1088.5652173913043" y="170.52173913043475"/>
      <point x="1040.1304347826085" y="329.9130434782609" type="curve" smooth="yes"/>
      <point x="989.6086956521739" y="497.52173913043475"/>
      <point x="904.7826086956522" y="701.7391304347826"/>
      <point x="731.1304347826086" y="711.9130434782609" type="curve"/>
      <point x="697.3478260869566" y="659.608695652174" type="line"/>
      <point x="1020.4782608695651" y="703.3913043478261"/>
      <point x="1162.7826086956522" y="910.3913043478261"/>
      <point x="1165.5652173913043" y="1127.4347826086955" type="curve" smooth="yes"/>
      <point x="1168.3478260869565" y="1359.9130434782608"/>
      <point x="1044.2608695652175" y="1499.9130434782608"/>
      <point x="716.5652173913044" y="1499.9130434782608" type="curve" smooth="yes"/>
      <point x="614.0" y="1499.9130434782608"/>
      <point x="535.304347826087" y="1486.0"/>
      <point x="430.8695652173913" y="1486.0" type="curve" smooth="yes"/>
      <point x="168.2608695652174" y="1486.0" type="line"/>
      <point x="163.26086956521738" y="1450.0" type="line"/>
      <point x="289.1304347826087" y="1415.1304347826087" type="line"/>
      <point x="104.52173913043478" y="70.47826086956522" type="line"/>
      <point x="-32.73913043478261" y="37.39130434782609" type="line"/>
    </contour>
  </outline>
</glyph>
<glyph name="S" format="2">
  <advance width="1017.1739130434783"/>
  <unicode hex="0053"/>
  <anchor x="433.34782608695656" y="0.0" name="bottom"/>
  <anchor x="638.6521739130434" y="1486.0" name="top"/>
  <outline>
    <contour>
      <point x="427.95652173913044" y="-23.391304347826086" type="curve" smooth="yes"/>
      <point x="773.5217391304349" y="-23.391304347826086"/>
      <point x="956.3913043478261" y="175.73913043478262"/>
      <point x="956.3913043478261" y="422.2608695652174" type="curve" smooth="yes"/>
      <point x="956.3913043478261" y="620.9565217391304"/>
      <point x="791.8260869565217" y="758.8260869565217"/>
      <point x="644.5217391304349" y="866.5652173913043" type="curve" smooth="yes"/>
      <point x="500.00000000000006" y="972.0434782608695"/>
      <point x="397.69565217391306" y="1049.6521739130435"/>
      <point x="397.69565217391306" y="1205.695652173913" type="curve" smooth="yes"/>
      <point x="397.69565217391306" y="1367.1304347826087"/>
      <point x="505.0" y="1447.9130434782608"/>
      <point x="624.2173913043478" y="1447.9130434782608" type="curve" smooth="yes"/>
      <point x="721.9565217391305" y="1447.9130434782608"/>
      <point x="786.3913043478261" y="1403.3478260869567"/>
      <point x="797.3478260869566" y="1347.3913043478262" type="curve"/>
      <point x="812.7826086956521" y="1145.9130434782608" type="line"/>
      <point x="969.2173913043478" y="1145.9130434782608" type="line"/>
      <point x="1016.3913043478261" y="1429.2608695652175" type="line"/>
      <point x="960.7391304347826" y="1463.7391304347825"/>
      <point x="835.8695652173914" y="1503.391304347826"/>
      <point x="637.0869565217391" y="1503.391304347826" type="curve" smooth="yes"/>
      <point x="358.60869565217394" y="1503.391304347826"/>
      <point x="143.0" y="1355.6521739130435"/>
      <point x="143.0" y="1079.7391304347827" type="curve" smooth="yes"/>
      <point x="143.0" y="882.4347826086956"/>
      <point x="291.7826086956522" y="743.7391304347826"/>
      <point x="446.47826086956525" y="638.0" type="curve" smooth="yes"/>
      <point x="599.5652173913044" y="533.3478260869565"/>
      <point x="699.3478260869565" y="426.9130434782609"/>
      <point x="699.3478260869565" y="307.04347826086956" type="curve" smooth="yes"/>
      <point x="699.3478260869565" y="129.65217391304347"/>
      <point x="593.7826086956521" y="32.782608695652186"/>
      <point x="436.3478260869565" y="32.782608695652186" type="curve" smooth="yes"/>
      <point x="329.47826086956525" y="32.782608695652186"/>
      <point x="253.3913043478261" y="90.91304347826087"/>
      <point x="231.43478260869566" y="149.08695652173913" type="curve"/>
      <point x="218.78260869565216" y="369.82608695652175" type="line"/>
      <point x="56.26086956521739" y="369.82608695652175" type="line"/>
      <point x="2.608695652173914" y="71.26086956521739" type="line"/>
      <point x="46.69565217391305" y="35.26086956521739"/>
      <point x="251.6086956521739" y="-23.391304347826086"/>
    </contour>
  </outline>
</glyph>
<glyph name="T" format="2">
  <advance width="1219.608695652174"/>
  <unicode hex="0054"/>
  <anchor x="566.3478260869565" y="0.0" name="bottom"/>
  <anchor x="909.7391304347825" y="0.0" name="bottomright"/>
  <anchor x="657.0340434782609" y="743.0" name="center"/>
  <anchor x="759.7391304347826" y="1486.0" name="top"/>
  <outline>
    <contour>
      <point x="205.7826086956522" y="0.0" type="line"/>
      <point x="904.8260869565217" y="0.0" type="line"/>
      <point x="909.8260869565217" y="36.69565217391305" type="line"/>
      <point x="702.0869565217391" y="69.39130434782608" type="line"/>
      <point x="889.0869565217391" y="1433.1739130434783" type="line"/>
      <point x="1072.1304347826087" y="1419.5217391304348" type="line"/>
      <point x="1135.1304347826087" y="981.3913043478261" type="line"/>
      <point x="1249.4782608695652" y="981.695652173913" type="line"/>
      <point x="1291.0869565217392" y="1486.0" type="line"/>
      <point x="203.95652173913044" y="1486.0" type="line"/>
      <point x="104.65217391304347" y="981.695652173913" type="line"/>
      <point x="233.82608695652175" y="982.3043478260869" type="line"/>
      <point x="416.1304347826087" y="1419.5217391304348" type="line"/>
      <point x="602.0434782608695" y="1433.1739130434783" type="line"/>
      <point x="415.04347826086956" y="69.39130434782608" type="line"/>
      <point x="210.7826086956522" y="36.69565217391305" type="line"/>
    </contour>
  </outline>
</glyph>
<glyph name="W" format="2">
  <advance width="1775.1739130434783"/>
  <unicode hex="0057"/>
  <anchor x="806.0" y="0.0" name="bottom"/>
  <anchor x="1047.3913043478262" y="1486.0" name="top"/>
  <outline>
    <contour>
      <point x="359.60869565217394" y="-3.3478260869565224" type="line"/>
      <point x="599.3913043478261" y="-3.3478260869565215" type="line"/>
      <point x="1122.2608695652175" y="1359.4782608695652" type="line"/>
      <point x="1021.9565217391305" y="1358.8695652173913" type="line"/>
      <point x="639.8695652173913" y="291.73913043478257" type="line"/>
      <point x="567.6521739130435" y="73.0" type="line"/>
      <point x="606.9130434782609" y="106.86956521739131" type="line"/>
      <point x="576.2173913043479" y="406.0434782608696" type="line"/>
      <point x="440.82608695652175" y="1415.521739130435" type="line"/>
      <point x="596.4347826086956" y="1448.6086956521738" type="line"/>
      <point x="601.4347826086956" y="1486.0" type="line"/>
      <point x="40.2608695652174" y="1486.0" type="line"/>
      <point x="35.95652173913044" y="1448.608695652174" type="line"/>
      <point x="146.69565217391303" y="1416.7391304347827" type="line"/>
    </contour>
    <contour>
      <point x="1072.5217391304348" y="-3.3478260869565224" type="line"/>
      <point x="1319.2608695652175" y="-3.3478260869565215" type="line"/>
      <point x="1858.608695652174" y="1419.4347826086955" type="line"/>
      <point x="1982.1304347826087" y="1451.3913043478262" type="line"/>
      <point x="1987.1304347826085" y="1486.0" type="line"/>
      <point x="1598.8695652173913" y="1486.0" type="line"/>
      <point x="1593.8695652173913" y="1451.3913043478262" type="line"/>
      <point x="1750.695652173913" y="1418.8260869565217" type="line"/>
      <point x="1362.4347826086957" y="292.3478260869565" type="line"/>
      <point x="1288.913043478261" y="73.0" type="line"/>
      <point x="1324.0" y="106.86956521739131" type="line"/>
      <point x="1293.304347826087" y="406.0434782608696" type="line"/>
      <point x="1170.9565217391305" y="1415.521739130435" type="line"/>
      <point x="1323.2608695652173" y="1448.6086956521738" type="line"/>
      <point x="1328.2608695652173" y="1486.0" type="line"/>
      <point x="767.0869565217391" y="1486.0" type="line"/>
      <point x="762.7826086956522" y="1448.608695652174" type="line"/>
      <point x="876.8260869565217" y="1416.7391304347827" type="line"/>
    </contour>
  </outline>
</glyph>
<glyph name="X" format="2">
  <advance width="1180.6956521739132"/>
  <unicode hex="0058"/>
  <anchor x="520.8260869565217" y="0.0" name="bottom"/>
  <anchor x="1127.521739130435" y="0.0" name="bottomright"/>
  <anchor x="620.4347826086957" y="746.0" name="center"/>
  <anchor x="747.6521739130435" y="1538.9565217391305" name="top"/>
  <outline>
    <contour>
      <point x="-87.30434782608695" y="0.0" type="line"/>
      <point x="334.65217391304344" y="0.0" type="line"/>
      <point x="339.65217391304344" y="38.08695652173913" type="line"/>
      <point x="181.73913043478262" y="70.17391304347827" type="line"/>
      <point x="573.9130434782609" y="666.5652173913043" type="line"/>
      <point x="711.5217391304348" y="788.8695652173913" type="line"/>
      <point x="1164.9565217391303" y="1415.7391304347825" type="line"/>
      <point x="1291.9565217391305" y="1450.0" type="line"/>
      <point x="1296.9565217391305" y="1486.0" type="line"/>
      <point x="898.2608695652174" y="1486.0" type="line"/>
      <point x="893.2608695652174" y="1450.0" type="line"/>
      <point x="1055.4347826086955" y="1414.8260869565217" type="line"/>
      <point x="685.1304347826086" y="843.0434782608696" type="line"/>
      <point x="544.9130434782609" y="724.1304347826087" type="line"/>
      <point x="72.30434782608697" y="69.56521739130436" type="line"/>
      <point x="-82.30434782608695" y="38.08695652173913" type="line"/>
    </contour>
    <contour>
      <point x="565.5652173913044" y="0.0" type="line"/>
      <point x="1122.913043478261" y="0.0" type="line"/>
      <point x="1127.913043478261" y="38.08695652173913" type="line"/>
      <point x="1009.0869565217391" y="70.17391304347827" type="line"/>
      <point x="734.5217391304348" y="841.9130434782609" type="line"/>
      <point x="725.304347826087" y="863.9130434782609" type="line"/>
      <point x="550.391304347826" y="1415.7391304347825" type="line"/>
      <point x="704.1304347826087" y="1450.0" type="line"/>
      <point x="709.1304347826087" y="1486.0" type="line"/>
      <point x="135.6521739130435" y="1486.0" type="line"/>
      <point x="130.65217391304347" y="1450.0" type="line"/>
      <point x="242.3913043478261" y="1414.8260869565217" type="line"/>
      <point x="512.8695652173913" y="657.7826086956522" type="line"/>
      <point x="520.9565217391305" y="639.4782608695651" type="line"/>
      <point x="703.4347826086956" y="69.56521739130434" type="line"/>
      <point x="570.5652173913044" y="38.08695652173913" type="line"/>
    </contour>
  </outline>
</glyph>
<glyph name="Y" format="2">
  <advance width="1041.3043478260868"/>
  <unicode hex="0059"/>
  <anchor x="474.4782608695652" y="0.0" name="bottom"/>
  <anchor x="535.1304347826087" y="469.0" name="center"/>
  <anchor x="724.7826086956521" y="1486.0" name="top"/>
  <anchor x="157.30434782608697" y="1486.0" name="topleft"/>
  <outline>
    <contour>
      <point x="152.39130434782606" y="0.0" type="line"/>
      <point x="791.2173913043479" y="0.0" type="line"/>
      <point x="796.2173913043479" y="37.39130434782609" type="line"/>
      <point x="617.6086956521739" y="76.73913043478261" type="line"/>
      <point x="706.2608695652174" y="724.695652173913" type="line"/>
      <point x="631.0869565217391" y="549.4782608695652" type="line"/>
      <point x="1099.2608695652173" y="1419.0434782608695" type="line"/>
      <point x="1217.1739130434783" y="1450.0" type="line"/>
      <point x="1222.1739130434783" y="1486.0" type="line"/>
      <point x="873.0869565217391" y="1486.0" type="line"/>
      <point x="868.0869565217391" y="1450.0" type="line"/>
      <point x="995.5217391304348" y="1419.1304347826087" type="line"/>
      <point x="709.3478260869566" y="836.5217391304348" type="line"/>
      <point x="599.9130434782609" y="610.608695652174" type="line"/>
      <point x="677.9130434782609" y="678.3913043478261" type="line"/>
      <point x="627.7826086956521" y="873.1304347826087" type="line"/>
      <point x="482.1304347826087" y="1417.1739130434783" type="line"/>
      <point x="614.8260869565217" y="1451.3913043478262" type="line"/>
      <point x="619.8260869565217" y="1486.0" type="line"/>
      <point x="72.82608695652173" y="1486.0" type="line"/>
      <point x="67.82608695652173" y="1451.3913043478262" type="line"/>
      <point x="163.82608695652175" y="1419.9565217391303" type="line"/>
      <point x="438.17391304347825" y="529.9565217391304" type="line"/>
      <point x="425.4782608695652" y="767.9130434782608" type="line"/>
      <point x="330.5652173913044" y="76.73913043478261" type="line"/>
      <point x="157.3913043478261" y="37.39130434782609" type="line"/>
    </contour>
  </outline>
</glyph>
<glyph name="bracketleft" format="2">
  <advance width="740.695652173913"/>
  <unicode hex="005B"/>
  <outline>
    <contour>
      <point x="251.8695652173913" y="-250.43478260869566" type="curve" smooth="yes"/>
      <point x="337.26086956521743" y="-250.43478260869566"/>
      <point x="424.5217391304348" y="-232.3478260869565"/>
      <point x="498.34782608695656" y="-211.6521739130435" type="curve"/>
      <point x="504.0434782608696" y="-172.82608695652175" type="line"/>
      <point x="301.30434782608694" y="-172.82608695652175" type="line"/>
      <point x="542.608695652174" y="1574.8695652173913" type="line"/>
      <point x="745.6521739130435" y="1574.8695652173913" type="line"/>
      <point x="750.6521739130435" y="1612.304347826087" type="line"/>
      <point x="682.5652173913044" y="1630.391304347826"/>
      <point x="602.3913043478261" y="1650.4782608695652"/>
      <point x="514.4782608695652" y="1650.4782608695652" type="curve" smooth="yes"/>
      <point x="388.82608695652175" y="1650.4782608695652"/>
      <point x="315.5217391304348" y="1620.1304347826087"/>
      <point x="295.95652173913044" y="1475.5217391304348" type="curve" smooth="yes"/>
      <point x="83.34782608695652" y="-75.47826086956522" type="line" smooth="yes"/>
      <point x="63.78260869565217" y="-220.08695652173913"/>
      <point x="126.21739130434783" y="-250.43478260869566"/>
    </contour>
  </outline>
</glyph>
<glyph name="backslash" format="2">
  <advance width="904.0434782608695"/>
  <unicode hex="005C"/>
  <outline>
    <contour>
      <point x="755.2608695652174" y="-354.0" type="line"/>
      <point x="835.2608695652174" y="-354.0" type="line"/>
      <point x="271.26086956521743" y="1566.1739130434783" type="line"/>
      <point x="192.65217391304347" y="1566.1739130434783" type="line"/>
    </contour>
  </outline>
</glyph>
<glyph name="a" format="2">
  <advance width="996.9565217391304"/>
  <unicode hex="0061"/>
  <anchor x="467.0869565217391" y="0.0" name="bottom"/>
  <anchor x="1079.0869565217392" y="1622.0" name="caron"/>
  <anchor x="776.5652173913044" y="0.0" name="ogonek"/>
  <anchor x="622.0869565217391" y="1108.608695652174" name="top"/>
  <outline>
    <contour>
      <point x="823.1739130434783" y="171.6086956521739" type="curve" smooth="yes"/>
      <point x="952.0434782608695" y="1022.9130434782608" type="line"/>
      <point x="789.5217391304348" y="985.6956521739131" type="line"/>
      <point x="734.695652173913" y="1009.1739130434783"/>
      <point x="669.9130434782609" y="1027.9130434782608"/>
      <point x="601.9130434782609" y="1027.9130434782608" type="curve" smooth="yes"/>
      <point x="246.82608695652175" y="1027.9130434782608"/>
      <point x="27.347826086956523" y="681.8260869565217"/>
      <point x="27.347826086956523" y="342.04347826086956" type="curve" smooth="yes"/>
      <point x="27.347826086956523" y="85.17391304347827"/>
      <point x="172.2173913043478" y="-22.391304347826086"/>
      <point x="306.30434782608694" y="-22.391304347826086" type="curve" smooth="yes"/>
      <point x="450.0" y="-22.391304347826086"/>
      <point x="548.608695652174" y="109.52173913043478"/>
      <point x="587.304347826087" y="242.73913043478262" type="curve"/>
      <point x="573.6956521739131" y="137.56521739130434" type="line"/>
      <point x="563.0869565217391" y="55.91304347826087"/>
      <point x="595.6956521739131" y="-22.391304347826086"/>
      <point x="698.2173913043479" y="-22.391304347826086" type="curve" smooth="yes"/>
      <point x="826.7391304347826" y="-22.391304347826086"/>
      <point x="912.5652173913044" y="42.173913043478265"/>
      <point x="962.9565217391305" y="112.78260869565217" type="curve"/>
      <point x="942.1739130434783" y="156.69565217391303" type="line"/>
      <point x="911.0434782608696" y="120.04347826086955"/>
      <point x="878.4782608695652" y="105.30434782608697"/>
      <point x="855.8695652173913" y="105.30434782608697" type="curve" smooth="yes"/>
      <point x="824.3478260869565" y="105.30434782608697"/>
      <point x="816.8695652173913" y="128.78260869565216"/>
    </contour>
    <contour>
      <point x="680.1739130434783" y="930.1304347826087" type="curve"/>
      <point x="584.8260869565217" y="342.69565217391306" type="line"/>
      <point x="556.5217391304348" y="211.34782608695653"/>
      <point x="471.9130434782608" y="88.21739130434781"/>
      <point x="405.2608695652174" y="88.21739130434781" type="curve" smooth="yes"/>
      <point x="342.2608695652174" y="88.21739130434781"/>
      <point x="313.1304347826087" y="154.04347826086956"/>
      <point x="313.1304347826087" y="306.4347826086957" type="curve" smooth="yes"/>
      <point x="313.1304347826087" y="584.7391304347826"/>
      <point x="413.73913043478257" y="982.7391304347826"/>
      <point x="593.8695652173913" y="982.7391304347826" type="curve" smooth="yes"/>
      <point x="637.1304347826087" y="982.7391304347826"/>
      <point x="672.9565217391304" y="957.391304347826"/>
    </contour>
  </outline>
</glyph>
<glyph name="b" format="2">
  <advance width="994.1304347826086"/>
  <unicode hex="0062"/>
  <anchor x="402.1304347826087" y="0.0" name="bottom"/>
  <anchor x="726.7826086956522" y="1109.304347826087" name="top"/>
  <outline>
    <contour>
      <point x="415.34782608695656" y="820.3043478260869" type="curve"/>
      <point x="532.695652173913" y="1608.2608695652173" type="line"/>
      <point x="501.17391304347825" y="1634.0" type="line"/>
      <point x="147.52173913043478" y="1584.7826086956522" type="line"/>
      <point x="142.82608695652175" y="1553.521739130435" type="line"/>
      <point x="259.7826086956522" y="1519.0" type="line"/>
      <point x="29.78260869565218" y="-21.695652173913043" type="line"/>
      <point x="183.69565217391306" y="19.173913043478258" type="line"/>
      <point x="241.04347826086956" y="-2.7826086956521734"/>
      <point x="315.47826086956525" y="-21.391304347826086"/>
      <point x="385.2608695652174" y="-21.391304347826086" type="curve" smooth="yes"/>
      <point x="754.7826086956522" y="-21.391304347826086"/>
      <point x="963.7391304347826" y="308.69565217391306"/>
      <point x="963.7391304347826" y="685.4782608695651" type="curve" smooth="yes"/>
      <point x="963.7391304347826" y="902.5652173913044"/>
      <point x="853.4782608695652" y="1036.304347826087"/>
      <point x="690.9130434782608" y="1036.304347826087" type="curve" smooth="yes"/>
      <point x="569.695652173913" y="1036.304347826087"/>
      <point x="464.82608695652175" y="944.2608695652174"/>
    </contour>
    <contour>
      <point x="306.0" y="82.78260869565217" type="curve"/>
      <point x="392.5652173913044" y="664.0434782608696" type="line"/>
      <point x="435.86956521739125" y="844.1739130434783"/>
      <point x="527.8695652173913" y="925.3913043478261"/>
      <point x="586.2173913043479" y="925.3913043478261" type="curve" smooth="yes"/>
      <point x="646.7391304347826" y="925.3913043478261"/>
      <point x="678.2608695652174" y="852.9130434782609"/>
      <point x="678.2608695652174" y="724.695652173913" type="curve" smooth="yes"/>
      <point x="678.2608695652174" y="397.3478260869565"/>
      <point x="576.3043478260869" y="29.65217391304347"/>
      <point x="388.04347826086956" y="29.65217391304347" type="curve" smooth="yes"/>
      <point x="348.82608695652175" y="29.65217391304347"/>
      <point x="320.2173913043478" y="47.21739130434782"/>
    </contour>
  </outline>
</glyph>
<glyph name="c" format="2">
  <advance width="783.4782608695652"/>
  <unicode hex="0063"/>
  <anchor x="376.8695652173913" y="0.0" name="bottom"/>
  <anchor x="584.2173913043478" y="1108.6086956521738" name="top"/>
  <outline>
    <contour>
      <point x="695.3913043478261" y="732.0434782608696" type="curve" smooth="yes"/>
      <point x="753.5652173913044" y="732.0434782608695" type="line"/>
      <point x="823.3478260869565" y="991.3478260869566" type="line"/>
      <point x="757.7391304347826" y="1017.4782608695651"/>
      <point x="659.304347826087" y="1033.1739130434783"/>
      <point x="591.1739130434783" y="1033.1739130434783" type="curve" smooth="yes"/>
      <point x="250.08695652173913" y="1033.1739130434783"/>
      <point x="31.65217391304348" y="709.3913043478261"/>
      <point x="31.65217391304348" y="391.5652173913044" type="curve" smooth="yes"/>
      <point x="31.65217391304348" y="125.21739130434781"/>
      <point x="164.65217391304347" y="-23.08695652173913"/>
      <point x="372.5217391304348" y="-23.08695652173913" type="curve" smooth="yes"/>
      <point x="535.0434782608696" y="-23.08695652173913"/>
      <point x="652.0869565217391" y="54.91304347826086"/>
      <point x="731.3478260869565" y="177.6086956521739" type="curve"/>
      <point x="709.0869565217392" y="219.78260869565216" type="line"/>
      <point x="654.9130434782609" y="152.08695652173913"/>
      <point x="568.4782608695652" y="87.73913043478261"/>
      <point x="477.9130434782609" y="87.73913043478261" type="curve" smooth="yes"/>
      <point x="391.7826086956522" y="87.73913043478261"/>
      <point x="318.82608695652175" y="154.82608695652175"/>
      <point x="318.82608695652175" y="389.5652173913044" type="curve" smooth="yes"/>
      <point x="318.82608695652175" y="711.0869565217391"/>
      <point x="450.0" y="978.4782608695652"/>
      <point x="568.8695652173913" y="978.4782608695652" type="curve" smooth="yes"/>
      <point x="633.0" y="978.4782608695652"/>
      <point x="643.3478260869566" y="929.0"/>
    </contour>
  </outline>
</glyph>
<glyph name="f" format="2">
  <advance width="578.1739130434783"/>
  <unicode hex="0066"/>
  <anchor x="247.08695652173913" y="1544.0" name="top"/>
  <outline>
    <contour>
      <point x="213.1304347826087" y="1116.695652173913" type="curve" smooth="yes"/>
      <point x="197.6086956521739" y="1006.391304347826" type="line"/>
      <point x="90.47826086956522" y="950.0434782608696" type="line"/>
      <point x="85.47826086956522" y="917.0" type="line"/>
      <point x="186.30434782608694" y="917.0" type="line"/>
      <point x="64.34782608695653" y="-46.434782608695656" type="line" smooth="yes"/>
      <point x="30.043478260869563" y="-316.0869565217391"/>
      <point x="-22.391304347826086" y="-442.0"/>
      <point x="-97.99999999999999" y="-442.0" type="curve" smooth="yes"/>
      <point x="-134.04347826086956" y="-442.0"/>
      <point x="-165.52173913043478" y="-420.0869565217391"/>
      <point x="-199.26086956521738" y="-379.0869565217391" type="curve"/>
      <point x="-232.8695652173913" y="-479.1304347826087" type="line"/>
      <point x="-192.47826086956522" y="-496.9130434782609"/>
      <point x="-147.78260869565216" y="-502.60869565217394"/>
      <point x="-105.52173913043478" y="-502.60869565217394" type="curve" smooth="yes"/>
      <point x="153.91304347826087" y="-502.60869565217394"/>
      <point x="289.69565217391306" y="-314.47826086956525"/>
      <point x="344.95652173913044" y="122.69565217391303" type="curve" smooth="yes"/>
      <point x="445.6521739130435" y="917.0" type="line"/>
      <point x="598.1739130434783" y="917.0" type="line"/>
      <point x="609.1739130434783" y="1005.0" type="line"/>
      <point x="458.04347826086956" y="1005.0" type="line"/>
      <point x="486.5217391304348" y="1235.4782608695652" type="line" smooth="yes"/>
      <point x="514.6521739130435" y="1462.8695652173915"/>
      <point x="590.7826086956521" y="1565.5217391304348"/>
      <point x="674.0869565217391" y="1565.5217391304348" type="curve" smooth="yes"/>
      <point x="714.5652173913044" y="1565.5217391304348"/>
      <point x="746.4782608695652" y="1531.7391304347825"/>
      <point x="782.2173913043478" y="1482.1304347826087" type="curve"/>
      <point x="822.0434782608696" y="1598.9565217391305" type="line"/>
      <point x="778.9565217391305" y="1617.0869565217392"/>
      <point x="734.4782608695652" y="1629.695652173913"/>
      <point x="665.9130434782609" y="1629.695652173913" type="curve" smooth="yes"/>
      <point x="407.82608695652175" y="1629.695652173913"/>
      <point x="252.4782608695652" y="1393.6521739130435"/>
    </contour>
  </outline>
</glyph>
<glyph name="g" format="2">
  <advance width="973.5217391304349"/>
  <unicode hex="0067"/>
  <anchor x="347.30434782608694" y="0.0" name="bottom"/>
  <anchor x="659.3025652173912" y="580.0" name="tbar"/>
  <anchor x="605.4782608695652" y="1108.0" name="top"/>
  <outline>
    <contour>
      <point x="789.1739130434783" y="-65.34782608695652" type="curve" smooth="yes"/>
      <point x="948.7391304347825" y="1022.9130434782609" type="line"/>
      <point x="784.8260869565216" y="985.0" type="line"/>
      <point x="734.8260869565217" y="1007.608695652174"/>
      <point x="675.0434782608696" y="1027.9130434782608"/>
      <point x="595.304347826087" y="1027.9130434782608" type="curve" smooth="yes"/>
      <point x="219.73913043478262" y="1027.9130434782608"/>
      <point x="30.652173913043484" y="706.1304347826087"/>
      <point x="30.652173913043484" y="343.7391304347826" type="curve" smooth="yes"/>
      <point x="30.652173913043484" y="113.78260869565217"/>
      <point x="144.91304347826087" y="-22.391304347826086"/>
      <point x="315.304347826087" y="-22.391304347826086" type="curve" smooth="yes"/>
      <point x="429.4347826086956" y="-22.391304347826086"/>
      <point x="532.1304347826087" y="77.3913043478261"/>
      <point x="578.3478260869565" y="190.1304347826087" type="curve"/>
      <point x="534.2173913043479" y="-110.95652173913044" type="line" smooth="yes"/>
      <point x="499.8695652173913" y="-345.39130434782606"/>
      <point x="441.2173913043478" y="-455.3913043478261"/>
      <point x="330.5652173913044" y="-455.3913043478261" type="curve" smooth="yes"/>
      <point x="228.13043478260872" y="-455.3913043478261"/>
      <point x="122.21739130434781" y="-353.5652173913044"/>
      <point x="71.34782608695652" y="-210.34782608695656" type="curve"/>
      <point x="-13.347826086956523" y="-402.82608695652175" type="line"/>
      <point x="68.91304347826087" y="-467.0869565217391"/>
      <point x="172.17391304347828" y="-500.5652173913043"/>
      <point x="327.2608695652174" y="-500.5652173913043" type="curve" smooth="yes"/>
      <point x="581.6521739130435" y="-500.5652173913043"/>
      <point x="745.391304347826" y="-365.04347826086956"/>
    </contour>
    <contour>
      <point x="673.3913043478261" y="930.0434782608695" type="curve"/>
      <point x="595.9565217391305" y="348.86956521739125" type="line"/>
      <point x="560.3043478260869" y="201.47826086956522"/>
      <point x="480.13043478260875" y="88.21739130434783"/>
      <point x="408.04347826086956" y="88.21739130434783" type="curve" smooth="yes"/>
      <point x="372.3478260869565" y="88.21739130434783"/>
      <point x="316.1304347826087" y="115.91304347826086"/>
      <point x="316.1304347826087" y="318.1304347826087" type="curve" smooth="yes"/>
      <point x="316.1304347826087" y="570.7826086956522"/>
      <point x="400.30434782608694" y="982.7391304347826"/>
      <point x="592.5652173913044" y="982.7391304347826" type="curve" smooth="yes"/>
      <point x="639.304347826087" y="982.7391304347826"/>
      <point x="665.0434782608695" y="958.3478260869565"/>
    </contour>
  </outline>
</glyph>
<glyph name="l" format="2">
  <advance width="491.78260869565213"/>
  <unicode hex="006C"/>
  <anchor x="215.56521739130434" y="0.0" name="bottom"/>
  <anchor x="630.3478260869565" y="1619.217391304348" name="caron"/>
  <anchor x="394.52173913043475" y="1622.913043478261" name="top"/>
  <outline>
    <contour>
      <point x="314.7826086956522" y="162.17391304347825" type="curve" smooth="yes"/>
      <point x="530.9130434782609" y="1608.2608695652173" type="line"/>
      <point x="499.3913043478261" y="1634.0" type="line"/>
      <point x="143.30434782608697" y="1584.7826086956522" type="line"/>
      <point x="138.6086956521739" y="1553.521739130435" type="line"/>
      <point x="258.0" y="1519.0" type="line"/>
      <point x="66.56521739130434" y="235.56521739130434" type="line" smooth="yes"/>
      <point x="56.47826086956522" y="168.26086956521738"/>
      <point x="52.56521739130435" y="122.65217391304348"/>
      <point x="52.56521739130435" y="102.26086956521739" type="curve" smooth="yes"/>
      <point x="52.56521739130435" y="13.17391304347826"/>
      <point x="101.91304347826087" y="-23.08695652173913"/>
      <point x="176.13043478260872" y="-23.08695652173913" type="curve" smooth="yes"/>
      <point x="296.95652173913044" y="-23.08695652173913"/>
      <point x="383.304347826087" y="24.913043478260867"/>
      <point x="456.30434782608694" y="113.47826086956522" type="curve"/>
      <point x="436.1304347826087" y="154.30434782608697" type="line"/>
      <point x="402.9130434782609" y="117.04347826086955"/>
      <point x="370.82608695652175" y="101.82608695652175"/>
      <point x="348.52173913043475" y="101.82608695652175" type="curve" smooth="yes"/>
      <point x="328.4782608695652" y="101.82608695652175"/>
      <point x="313.5652173913043" y="112.73913043478262"/>
    </contour>
  </outline>
</glyph>
<glyph name="m" format="2">
  <advance width="1565.0"/>
  <unicode hex="006D"/>
  <anchor x="709.7391304347826" y="0.0" name="bottom"/>
  <anchor x="1434.9130434782608" y="0.0" name="bottomright"/>
  <anchor x="943.6521739130435" y="1108.608695652174" name="top"/>
  <outline>
    <contour>
      <point x="440.7391304347826" y="995.9565217391304" type="line"/>
      <point x="403.7826086956522" y="1029.1739130434783" type="line"/>
      <point x="77.91304347826087" y="967.086956521739" type="line"/>
      <point x="73.21739130434784" y="935.8260869565217" type="line"/>
      <point x="167.2173913043478" y="898.6956521739131" type="line"/>
      <point x="39.652173913043484" y="0.0" type="line"/>
      <point x="303.1739130434783" y="0.0" type="line"/>
      <point x="374.4782608695652" y="519.304347826087" type="line"/>
      <point x="439.39130434782606" y="691.7826086956522"/>
      <point x="538.3043478260869" y="858.8260869565217"/>
      <point x="620.1304347826086" y="858.8260869565217" type="curve" smooth="yes"/>
      <point x="664.3478260869565" y="858.8260869565217"/>
      <point x="677.9130434782609" y="825.3913043478261"/>
      <point x="677.9130434782609" y="776.3913043478261" type="curve" smooth="yes"/>
      <point x="677.9130434782609" y="719.9565217391305"/>
      <point x="661.0" y="589.8695652173913"/>
      <point x="649.5217391304348" y="506.8695652173913" type="curve" smooth="yes"/>
      <point x="581.0" y="0.0" type="line"/>
      <point x="844.5217391304348" y="0.0" type="line"/>
      <point x="913.5652173913044" y="539.3913043478261" type="line" smooth="yes"/>
      <point x="914.5652173913043" y="548.7826086956521"/>
      <point x="916.5652173913043" y="559.1739130434783"/>
      <point x="917.5652173913044" y="568.5652173913044" type="curve"/>
      <point x="892.8260869565217" y="469.65217391304344" type="line"/>
      <point x="990.1304347826087" y="747.7826086956522"/>
      <point x="1089.8260869565217" y="858.8260869565217"/>
      <point x="1158.0869565217392" y="858.8260869565217" type="curve" smooth="yes"/>
      <point x="1202.608695652174" y="858.8260869565217"/>
      <point x="1216.8695652173915" y="825.3913043478261"/>
      <point x="1216.8695652173915" y="771.5217391304348" type="curve" smooth="yes"/>
      <point x="1216.8695652173915" y="707.391304347826"/>
      <point x="1199.5652173913045" y="580.304347826087"/>
      <point x="1179.8260869565217" y="444.9565217391305" type="curve" smooth="yes"/>
      <point x="1161.2608695652175" y="320.82608695652175"/>
      <point x="1134.9565217391305" y="144.3913043478261"/>
      <point x="1134.9565217391305" y="95.86956521739131" type="curve" smooth="yes"/>
      <point x="1134.9565217391305" y="8.30434782608696"/>
      <point x="1194.7391304347825" y="-23.08695652173913"/>
      <point x="1257.695652173913" y="-23.08695652173913" type="curve" smooth="yes"/>
      <point x="1399.9130434782608" y="-23.08695652173913"/>
      <point x="1498.695652173913" y="58.60869565217392"/>
      <point x="1542.1739130434783" y="112.78260869565217" type="curve"/>
      <point x="1522.0" y="155.0" type="line"/>
      <point x="1488.9565217391305" y="117.52173913043478"/>
      <point x="1455.0869565217392" y="105.30434782608697"/>
      <point x="1438.0434782608695" y="105.30434782608697" type="curve" smooth="yes"/>
      <point x="1418.5217391304348" y="105.30434782608697"/>
      <point x="1404.8695652173915" y="118.1304347826087"/>
      <point x="1404.8695652173915" y="163.3913043478261" type="curve" smooth="yes"/>
      <point x="1409.7391304347827" y="223.08695652173913"/>
      <point x="1429.9565217391305" y="368.82608695652175"/>
      <point x="1446.9130434782608" y="481.2173913043478" type="curve" smooth="yes"/>
      <point x="1460.304347826087" y="565.9565217391304"/>
      <point x="1484.695652173913" y="720.0869565217391"/>
      <point x="1484.695652173913" y="821.0434782608696" type="curve" smooth="yes"/>
      <point x="1484.695652173913" y="937.7391304347826"/>
      <point x="1421.5217391304348" y="1031.0"/>
      <point x="1295.217391304348" y="1031.0" type="curve" smooth="yes"/>
      <point x="1088.3478260869565" y="1031.0"/>
      <point x="967.8260869565219" y="772.0434782608696"/>
      <point x="904.7826086956521" y="573.695652173913" type="curve"/>
      <point x="919.2608695652174" y="572.4782608695652" type="line"/>
      <point x="933.391304347826" y="672.695652173913"/>
      <point x="944.9130434782609" y="766.1304347826086"/>
      <point x="944.9130434782609" y="823.4782608695651" type="curve" smooth="yes"/>
      <point x="944.9130434782609" y="945.3913043478261"/>
      <point x="875.6086956521739" y="1031.0"/>
      <point x="751.695652173913" y="1031.0" type="curve" smooth="yes"/>
      <point x="582.6521739130435" y="1031.0"/>
      <point x="460.39130434782606" y="837.5652173913044"/>
      <point x="393.5652173913043" y="648.1304347826087" type="curve"/>
    </contour>
  </outline>
</glyph>
<glyph name="o" format="2">
  <advance width="974.4782608695651"/>
  <unicode hex="006F"/>
  <anchor x="420.0" y="0.0" name="bottom"/>
  <anchor x="487.69565217391306" y="505.0" name="center"/>
  <anchor x="531.3913043478261" y="6.086956521739131" name="ogonek"/>
  <anchor x="597.0" y="1110.0" name="top"/>
  <anchor x="721.5217391304348" y="1005.0" name="topright"/>
  <outline>
    <contour>
      <point x="567.304347826087" y="1034.1739130434783" type="curve" smooth="yes"/>
      <point x="250.82608695652175" y="1034.1739130434783"/>
      <point x="33.56521739130435" y="730.6086956521739"/>
      <point x="33.56521739130435" y="392.5652173913043" type="curve" smooth="yes"/>
      <point x="33.56521739130435" y="142.3913043478261"/>
      <point x="146.95652173913044" y="-25.565217391304348"/>
      <point x="409.8695652173913" y="-25.565217391304348" type="curve" smooth="yes"/>
      <point x="726.0434782608695" y="-25.565217391304348"/>
      <point x="941.9130434782609" y="277.7826086956522"/>
      <point x="941.9130434782609" y="619.5652173913043" type="curve" smooth="yes"/>
      <point x="941.9130434782609" y="870.1304347826087"/>
      <point x="824.7826086956521" y="1034.1739130434783"/>
    </contour>
    <contour>
      <point x="561.9130434782609" y="983.5217391304349" type="curve" smooth="yes"/>
      <point x="635.6086956521739" y="983.5217391304349"/>
      <point x="661.3913043478261" y="880.0434782608695"/>
      <point x="661.3913043478261" y="736.4347826086956" type="curve" smooth="yes"/>
      <point x="661.3913043478261" y="376.7391304347826"/>
      <point x="568.695652173913" y="25.086956521739136"/>
      <point x="412.30434782608694" y="25.086956521739136" type="curve" smooth="yes"/>
      <point x="348.82608695652175" y="25.086956521739136"/>
      <point x="314.0869565217391" y="108.56521739130436"/>
      <point x="314.0869565217391" y="268.1739130434783" type="curve" smooth="yes"/>
      <point x="314.0869565217391" y="625.1739130434783"/>
      <point x="406.17391304347825" y="983.5217391304349"/>
    </contour>
  </outline>
</glyph>
<glyph name="q" format="2">
  <advance width="990.695652173913"/>
  <unicode hex="0071"/>
  <anchor x="429.82608695652175" y="1580.0" name="cr"/>
  <anchor x="627.0" y="1108.608695652174" name="top"/>
  <outline>
    <contour>
      <point x="765.1304347826087" y="-313.39130434782606" type="curve" smooth="yes"/>
      <point x="959.2608695652174" y="1022.9130434782609" type="line"/>
      <point x="798.1304347826087" y="985.0" type="line"/>
      <point x="746.5652173913043" y="1008.9565217391305"/>
      <point x="684.6521739130435" y="1027.9130434782608"/>
      <point x="603.6521739130435" y="1027.9130434782608" type="curve" smooth="yes"/>
      <point x="234.04347826086956" y="1027.9130434782608"/>
      <point x="30.043478260869566" y="721.2173913043479"/>
      <point x="30.043478260869566" y="337.5652173913043" type="curve" smooth="yes"/>
      <point x="30.043478260869566" y="117.08695652173913"/>
      <point x="149.30434782608694" y="-22.391304347826086"/>
      <point x="319.26086956521743" y="-22.391304347826086" type="curve" smooth="yes"/>
      <point x="422.2608695652174" y="-22.391304347826086"/>
      <point x="530.608695652174" y="65.04347826086956"/>
      <point x="580.5217391304348" y="190.13043478260872" type="curve"/>
      <point x="502.82608695652175" y="-337.04347826086956" type="line" smooth="yes"/>
      <point x="487.9130434782609" y="-438.0869565217391"/>
      <point x="522.9565217391305" y="-502.52173913043475"/>
      <point x="635.2173913043479" y="-502.52173913043475" type="curve" smooth="yes"/>
      <point x="755.1739130434783" y="-502.52173913043475"/>
      <point x="847.7826086956522" y="-445.17391304347825"/>
      <point x="905.1739130434783" y="-369.47826086956525" type="curve"/>
      <point x="884.695652173913" y="-325.5652173913043" type="line"/>
      <point x="855.5652173913044" y="-359.695652173913"/>
      <point x="821.0434782608696" y="-375.82608695652175"/>
      <point x="795.6521739130435" y="-375.82608695652175" type="curve" smooth="yes"/>
      <point x="775.391304347826" y="-375.82608695652175"/>
      <point x="758.1304347826087" y="-363.2608695652174"/>
    </contour>
    <contour>
      <point x="683.9130434782609" y="929.4347826086956" type="curve"/>
      <point x="597.4347826086957" y="347.30434782608694" type="line"/>
      <point x="551.0434782608695" y="167.95652173913044"/>
      <point x="473.3478260869565" y="88.21739130434781"/>
      <point x="408.9130434782609" y="88.21739130434781" type="curve" smooth="yes"/>
      <point x="365.1304347826087" y="88.21739130434781"/>
      <point x="315.2173913043478" y="140.1304347826087"/>
      <point x="315.2173913043478" y="301.2608695652174" type="curve" smooth="yes"/>
      <point x="315.2173913043478" y="627.2173913043478"/>
      <point x="418.73913043478257" y="982.7391304347826"/>
      <point x="597.2608695652174" y="982.7391304347826" type="curve" smooth="yes"/>
      <point x="645.5217391304348" y="982.7391304347826"/>
      <point x="675.695652173913" y="960.8260869565217"/>
    </contour>
  </outline>
</glyph>
<glyph name="u" format="2">
  <advance width="1024.3478260869565"/>
  <unicode hex="0075"/>
  <anchor x="422.8695652173913" y="0.0" name="bottom"/>
  <anchor x="885.8695652173914" y="0.0" name="bottomright"/>
  <anchor x="797.1739130434783" y="0.0" name="ogonek"/>
  <anchor x="587.9565217391305" y="1110.0" name="top"/>
  <anchor x="876.4782608695651" y="1005.0000000000001" name="topright"/>
  <outline>
    <contour>
      <point x="261.69565217391306" y="-23.08695652173913" type="curve" smooth="yes"/>
      <point x="434.47826086956525" y="-23.08695652173913"/>
      <point x="560.5217391304348" y="142.08695652173913"/>
      <point x="626.7826086956521" y="348.2173913043478" type="curve"/>
      <point x="628.0869565217391" y="348.2173913043478" type="line"/>
      <point x="610.9130434782609" y="246.52173913043478"/>
      <point x="593.9130434782609" y="149.6086956521739"/>
      <point x="593.9130434782609" y="100.52173913043478" type="curve" smooth="yes"/>
      <point x="593.9130434782609" y="28.956521739130434"/>
      <point x="629.6956521739131" y="-22.391304347826086"/>
      <point x="723.4347826086956" y="-22.391304347826086" type="curve" smooth="yes"/>
      <point x="843.8260869565217" y="-22.391304347826086"/>
      <point x="932.4782608695651" y="39.391304347826086"/>
      <point x="989.1304347826086" y="112.78260869565217" type="curve"/>
      <point x="968.6521739130436" y="156.69565217391306" type="line"/>
      <point x="941.6956521739131" y="123.21739130434784"/>
      <point x="907.304347826087" y="105.30434782608697"/>
      <point x="879.304347826087" y="105.30434782608697" type="curve" smooth="yes"/>
      <point x="856.3478260869565" y="105.30434782608697"/>
      <point x="844.391304347826" y="122.69565217391306"/>
      <point x="850.7826086956521" y="166.7826086956522" type="curve" smooth="yes"/>
      <point x="976.2173913043479" y="1005.0000000000001" type="line"/>
      <point x="716.0869565217391" y="1005.0000000000001" type="line"/>
      <point x="636.4347826086956" y="488.7391304347826" type="line"/>
      <point x="569.3913043478261" y="284.2173913043478"/>
      <point x="480.9565217391304" y="149.08695652173913"/>
      <point x="395.3913043478261" y="149.08695652173913" type="curve" smooth="yes"/>
      <point x="353.1304347826087" y="149.08695652173913"/>
      <point x="341.04347826086956" y="181.82608695652175"/>
      <point x="341.04347826086956" y="237.34782608695656" type="curve" smooth="yes"/>
      <point x="341.04347826086956" y="275.65217391304344"/>
      <point x="365.304347826087" y="459.8260869565217"/>
      <point x="379.39130434782606" y="561.5652173913043" type="curve" smooth="yes"/>
      <point x="439.5652173913043" y="995.9565217391304" type="line"/>
      <point x="402.304347826087" y="1029.1739130434783" type="line"/>
      <point x="77.73913043478261" y="967.086956521739" type="line"/>
      <point x="73.04347826086956" y="935.8260869565217" type="line"/>
      <point x="166.34782608695653" y="898.6956521739131" type="line"/>
      <point x="113.60869565217394" y="525.3043478260869" type="line" smooth="yes"/>
      <point x="99.30434782608697" y="426.0434782608696"/>
      <point x="72.43478260869566" y="255.8695652173913"/>
      <point x="72.43478260869566" y="181.56521739130434" type="curve" smooth="yes"/>
      <point x="72.43478260869566" y="62.869565217391305"/>
      <point x="135.04347826086956" y="-23.08695652173913"/>
    </contour>
  </outline>
</glyph>
<glyph name="v" format="2">
  <advance width="819.7826086956521"/>
  <unicode hex="0076"/>
  <anchor x="500.5652173913044" y="1108.608695652174" name="top"/>
  <outline>
    <contour>
      <point x="94.08695652173914" y="849.2173913043478" type="curve" smooth="yes"/>
      <point x="163.2173913043478" y="347.9130434782608" type="line"/>
      <point x="213.9565217391304" y="-20.0" type="line"/>
      <point x="369.5652173913044" y="-6.304347826086957" type="line"/>
      <point x="531.9130434782609" y="212.7826086956522" type="line" smooth="yes"/>
      <point x="761.1739130434784" y="521.9565217391305"/>
      <point x="835.9565217391305" y="702.5217391304348"/>
      <point x="835.9565217391305" y="857.5217391304348" type="curve" smooth="yes"/>
      <point x="835.9565217391305" y="943.1304347826086"/>
      <point x="808.304347826087" y="1039.782608695652"/>
      <point x="701.1304347826087" y="1039.782608695652" type="curve" smooth="yes"/>
      <point x="639.7391304347826" y="1039.782608695652"/>
      <point x="589.304347826087" y="986.9565217391304"/>
      <point x="589.304347826087" y="920.9565217391304" type="curve" smooth="yes"/>
      <point x="589.304347826087" y="835.608695652174"/>
      <point x="675.8260869565217" y="774.6086956521739"/>
      <point x="675.8260869565217" y="665.7391304347825" type="curve" smooth="yes"/>
      <point x="675.8260869565217" y="556.9565217391304"/>
      <point x="607.695652173913" y="428.95652173913044"/>
      <point x="511.0" y="281.0869565217391" type="curve" smooth="yes"/>
      <point x="364.34782608695656" y="53.26086956521739" type="line"/>
      <point x="436.4347826086957" y="109.26086956521739" type="line"/>
      <point x="405.73913043478257" y="407.4347826086956" type="line"/>
      <point x="362.0" y="852.8260869565217" type="line" smooth="yes"/>
      <point x="350.1304347826087" y="972.2608695652174"/>
      <point x="316.30434782608694" y="1039.086956521739"/>
      <point x="209.0" y="1039.086956521739" type="curve" smooth="yes"/>
      <point x="104.0" y="1039.086956521739"/>
      <point x="26.52173913043478" y="984.0434782608695"/>
      <point x="-20.47826086956522" y="928.4347826086957" type="curve"/>
      <point x="-2.0" y="890.3913043478261" type="line"/>
      <point x="18.08695652173913" y="907.3913043478261"/>
      <point x="33.43478260869564" y="915.9130434782609"/>
      <point x="51.34782608695653" y="915.9130434782609" type="curve" smooth="yes"/>
      <point x="74.78260869565217" y="915.9130434782609"/>
      <point x="87.08695652173914" y="900.0869565217391"/>
    </contour>
  </outline>
</glyph>
<glyph name="z" format="2">
  <advance width="802.7826086956522"/>
  <unicode hex="007A"/>
  <anchor x="354.73913043478257" y="0.0" name="bottom"/>
  <anchor x="505.86956521739125" y="1110.0" name="top"/>
  <outline>
    <contour>
      <point x="624.7826086956521" y="801.2608695652174" type="curve"/>
      <point x="518.6956521739131" y="678.8260869565217" type="line"/>
      <point x="-39.47826086956521" y="4.17391304347826" type="line"/>
      <point x="-8.521739130434781" y="-25.08695652173913" type="line"/>
      <point x="15.0" y="-2.608695652173913"/>
      <point x="27.739130434782606" y="6.9565217391304355"/>
      <point x="75.91304347826086" y="6.9565217391304355" type="curve" smooth="yes"/>
      <point x="181.7826086956522" y="6.9565217391304355"/>
      <point x="416.52173913043475" y="-20.782608695652176"/>
      <point x="560.2608695652174" y="-20.782608695652176" type="curve" smooth="yes"/>
      <point x="606.3913043478261" y="-20.782608695652176"/>
      <point x="638.0869565217391" y="-13.173913043478262"/>
      <point x="653.391304347826" y="-2.782608695652174" type="curve" smooth="yes"/>
      <point x="718.9565217391305" y="42.39130434782608"/>
      <point x="745.1304347826086" y="269.3478260869565"/>
      <point x="746.2608695652174" y="364.0" type="curve"/>
      <point x="703.5217391304348" y="364.0" type="line"/>
      <point x="685.0" y="269.0"/>
      <point x="636.3913043478261" y="205.0"/>
      <point x="547.8695652173914" y="203.7826086956522" type="curve" smooth="yes"/>
      <point x="457.3478260869565" y="203.17391304347825"/>
      <point x="290.17391304347825" y="204.34782608695653"/>
      <point x="199.3913043478261" y="203.73913043478262" type="curve"/>
      <point x="303.6521739130435" y="321.7391304347826" type="line"/>
      <point x="863.3478260869565" y="999.5217391304349" type="line"/>
      <point x="836.8695652173914" y="1027.7826086956522" type="line"/>
      <point x="808.608695652174" y="1003.6086956521739"/>
      <point x="793.2173913043479" y="999.4347826086956"/>
      <point x="746.3913043478261" y="999.4347826086956" type="curve" smooth="yes"/>
      <point x="636.3478260869565" y="999.4347826086956"/>
      <point x="421.0" y="1028.7826086956522"/>
      <point x="280.6086956521739" y="1028.7826086956522" type="curve" smooth="yes"/>
      <point x="232.4782608695652" y="1028.7826086956522"/>
      <point x="209.08695652173913" y="1019.7826086956522"/>
      <point x="192.69565217391306" y="1009.0869565217391" type="curve" smooth="yes"/>
      <point x="131.3478260869565" y="968.7826086956522"/>
      <point x="100.65217391304348" y="732.8260869565217"/>
      <point x="106.04347826086958" y="645.7391304347826" type="curve"/>
      <point x="149.47826086956522" y="645.7391304347826" type="line"/>
      <point x="162.08695652173913" y="727.4347826086956"/>
      <point x="192.86956521739128" y="798.5217391304348"/>
      <point x="293.304347826087" y="801.1304347826087" type="curve" smooth="yes"/>
      <point x="379.78260869565213" y="803.1304347826087"/>
      <point x="544.5652173913044" y="801.6521739130435"/>
    </contour>
  </outline>
</glyph>
<glyph name="braceleft" format="2">
  <advance width="821.0434782608695"/>
  <unicode hex="007B"/>
  <outline>
    <contour>
      <point x="376.8260869565217" y="-250.43478260869563" type="curve" smooth="yes"/>
      <point x="456.47826086956525" y="-250.43478260869563"/>
      <point x="534.4782608695652" y="-231.56521739130432"/>
      <point x="600.9130434782609" y="-209.4782608695652" type="curve"/>
      <point x="607.2173913043479" y="-166.56521739130434" type="line"/>
      <point x="579.6086956521739" y="-168.4782608695652"/>
      <point x="540.0" y="-170.39130434782606"/>
      <point x="513.1739130434783" y="-170.39130434782606" type="curve" smooth="yes"/>
      <point x="427.30434782608694" y="-170.39130434782606"/>
      <point x="360.47826086956525" y="-127.56521739130436"/>
      <point x="381.304347826087" y="14.347826086956523" type="curve" smooth="yes"/>
      <point x="398.9130434782609" y="131.1304347826087"/>
      <point x="480.69565217391306" y="315.304347826087"/>
      <point x="500.39130434782606" y="447.0869565217391" type="curve" smooth="yes"/>
      <point x="526.3478260869565" y="618.695652173913"/>
      <point x="397.73913043478257" y="675.7826086956521"/>
      <point x="256.34782608695656" y="698.0869565217391" type="curve"/>
      <point x="404.7391304347826" y="721.6956521739131"/>
      <point x="550.2608695652174" y="768.2608695652174"/>
      <point x="576.9130434782608" y="941.0869565217391" type="curve" smooth="yes"/>
      <point x="597.304347826087" y="1074.2608695652175"/>
      <point x="568.3478260869566" y="1274.5217391304348"/>
      <point x="585.9565217391305" y="1390.608695652174" type="curve" smooth="yes"/>
      <point x="607.0869565217391" y="1529.913043478261"/>
      <point x="685.5217391304348" y="1574.7391304347827"/>
      <point x="770.086956521739" y="1574.7391304347827" type="curve" smooth="yes"/>
      <point x="797.0869565217391" y="1574.7391304347827"/>
      <point x="840.695652173913" y="1573.4347826086957"/>
      <point x="867.695652173913" y="1571.5217391304348" type="curve"/>
      <point x="873.695652173913" y="1611.6521739130435" type="line"/>
      <point x="806.2608695652174" y="1635.8260869565217"/>
      <point x="748.4782608695652" y="1652.0"/>
      <point x="666.9130434782609" y="1652.0" type="curve" smooth="yes"/>
      <point x="474.0" y="1652.0"/>
      <point x="358.04347826086956" y="1555.5652173913043"/>
      <point x="332.6521739130435" y="1389.391304347826" type="curve" smooth="yes"/>
      <point x="304.3478260869565" y="1205.478260869565"/>
      <point x="385.3478260869565" y="1041.7391304347825"/>
      <point x="363.3478260869565" y="898.0869565217391" type="curve" smooth="yes"/>
      <point x="347.4347826086957" y="794.2608695652174"/>
      <point x="292.5217391304348" y="730.695652173913"/>
      <point x="123.21739130434781" y="731.3043478260869" type="curve"/>
      <point x="114.21739130434783" y="676.2608695652174" type="line"/>
      <point x="284.52173913043475" y="676.8695652173914"/>
      <point x="316.3478260869565" y="597.1304347826086"/>
      <point x="300.4347826086956" y="490.69565217391306" type="curve" smooth="yes"/>
      <point x="277.82608695652175" y="347.7391304347826"/>
      <point x="155.7391304347826" y="195.30434782608697"/>
      <point x="127.34782608695653" y="11.478260869565219" type="curve" smooth="yes"/>
      <point x="101.2608695652174" y="-153.39130434782606"/>
      <point x="186.56521739130434" y="-250.43478260869563"/>
    </contour>
  </outline>
</glyph>
<glyph name="asciitilde" format="2">
  <advance width="1124.0"/>
  <unicode hex="007E"/>
  <outline>
    <contour>
      <point x="168.0" y="649.0" type="curve"/>
      <point x="204.0" y="592.0" type="line"/>
      <point x="270.0" y="683.0"/>
      <point x="303.0" y="732.0"/>
      <point x="396.0" y="732.0" type="curve" smooth="yes"/>
      <point x="545.0" y="732.0"/>
      <point x="581.0" y="524.0"/>
      <point x="762.0" y="524.0" type="curve" smooth="yes"/>
      <point x="875.0" y="524.0"/>
      <point x="963.0" y="584.0"/>
      <point x="1001.0000000000001" y="684.0" type="curve"/>
      <point x="959.0" y="748.0" type="line"/>
      <point x="898.0" y="653.0"/>
      <point x="866.0" y="604.0"/>
      <point x="774.0" y="604.0" type="curve" smooth="yes"/>
      <point x="624.0" y="604.0"/>
      <point x="588.0" y="812.0"/>
      <point x="408.0" y="812.0" type="curve" smooth="yes"/>
      <point x="295.0" y="812.0"/>
      <point x="205.0" y="752.0"/>
    </contour>
  </outline>
</glyph>
<glyph name="sterling" format="2">
  <advance width="1299.913043478261"/>
  <unicode hex="00A3"/>
  <outline>
    <contour>
      <point x="754.0869565217391" y="-14.000000000000002" type="curve" smooth="yes"/>
      <point x="1005.1304347826086" y="-14.000000000000002"/>
      <point x="1220.8260869565217" y="176.6086956521739"/>
      <point x="1220.8260869565217" y="387.9130434782609" type="curve" smooth="yes"/>
      <point x="1220.8260869565217" y="457.82608695652175"/>
      <point x="1197.5217391304348" y="498.5217391304348"/>
      <point x="1175.304347826087" y="521.7391304347826" type="curve"/>
      <point x="927.9130434782608" y="521.7391304347826" type="line"/>
      <point x="957.0" y="476.4347826086956"/>
      <point x="969.6956521739131" y="431.17391304347825"/>
      <point x="969.6956521739131" y="362.34782608695656" type="curve" smooth="yes"/>
      <point x="969.6956521739131" y="183.65217391304347"/>
      <point x="885.0434782608695" y="49.47826086956522"/>
      <point x="740.1304347826087" y="49.47826086956522" type="curve" smooth="yes"/>
      <point x="625.9130434782609" y="49.47826086956522"/>
      <point x="550.1739130434784" y="132.30434782608694"/>
      <point x="416.3478260869565" y="182.47826086956522" type="curve"/>
      <point x="503.39130434782606" y="281.47826086956525"/>
      <point x="539.6521739130435" y="359.5217391304348"/>
      <point x="577.0869565217392" y="573.695652173913" type="curve" smooth="yes"/>
      <point x="586.6956521739131" y="633.2173913043478"/>
      <point x="597.695652173913" y="699.0"/>
      <point x="609.391304347826" y="773.1304347826086" type="curve"/>
      <point x="862.6521739130434" y="773.1304347826086" type="line"/>
      <point x="872.3478260869566" y="848.0869565217391" type="line"/>
      <point x="619.391304347826" y="848.0869565217391" type="line"/>
      <point x="628.0" y="916.5652173913044"/>
      <point x="635.9130434782609" y="979.8695652173914"/>
      <point x="644.5217391304349" y="1038.6086956521738" type="curve" smooth="yes"/>
      <point x="689.8695652173914" y="1352.4782608695652"/>
      <point x="759.3478260869565" y="1448.5217391304348"/>
      <point x="854.1739130434783" y="1448.5217391304348" type="curve" smooth="yes"/>
      <point x="949.6521739130436" y="1448.5217391304348"/>
      <point x="1007.0434782608695" y="1353.4347826086957"/>
      <point x="1048.7826086956522" y="1235.0" type="curve"/>
      <point x="1190.0869565217392" y="1402.4347826086957" type="line"/>
      <point x="1127.6086956521738" y="1463.2608695652175"/>
      <point x="1016.8260869565217" y="1504.086956521739"/>
      <point x="895.608695652174" y="1504.086956521739" type="curve" smooth="yes"/>
      <point x="606.9130434782609" y="1504.086956521739"/>
      <point x="428.4782608695652" y="1308.304347826087"/>
      <point x="372.82608695652175" y="918.0" type="curve" smooth="yes"/>
      <point x="371.2173913043478" y="904.5652173913044"/>
      <point x="365.5652173913044" y="867.695652173913"/>
      <point x="363.04347826086956" y="848.0869565217391" type="curve"/>
      <point x="197.52173913043478" y="848.0869565217391" type="line"/>
      <point x="187.1304347826087" y="773.1304347826086" type="line"/>
      <point x="353.7391304347826" y="773.1304347826086" type="line"/>
      <point x="332.304347826087" y="627.608695652174"/>
      <point x="321.4347826086957" y="548.0434782608695"/>
      <point x="312.65217391304344" y="487.30434782608694" type="curve" smooth="yes"/>
      <point x="288.5652173913044" y="321.695652173913"/>
      <point x="274.2173913043478" y="254.95652173913044"/>
      <point x="251.21739130434784" y="213.73913043478262" type="curve"/>
      <point x="158.7826086956522" y="207.0"/>
      <point x="32.130434782608695" y="152.69565217391306"/>
      <point x="32.130434782608695" y="67.73913043478261" type="curve" smooth="yes"/>
      <point x="32.130434782608695" y="27.08695652173913"/>
      <point x="62.043478260869556" y="0.0"/>
      <point x="126.13043478260869" y="0.0" type="curve" smooth="yes"/>
      <point x="188.6521739130435" y="0.0"/>
      <point x="255.82608695652175" y="30.347826086956516"/>
      <point x="324.13043478260875" y="102.8695652173913" type="curve"/>
      <point x="424.2173913043478" y="102.26086956521739"/>
      <point x="559.3913043478261" y="-14.000000000000002"/>
    </contour>
  </outline>
</glyph>
<glyph name="currency" format="2">
  <advance width="1529.5217391304348"/>
  <unicode hex="00A4"/>
  <outline>
    <contour>
      <point x="260.7826086956522" y="243.91304347826087" type="line"/>
      <point x="314.5652173913043" y="187.5217391304348" type="line"/>
      <point x="530.8695652173914" y="406.13043478260875" type="line"/>
      <point x="605.8695652173913" y="343.95652173913044"/>
      <point x="700.6521739130435" y="311.5652173913044"/>
      <point x="797.6521739130435" y="311.5652173913044" type="curve" smooth="yes"/>
      <point x="888.4782608695652" y="311.5652173913044"/>
      <point x="977.2608695652174" y="340.17391304347825"/>
      <point x="1050.8695652173913" y="397.6521739130435" type="curve"/>
      <point x="1268.2608695652173" y="177.6521739130435" type="line"/>
      <point x="1347.7391304347825" y="258.52173913043475" type="line"/>
      <point x="1131.4347826086955" y="472.7391304347826" type="line"/>
      <point x="1201.4782608695652" y="557.1739130434783"/>
      <point x="1240.1739130434783" y="658.4347826086956"/>
      <point x="1240.1739130434783" y="763.1739130434783" type="curve" smooth="yes"/>
      <point x="1240.1739130434783" y="868.9130434782609"/>
      <point x="1201.8695652173913" y="970.0"/>
      <point x="1128.2173913043478" y="1051.2608695652175" type="curve"/>
      <point x="1342.8260869565215" y="1263.7826086956522" type="line"/>
      <point x="1285.4347826086955" y="1321.1739130434783" type="line"/>
      <point x="1066.6521739130435" y="1104.5652173913043" type="line"/>
      <point x="987.6956521739131" y="1165.8260869565217"/>
      <point x="894.0" y="1198.4347826086957"/>
      <point x="797.6521739130435" y="1198.4347826086957" type="curve" smooth="yes"/>
      <point x="705.7391304347826" y="1198.4347826086957"/>
      <point x="618.7391304347825" y="1170.1304347826085"/>
      <point x="546.7391304347826" y="1113.4347826086955" type="curve"/>
      <point x="327.65217391304344" y="1334.0434782608695" type="line"/>
      <point x="250.7826086956522" y="1253.7826086956522" type="line"/>
      <point x="467.0869565217391" y="1036.8695652173913" type="line"/>
      <point x="399.34782608695656" y="954.9130434782609"/>
      <point x="362.95652173913044" y="851.5217391304348"/>
      <point x="362.95652173913044" y="745.0" type="curve" smooth="yes"/>
      <point x="362.95652173913044" y="640.3478260869566"/>
      <point x="400.95652173913044" y="539.1739130434783"/>
      <point x="474.0" y="456.4347826086956" type="curve"/>
    </contour>
    <contour>
      <point x="556.2608695652175" y="753.5652173913044" type="curve" smooth="yes"/>
      <point x="556.2608695652175" y="893.2608695652174"/>
      <point x="646.4347826086956" y="1020.7391304347826"/>
      <point x="790.1304347826087" y="1020.7391304347826" type="curve" smooth="yes"/>
      <point x="922.4782608695651" y="1020.7391304347826"/>
      <point x="1041.4347826086957" y="898.391304347826"/>
      <point x="1041.4347826086957" y="745.8260869565217" type="curve" smooth="yes"/>
      <point x="1041.4347826086957" y="605.9130434782609"/>
      <point x="948.8695652173913" y="487.4347826086956"/>
      <point x="801.1304347826087" y="487.4347826086956" type="curve" smooth="yes"/>
      <point x="669.8260869565217" y="487.4347826086956"/>
      <point x="556.2608695652175" y="609.6956521739131"/>
    </contour>
  </outline>
</glyph>
<glyph name="yen" format="2">
  <advance width="1301.5217391304348"/>
  <unicode hex="00A5"/>
  <outline>
    <contour>
      <point x="189.47826086956525" y="758.4347826086956" type="line"/>
      <point x="180.08695652173915" y="698.9565217391304" type="line"/>
      <point x="557.5652173913044" y="698.9565217391304" type="line"/>
      <point x="524.6521739130435" y="448.52173913043475" type="line"/>
      <point x="147.17391304347825" y="448.52173913043475" type="line"/>
      <point x="138.4782608695652" y="389.04347826086956" type="line"/>
      <point x="515.2608695652175" y="389.04347826086956" type="line"/>
      <point x="473.95652173913044" y="79.73913043478261" type="line"/>
      <point x="257.73913043478257" y="37.39130434782609" type="line"/>
      <point x="252.73913043478262" y="0.0" type="line"/>
      <point x="959.0" y="0.0" type="line"/>
      <point x="964.0" y="37.39130434782609" type="line"/>
      <point x="744.1739130434783" y="79.73913043478261" type="line"/>
      <point x="785.4782608695651" y="389.04347826086956" type="line"/>
      <point x="1163.5652173913043" y="389.04347826086956" type="line"/>
      <point x="1172.2608695652173" y="448.52173913043475" type="line"/>
      <point x="794.8695652173914" y="448.52173913043475" type="line"/>
      <point x="828.4782608695652" y="698.9565217391304" type="line"/>
      <point x="1205.8695652173913" y="698.9565217391304" type="line"/>
      <point x="1214.5652173913043" y="758.4347826086956" type="line"/>
      <point x="847.695652173913" y="758.4347826086956" type="line"/>
      <point x="1249.5217391304348" y="1416.7826086956522" type="line"/>
      <point x="1377.2608695652175" y="1451.0" type="line"/>
      <point x="1383.6521739130435" y="1486.0" type="line"/>
      <point x="973.2608695652174" y="1486.0" type="line"/>
      <point x="967.5652173913044" y="1451.0" type="line"/>
      <point x="1151.304347826087" y="1415.2173913043478" type="line"/>
      <point x="860.9130434782609" y="907.0434782608695" type="line"/>
      <point x="778.2608695652174" y="769.0869565217391" type="line"/>
      <point x="736.0869565217391" y="907.0434782608695" type="line"/>
      <point x="582.7391304347826" y="1418.0" type="line"/>
      <point x="737.1304347826087" y="1451.0" type="line"/>
      <point x="743.8260869565217" y="1486.304347826087" type="line"/>
      <point x="192.56521739130434" y="1486.0" type="line"/>
      <point x="186.8695652173913" y="1451.0" type="line"/>
      <point x="283.5652173913043" y="1416.782608695652" type="line"/>
      <point x="540.6521739130435" y="758.4347826086956" type="line"/>
    </contour>
  </outline>
</glyph>
<glyph name="section" format="2">
  <advance width="1101.086956521739"/>
  <unicode hex="00A7"/>
  <outline>
    <contour>
      <point x="933.608695652174" y="187.17391304347825" type="curve" smooth="yes"/>
      <point x="933.6086956521739" y="260.65217391304344"/>
      <point x="912.6521739130435" y="324.39130434782606"/>
      <point x="862.9130434782608" y="377.47826086956525" type="curve"/>
      <point x="959.8260869565217" y="450.8695652173913"/>
      <point x="1041.9565217391305" y="583.7391304347826"/>
      <point x="1041.9565217391305" y="728.1304347826086" type="curve" smooth="yes"/>
      <point x="1041.9565217391303" y="1113.913043478261"/>
      <point x="463.52173913043475" y="1087.4782608695652"/>
      <point x="463.52173913043475" y="1364.086956521739" type="curve" smooth="yes"/>
      <point x="463.52173913043475" y="1481.695652173913"/>
      <point x="567.1739130434783" y="1588.7391304347827"/>
      <point x="716.5217391304348" y="1588.7391304347825" type="curve" smooth="yes"/>
      <point x="801.3478260869565" y="1588.7391304347827"/>
      <point x="855.1304347826087" y="1554.391304347826"/>
      <point x="863.8260869565217" y="1527.304347826087" type="curve"/>
      <point x="885.1739130434783" y="1267.4782608695652" type="line"/>
      <point x="1032.086956521739" y="1267.4782608695652" type="line"/>
      <point x="1085.4347826086955" y="1572.0" type="line"/>
      <point x="1034.0869565217392" y="1578.9565217391303"/>
      <point x="907.1304347826087" y="1644.695652173913"/>
      <point x="724.5652173913044" y="1644.695652173913" type="curve" smooth="yes"/>
      <point x="443.2608695652174" y="1644.695652173913"/>
      <point x="236.52173913043478" y="1487.6521739130435"/>
      <point x="236.52173913043475" y="1269.0434782608695" type="curve" smooth="yes"/>
      <point x="236.52173913043478" y="1190.1304347826087"/>
      <point x="263.3478260869565" y="1125.9130434782608"/>
      <point x="310.73913043478257" y="1072.608695652174" type="curve"/>
      <point x="216.91304347826087" y="1009.7391304347826"/>
      <point x="126.30434782608695" y="898.4347826086956"/>
      <point x="126.30434782608695" y="736.4347826086956" type="curve" smooth="yes"/>
      <point x="126.30434782608695" y="321.21739130434787"/>
      <point x="706.2608695652174" y="343.95652173913044"/>
      <point x="706.2608695652174" y="79.3913043478261" type="curve" smooth="yes"/>
      <point x="706.2608695652174" y="-39.69565217391305"/>
      <point x="589.6086956521739" y="-143.43478260869566"/>
      <point x="441.0869565217391" y="-143.43478260869566" type="curve" smooth="yes"/>
      <point x="348.69565217391306" y="-143.43478260869566"/>
      <point x="271.6521739130435" y="-104.47826086956522"/>
      <point x="253.00000000000003" y="-61.60869565217391" type="curve"/>
      <point x="245.3043478260869" y="220.2173913043478" type="line"/>
      <point x="71.56521739130434" y="220.2173913043478" type="line"/>
      <point x="18.52173913043479" y="-106.0" type="line"/>
      <point x="80.56521739130434" y="-111.99999999999999"/>
      <point x="216.7391304347826" y="-198.0"/>
      <point x="441.60869565217394" y="-198.0" type="curve" smooth="yes"/>
      <point x="755.1739130434783" y="-198.0"/>
      <point x="933.6086956521739" y="-31.0"/>
    </contour>
    <contour>
      <point x="858.8260869565217" y="616.2608695652175" type="curve" smooth="yes"/>
      <point x="858.8260869565217" y="558.4347826086956"/>
      <point x="832.0869565217391" y="463.4347826086957"/>
      <point x="793.6521739130435" y="424.9130434782609" type="curve"/>
      <point x="618.8260869565217" y="549.9565217391304"/>
      <point x="307.1739130434783" y="640.7391304347826"/>
      <point x="307.1739130434783" y="844.8260869565217" type="curve" smooth="yes"/>
      <point x="307.1739130434783" y="904.4782608695652"/>
      <point x="332.04347826086956" y="993.8695652173913"/>
      <point x="371.2173913043478" y="1031.7391304347827" type="curve"/>
      <point x="507.9565217391305" y="914.0"/>
      <point x="858.8260869565217" y="823.4347826086956"/>
    </contour>
  </outline>
</glyph>
<glyph name="copyright" format="2">
  <advance width="2038.6521739130435"/>
  <unicode hex="00A9"/>
  <outline>
    <contour>
      <point x="253.3913043478261" y="973.2173913043478" type="curve" smooth="yes"/>
      <point x="253.3913043478261" y="497.21739130434787"/>
      <point x="622.1739130434783" y="126.26086956521738"/>
      <point x="1084.2608695652173" y="126.26086956521738" type="curve" smooth="yes"/>
      <point x="1548.1304347826087" y="126.26086956521738"/>
      <point x="1914.0434782608695" y="497.21739130434787"/>
      <point x="1914.0434782608695" y="973.2173913043478" type="curve" smooth="yes"/>
      <point x="1914.0434782608695" y="1447.217391304348"/>
      <point x="1548.1304347826087" y="1816.8695652173913"/>
      <point x="1084.2608695652173" y="1816.8695652173913" type="curve" smooth="yes"/>
      <point x="622.1739130434783" y="1816.8695652173913"/>
      <point x="253.3913043478261" y="1447.217391304348"/>
    </contour>
    <contour>
      <point x="328.304347826087" y="972.5217391304348" type="curve" smooth="yes"/>
      <point x="328.304347826087" y="1408.8260869565217"/>
      <point x="660.2173913043479" y="1752.4347826086957"/>
      <point x="1084.2608695652173" y="1752.4347826086957" type="curve" smooth="yes"/>
      <point x="1510.782608695652" y="1752.4347826086957"/>
      <point x="1839.913043478261" y="1410.9130434782608"/>
      <point x="1839.913043478261" y="973.2173913043478" type="curve" smooth="yes"/>
      <point x="1839.913043478261" y="534.2173913043478"/>
      <point x="1510.782608695652" y="192.69565217391303"/>
      <point x="1084.2608695652173" y="192.69565217391303" type="curve" smooth="yes"/>
      <point x="657.7391304347825" y="192.69565217391303"/>
      <point x="328.304347826087" y="534.2173913043479"/>
    </contour>
    <contour>
      <point x="1088.7826086956522" y="497.21739130434787" type="curve" smooth="yes"/>
      <point x="1232.304347826087" y="497.21739130434787"/>
      <point x="1353.086956521739" y="575.3913043478261"/>
      <point x="1409.9130434782608" y="644.7826086956522" type="curve"/>
      <point x="1386.1304347826087" y="694.695652173913" type="line"/>
      <point x="1331.9130434782608" y="643.1304347826087"/>
      <point x="1242.7826086956522" y="605.695652173913"/>
      <point x="1157.0" y="605.695652173913" type="curve" smooth="yes"/>
      <point x="981.7391304347826" y="605.695652173913"/>
      <point x="862.9130434782608" y="762.6521739130434"/>
      <point x="862.9130434782608" y="1006.2173913043479" type="curve" smooth="yes"/>
      <point x="862.9130434782608" y="1230.8695652173915"/>
      <point x="959.7826086956521" y="1396.2608695652175"/>
      <point x="1107.304347826087" y="1396.2608695652175" type="curve" smooth="yes"/>
      <point x="1163.304347826087" y="1396.2608695652175"/>
      <point x="1216.608695652174" y="1379.3043478260868"/>
      <point x="1236.695652173913" y="1360.391304347826" type="curve"/>
      <point x="1280.695652173913" y="1159.4782608695652" type="line"/>
      <point x="1394.2608695652173" y="1159.4782608695652" type="line"/>
      <point x="1397.3478260869565" y="1398.0" type="line"/>
      <point x="1359.9565217391303" y="1436.0"/>
      <point x="1235.695652173913" y="1456.695652173913"/>
      <point x="1150.913043478261" y="1456.695652173913" type="curve" smooth="yes"/>
      <point x="867.4347826086957" y="1456.695652173913"/>
      <point x="665.8695652173913" y="1246.0"/>
      <point x="665.8695652173913" y="963.8260869565217" type="curve" smooth="yes"/>
      <point x="665.8695652173913" y="692.6521739130434"/>
      <point x="814.7391304347825" y="497.21739130434787"/>
    </contour>
  </outline>
</glyph>
<glyph name="guillemetleft" format="2">
  <advance width="1108.6521739130435"/>
  <unicode hex="00AB"/>
  <outline>
    <contour>
      <point x="628.0" y="1116.0" type="line"/>
      <point x="116.26086956521739" y="685.304347826087" type="line"/>
      <point x="92.04347826086958" y="570.304347826087" type="line"/>
      <point x="449.65217391304344" y="124.7391304347826" type="line"/>
      <point x="481.1304347826087" y="150.6086956521739" type="line"/>
      <point x="306.34782608695656" y="621.304347826087" type="line"/>
      <point x="652.695652173913" y="1090.304347826087" type="line"/>
    </contour>
    <contour>
      <point x="1058.3478260869565" y="1099.0434782608697" type="line"/>
      <point x="574.4347826086956" y="685.304347826087" type="line"/>
      <point x="550.2173913043479" y="570.304347826087" type="line"/>
      <point x="886.9565217391305" y="141.69565217391303" type="line"/>
      <point x="918.4347826086957" y="167.56521739130434" type="line"/>
      <point x="757.5652173913044" y="621.304347826087" type="line"/>
      <point x="1083.0434782608695" y="1073.3478260869565" type="line"/>
    </contour>
  </outline>
</glyph>
<glyph name="registered" format="2">
  <advance width="2038.6521739130435"/>
  <unicode hex="00AE"/>
  <outline>
    <contour>
      <point x="253.3913043478261" y="973.2173913043478" type="curve" smooth="yes"/>
      <point x="253.3913043478261" y="497.21739130434787"/>
      <point x="622.1739130434783" y="126.26086956521738"/>
      <point x="1084.2608695652173" y="126.26086956521738" type="curve" smooth="yes"/>
      <point x="1548.1304347826087" y="126.26086956521738"/>
      <point x="1914.0434782608695" y="497.21739130434787"/>
      <point x="1914.0434782608695" y="973.2173913043478" type="curve" smooth="yes"/>
      <point x="1914.0434782608695" y="1447.217391304348"/>
      <point x="1548.1304347826087" y="1816.8695652173913"/>
      <point x="1084.2608695652173" y="1816.8695652173913" type="curve" smooth="yes"/>
      <point x="622.1739130434783" y="1816.8695652173913"/>
      <point x="253.3913043478261" y="1447.217391304348"/>
    </contour>
    <contour>
      <point x="328.304347826087" y="972.5217391304348" type="curve" smooth="yes"/>
      <point x="328.304347826087" y="1408.8260869565217"/>
      <point x="660.2173913043479" y="1752.4347826086957"/>
      <point x="1084.2608695652173" y="1752.4347826086957" type="curve" smooth="yes"/>
      <point x="1510.782608695652" y="1752.4347826086957"/>
      <point x="1839.913043478261" y="1410.9130434782608"/>
      <point x="1839.913043478261" y="973.2173913043478" type="curve" smooth="yes"/>
      <point x="1839.913043478261" y="534.2173913043478"/>
      <point x="1510.782608695652" y="192.69565217391303"/>
      <point x="1084.2608695652173" y="192.69565217391303" type="curve" smooth="yes"/>
      <point x="657.7391304347825" y="192.69565217391303"/>
      <point x="328.304347826087" y="534.2173913043479"/>
    </contour>
    <contour>
      <point x="778.3913043478261" y="569.6521739130435" type="line"/>
      <point x="700.8260869565216" y="539.0" type="line"/>
      <point x="700.8260869565216" y="502.0" type="line"/>
      <point x="1057.4347826086955" y="502.0" type="line"/>
      <point x="1057.4347826086955" y="539.0" type="line"/>
      <point x="971.304347826087" y="566.1739130434784" type="line"/>
      <point x="971.304347826087" y="901.6956521739131" type="line"/>
      <point x="1094.5652173913045" y="900.391304347826" type="line"/>
      <point x="1255.2608695652175" y="852.3913043478261"/>
      <point x="1224.782608695652" y="502.0"/>
      <point x="1360.913043478261" y="502.0" type="curve" smooth="yes"/>
      <point x="1546.0" y="502.0" type="line"/>
      <point x="1546.0" y="548.0000000000001" type="line"/>
      <point x="1395.1739130434783" y="558.7391304347826"/>
      <point x="1447.1739130434783" y="837.1304347826086"/>
      <point x="1251.0869565217392" y="931.608695652174" type="curve"/>
      <point x="1399.3043478260868" y="963.3478260869565"/>
      <point x="1463.2608695652175" y="1070.1739130434783"/>
      <point x="1463.2608695652175" y="1190.1739130434783" type="curve" smooth="yes"/>
      <point x="1463.2608695652175" y="1347.5652173913043"/>
      <point x="1355.5217391304348" y="1446.6086956521738"/>
      <point x="1107.1304347826087" y="1446.6086956521738" type="curve"/>
      <point x="1001.391304347826" y="1446.0"/>
      <point x="959.7826086956521" y="1441.304347826087"/>
      <point x="872.1304347826086" y="1441.304347826087" type="curve" smooth="yes"/>
      <point x="700.8260869565216" y="1441.304347826087" type="line"/>
      <point x="700.8260869565216" y="1399.304347826087" type="line"/>
      <point x="778.3913043478261" y="1372.3478260869565" type="line"/>
    </contour>
    <contour>
      <point x="971.304347826087" y="967.5217391304349" type="curve"/>
      <point x="971.304347826087" y="1381.2608695652175" type="line"/>
      <point x="1012.8260869565216" y="1388.5652173913045"/>
      <point x="1048.7826086956522" y="1390.6521739130435"/>
      <point x="1083.7826086956522" y="1390.6521739130435" type="curve" smooth="yes"/>
      <point x="1188.391304347826" y="1390.6521739130435"/>
      <point x="1249.5217391304348" y="1316.0869565217392"/>
      <point x="1249.5217391304348" y="1180.6086956521738" type="curve" smooth="yes"/>
      <point x="1249.5217391304348" y="1049.5652173913045"/>
      <point x="1193.5652173913043" y="960.8260869565217"/>
      <point x="1101.4782608695652" y="960.8260869565217" type="curve" smooth="yes"/>
      <point x="1066.0869565217392" y="960.8260869565217"/>
      <point x="1000.5652173913044" y="960.8260869565217"/>
    </contour>
  </outline>
</glyph>
<glyph name="degree" format="2">
  <advance width="673.0869565217391"/>
  <unicode hex="00B0"/>
  <outline>
    <contour>
      <point x="448.04347826086956" y="1053.0000000000002" type="curve" smooth="yes"/>
      <point x="593.0434782608695" y="1053.0000000000002"/>
      <point x="712.0434782608696" y="1174.0"/>
      <point x="712.0434782608695" y="1317.0" type="curve" smooth="yes"/>
      <point x="712.0434782608696" y="1469.0"/>
      <point x="593.3478260869566" y="1581.0"/>
      <point x="448.34782608695656" y="1581.0" type="curve" smooth="yes"/>
      <point x="303.34782608695656" y="1581.0"/>
      <point x="184.04347826086956" y="1469.0"/>
      <point x="184.0434782608696" y="1317.0" type="curve" smooth="yes"/>
      <point x="184.04347826086956" y="1174.0"/>
      <point x="303.04347826086956" y="1053.0000000000002"/>
    </contour>
    <contour>
      <point x="448.0434782608696" y="1120.3913043478262" type="curve" smooth="yes"/>
      <point x="347.4347826086957" y="1120.3913043478262"/>
      <point x="267.82608695652175" y="1213.391304347826"/>
      <point x="267.82608695652175" y="1317.0" type="curve" smooth="yes"/>
      <point x="267.82608695652175" y="1427.6086956521738"/>
      <point x="341.7391304347826" y="1513.608695652174"/>
      <point x="448.3478260869565" y="1513.608695652174" type="curve" smooth="yes"/>
      <point x="554.9565217391305" y="1513.608695652174"/>
      <point x="628.2608695652174" y="1427.608695652174"/>
      <point x="628.2608695652174" y="1317.0" type="curve" smooth="yes"/>
      <point x="628.2608695652174" y="1213.391304347826"/>
      <point x="548.6521739130435" y="1120.3913043478262"/>
    </contour>
  </outline>
</glyph>
<glyph name="ordmasculine" format="2">
  <advance width="819.4782608695652"/>
  <unicode hex="00BA"/>
  <outline>
    <contour>
      <point x="556.391304347826" y="1582.2173913043478" type="curve" smooth="yes"/>
      <point x="286.4347826086956" y="1582.2173913043478"/>
      <point x="117.65217391304347" y="1362.8695652173913"/>
      <point x="117.65217391304347" y="1066.086956521739" type="curve" smooth="yes"/>
      <point x="117.65217391304347" y="863.7826086956522"/>
      <point x="225.26086956521738" y="734.0"/>
      <point x="438.21739130434787" y="734.0" type="curve" smooth="yes"/>
      <point x="710.2608695652174" y="734.0"/>
      <point x="881.1304347826087" y="958.7826086956521"/>
      <point x="881.1304347826087" y="1246.2608695652173" type="curve" smooth="yes"/>
      <point x="881.1304347826087" y="1456.2173913043478"/>
      <point x="770.8260869565217" y="1582.217391304348"/>
    </contour>
    <contour>
      <point x="549.0" y="1540.4347826086957" type="curve" smooth="yes"/>
      <point x="629.4782608695652" y="1540.4347826086957"/>
      <point x="654.2173913043478" y="1456.0"/>
      <point x="654.2173913043478" y="1307.0869565217392" type="curve" smooth="yes"/>
      <point x="654.2173913043478" y="1093.4782608695652"/>
      <point x="591.1304347826086" y="775.7826086956521"/>
      <point x="447.2608695652174" y="775.7826086956522" type="curve" smooth="yes"/>
      <point x="367.52173913043475" y="775.7826086956522"/>
      <point x="343.17391304347825" y="874.1304347826086"/>
      <point x="343.17391304347825" y="1011.2173913043479" type="curve" smooth="yes"/>
      <point x="343.17391304347825" y="1223.0869565217392"/>
      <point x="404.34782608695656" y="1540.4347826086957"/>
    </contour>
  </outline>
</glyph>
<glyph name="ae" format="2">
  <advance width="1418.913043478261"/>
  <unicode hex="00E6"/>
  <anchor x="940.2173913043478" y="1110.0" name="top"/>
  <outline>
    <contour>
      <point x="910.2173913043478" y="1022.9130434782608" type="line"/>
      <point x="788.0434782608696" y="980.1304347826087" type="line"/>
      <point x="739.4782608695652" y="1009.1304347826087"/>
      <point x="671.9565217391304" y="1027.9130434782608"/>
      <point x="602.1304347826086" y="1027.9130434782608" type="curve" smooth="yes"/>
      <point x="245.17391304347828" y="1027.9130434782608"/>
      <point x="27.652173913043484" y="677.1739130434783"/>
      <point x="27.652173913043484" y="343.2608695652174" type="curve" smooth="yes"/>
      <point x="27.652173913043484" y="92.04347826086956"/>
      <point x="165.7826086956522" y="-22.391304347826086"/>
      <point x="304.7826086956522" y="-22.391304347826086" type="curve" smooth="yes"/>
      <point x="441.78260869565213" y="-22.391304347826086"/>
      <point x="548.391304347826" y="80.91304347826086"/>
      <point x="605.4782608695652" y="288.0" type="curve"/>
      <point x="623.695652173913" y="121.47826086956522"/>
      <point x="724.8260869565217" y="-20.391304347826086"/>
      <point x="962.5217391304346" y="-20.391304347826086" type="curve" smooth="yes"/>
      <point x="1155.391304347826" y="-20.391304347826086"/>
      <point x="1276.0" y="90.04347826086956"/>
      <point x="1330.9565217391305" y="173.30434782608697" type="curve"/>
      <point x="1308.782608695652" y="216.26086956521738" type="line"/>
      <point x="1247.6521739130435" y="142.91304347826087"/>
      <point x="1161.2173913043478" y="89.95652173913042"/>
      <point x="1062.9130434782608" y="89.95652173913042" type="curve" smooth="yes"/>
      <point x="889.3478260869565" y="89.95652173913042"/>
      <point x="871.0" y="253.6086956521739"/>
      <point x="888.5652173913044" y="459.0869565217391" type="curve"/>
      <point x="1174.4347826086957" y="461.5217391304348"/>
      <point x="1428.2173913043478" y="569.7391304347826"/>
      <point x="1428.2173913043478" y="825.3913043478261" type="curve" smooth="yes"/>
      <point x="1428.2173913043478" y="941.7391304347826"/>
      <point x="1340.8695652173913" y="1033.782608695652"/>
      <point x="1159.9565217391303" y="1033.782608695652" type="curve" smooth="yes"/>
      <point x="1066.0869565217392" y="1033.782608695652"/>
      <point x="981.4782608695652" y="1001.8695652173913"/>
      <point x="899.1739130434783" y="942.5217391304349" type="curve"/>
    </contour>
    <contour>
      <point x="587.9130434782609" y="362.4347826086956" type="line"/>
      <point x="563.1304347826087" y="217.2173913043478"/>
      <point x="476.8260869565217" y="88.21739130434783"/>
      <point x="403.6521739130435" y="88.21739130434783" type="curve" smooth="yes"/>
      <point x="342.3478260869565" y="88.21739130434783"/>
      <point x="312.7391304347826" y="152.6086956521739"/>
      <point x="312.7391304347826" y="304.60869565217394" type="curve" smooth="yes"/>
      <point x="312.7391304347826" y="587.0869565217391"/>
      <point x="408.9565217391304" y="982.7391304347826"/>
      <point x="596.2173913043479" y="982.7391304347826" type="curve" smooth="yes"/>
      <point x="634.4347826086957" y="982.7391304347826"/>
      <point x="669.9565217391305" y="958.2608695652174"/>
      <point x="675.9130434782609" y="927.3478260869565" type="curve"/>
    </contour>
    <contour>
      <point x="1122.1304347826085" y="980.2608695652175" type="curve" smooth="yes"/>
      <point x="1153.5652173913043" y="980.2608695652175"/>
      <point x="1185.0434782608695" y="951.3913043478261"/>
      <point x="1185.0434782608695" y="873.6956521739131" type="curve" smooth="yes"/>
      <point x="1185.0434782608695" y="659.5652173913043"/>
      <point x="1071.1304347826085" y="526.7391304347826"/>
      <point x="893.7391304347826" y="492.95652173913044" type="curve"/>
      <point x="912.304347826087" y="680.5652173913044"/>
      <point x="1003.304347826087" y="980.2608695652175"/>
    </contour>
  </outline>
</glyph>
<glyph name="kgreenlandic" format="2">
  <advance width="963.4347826086955"/>
  <unicode hex="0138"/>
  <outline>
    <contour>
      <point x="41.7391304347826" y="0.0" type="line"/>
      <point x="305.2608695652174" y="0.0" type="line"/>
      <point x="440.73913043478257" y="995.9565217391304" type="line"/>
      <point x="403.47826086956525" y="1029.1739130434783" type="line"/>
      <point x="77.91304347826087" y="967.086956521739" type="line"/>
      <point x="73.21739130434784" y="935.8260869565217" type="line"/>
      <point x="167.2173913043478" y="898.6956521739131" type="line"/>
    </contour>
    <contour>
      <point x="712.6521739130435" y="-22.391304347826086" type="curve" smooth="yes"/>
      <point x="817.1304347826086" y="-22.391304347826086"/>
      <point x="912.1739130434783" y="38.130434782608695"/>
      <point x="971.304347826087" y="118.3913043478261" type="curve"/>
      <point x="949.7391304347826" y="159.30434782608694" type="line"/>
      <point x="917.6086956521739" y="120.95652173913042"/>
      <point x="886.3478260869565" y="103.82608695652175"/>
      <point x="862.0" y="103.82608695652175" type="curve" smooth="yes"/>
      <point x="836.6521739130435" y="103.82608695652175"/>
      <point x="827.5217391304348" y="111.39130434782606"/>
      <point x="790.695652173913" y="191.86956521739128" type="curve" smooth="yes"/>
      <point x="596.6956521739131" y="612.9130434782608" type="line"/>
      <point x="451.13043478260875" y="522.2173913043478" type="line"/>
      <point x="599.8260869565217" y="585.4782608695652"/>
      <point x="771.695652173913" y="715.3913043478261"/>
      <point x="838.4347826086957" y="776.9565217391304" type="curve" smooth="yes"/>
      <point x="894.0" y="823.9130434782609"/>
      <point x="933.3913043478261" y="875.2608695652174"/>
      <point x="933.3913043478261" y="942.1739130434783" type="curve" smooth="yes"/>
      <point x="933.3913043478261" y="1000.0"/>
      <point x="896.9565217391305" y="1039.782608695652"/>
      <point x="833.0869565217391" y="1039.782608695652" type="curve" smooth="yes"/>
      <point x="778.6521739130435" y="1039.782608695652"/>
      <point x="712.304347826087" y="1012.3478260869565"/>
      <point x="695.7391304347826" y="867.391304347826" type="curve" smooth="yes"/>
      <point x="686.3478260869565" y="791.1304347826087"/>
      <point x="668.0" y="744.9565217391305"/>
      <point x="649.9130434782609" y="716.8260869565217" type="curve" smooth="yes"/>
      <point x="606.0" y="648.2608695652174"/>
      <point x="558.7391304347826" y="604.0434782608696"/>
      <point x="387.95652173913044" y="498.08695652173907" type="curve"/>
      <point x="524.0434782608695" y="146.2173913043478" type="line" smooth="yes"/>
      <point x="572.3478260869565" y="15.304347826086955"/>
      <point x="612.5217391304349" y="-22.391304347826086"/>
    </contour>
  </outline>
</glyph>
<glyph name="lslash" format="2">
  <advance width="554.2173913043479"/>
  <unicode hex="0142"/>
  <anchor x="258.2608695652174" y="0.0" name="bottom"/>
  <anchor x="673.0434782608696" y="1619.217391304348" name="caron"/>
  <anchor x="437.2173913043478" y="1622.913043478261" name="top"/>
  <outline>
    <contour>
      <point x="41.434782608695656" y="675.1739130434783" type="line"/>
      <point x="265.17391304347825" y="770.7826086956521" type="line"/>
      <point x="373.1304347826087" y="811.8260869565217" type="line"/>
      <point x="624.5652173913043" y="924.1739130434783" type="line"/>
      <point x="623.3478260869565" y="1019.1739130434784" type="line"/>
      <point x="377.9130434782609" y="907.5217391304349" type="line"/>
      <point x="273.95652173913044" y="867.1739130434784" type="line"/>
      <point x="40.21739130434783" y="765.2608695652174" type="line"/>
    </contour>
    <component base="l" xOffset="42.69565217391305"/>
  </outline>
</glyph>
<glyph name="Eng" format="2">
  <advance width="1305.5217391304348"/>
  <unicode hex="014A"/>
  <outline>
    <contour>
      <point x="512.9565217391304" y="-512.2173913043479" type="line"/>
      <point x="762.1739130434783" y="-476.13043478260875"/>
      <point x="1018.3478260869565" y="-249.6086956521739"/>
      <point x="1063.1304347826087" y="81.34782608695652" type="curve" smooth="yes"/>
      <point x="1247.9565217391305" y="1413.4347826086957" type="line"/>
      <point x="1403.1739130434785" y="1450.0" type="line"/>
      <point x="1406.0869565217392" y="1486.0" type="line"/>
      <point x="987.9130434782609" y="1486.0" type="line"/>
      <point x="982.9130434782609" y="1450.0" type="line"/>
      <point x="1151.2173913043478" y="1412.8260869565217" type="line"/>
      <point x="1034.6521739130435" y="321.3913043478261" type="line"/>
      <point x="955.2173913043479" y="530.6521739130435" type="line"/>
      <point x="573.3913043478261" y="1486.0" type="line"/>
      <point x="179.3913043478261" y="1486.0" type="line"/>
      <point x="173.69565217391303" y="1447.913043478261" type="line"/>
      <point x="314.5652173913044" y="1413.7391304347827" type="line"/>
      <point x="122.30434782608694" y="70.47826086956522" type="line"/>
      <point x="-27.173913043478258" y="36.0" type="line"/>
      <point x="-30.08695652173913" y="0.0" type="line"/>
      <point x="394.17391304347825" y="0.0" type="line"/>
      <point x="399.1739130434783" y="36.0" type="line"/>
      <point x="228.08695652173915" y="71.08695652173913" type="line"/>
      <point x="359.0869565217391" y="1318.9565217391305" type="line"/>
      <point x="444.3478260869565" y="1070.1739130434783" type="line"/>
      <point x="875.0869565217392" y="0.0" type="line"/>
      <point x="846.7826086956521" y="-266.7391304347826"/>
      <point x="621.0434782608696" y="-430.52173913043475"/>
      <point x="484.60869565217394" y="-462.3478260869565" type="curve"/>
    </contour>
  </outline>
</glyph>
<glyph name="eng" format="2">
  <advance width="1012.5652173913044"/>
  <unicode hex="014B"/>
  <outline>
    <contour>
      <point x="393.5652173913043" y="648.1304347826087" type="curve"/>
      <point x="440.0434782608696" y="995.9565217391304" type="line"/>
      <point x="403.7826086956522" y="1029.1739130434783" type="line"/>
      <point x="77.91304347826087" y="967.086956521739" type="line"/>
      <point x="73.21739130434784" y="935.8260869565217" type="line"/>
      <point x="167.2173913043478" y="898.6956521739131" type="line"/>
      <point x="41.7391304347826" y="0.0" type="line"/>
      <point x="303.17391304347825" y="0.0" type="line"/>
      <point x="375.17391304347825" y="519.3043478260869" type="line"/>
      <point x="440.0869565217391" y="691.7826086956521"/>
      <point x="540.3913043478261" y="858.8260869565217"/>
      <point x="620.8260869565217" y="858.8260869565217" type="curve" smooth="yes"/>
      <point x="666.4347826086956" y="858.8260869565217"/>
      <point x="677.9130434782609" y="825.391304347826"/>
      <point x="677.9130434782609" y="760.391304347826" type="curve" smooth="yes"/>
      <point x="677.9130434782609" y="690.9130434782609"/>
      <point x="627.0434782608695" y="343.4347826086956"/>
      <point x="574.5652173913044" y="-36.73913043478261" type="curve" smooth="yes"/>
      <point x="542.2608695652174" y="-268.5217391304348"/>
      <point x="507.17391304347825" y="-444.304347826087"/>
      <point x="390.3913043478261" y="-444.304347826087" type="curve" smooth="yes"/>
      <point x="371.2608695652174" y="-444.304347826087"/>
      <point x="350.5217391304348" y="-439.69565217391306"/>
      <point x="326.7826086956522" y="-430.0869565217391" type="curve"/>
      <point x="307.52173913043475" y="-478.0869565217391" type="line"/>
      <point x="342.6086956521739" y="-497.0869565217391"/>
      <point x="387.82608695652175" y="-507.69565217391306"/>
      <point x="443.65217391304344" y="-507.69565217391306" type="curve" smooth="yes"/>
      <point x="642.7826086956522" y="-507.69565217391306"/>
      <point x="783.6521739130435" y="-398.60869565217394"/>
      <point x="830.0434782608695" y="-82.73913043478262" type="curve" smooth="yes"/>
      <point x="862.0" y="136.5217391304348"/>
      <point x="947.9130434782609" y="731.3913043478261"/>
      <point x="947.9130434782609" y="821.0434782608695" type="curve" smooth="yes"/>
      <point x="947.9130434782609" y="937.7391304347825"/>
      <point x="885.0434782608695" y="1031.0"/>
      <point x="753.7826086956521" y="1031.0" type="curve" smooth="yes"/>
      <point x="591.0" y="1031.0"/>
      <point x="471.52173913043475" y="860.5217391304349"/>
    </contour>
  </outline>
</glyph>
<glyph name="oe" format="2">
  <advance width="1447.2608695652173"/>
  <unicode hex="0153"/>
  <outline>
    <contour>
      <point x="1337.1304347826087" y="216.56521739130432" type="line"/>
      <point x="1270.4347826086955" y="136.95652173913044"/>
      <point x="1184.217391304348" y="89.26086956521738"/>
      <point x="1091.2608695652175" y="89.26086956521738" type="curve" smooth="yes"/>
      <point x="956.6521739130435" y="89.26086956521738"/>
      <point x="911.0434782608695" y="192.1304347826087"/>
      <point x="911.0434782608695" y="346.5652173913044" type="curve" smooth="yes"/>
      <point x="911.0434782608695" y="380.95652173913044"/>
      <point x="913.8260869565217" y="418.1304347826087"/>
      <point x="917.6086956521739" y="459.0869565217391" type="curve"/>
      <point x="1128.4347826086957" y="460.13043478260875"/>
      <point x="1456.5652173913045" y="532.1739130434783"/>
      <point x="1456.5652173913045" y="825.7826086956521" type="curve" smooth="yes"/>
      <point x="1456.5652173913045" y="939.304347826087"/>
      <point x="1372.5217391304348" y="1033.782608695652"/>
      <point x="1188.304347826087" y="1033.782608695652" type="curve" smooth="yes"/>
      <point x="1059.8695652173913" y="1033.782608695652"/>
      <point x="945.8695652173913" y="984.8695652173914"/>
      <point x="855.6521739130435" y="903.6086956521739" type="curve"/>
      <point x="793.9130434782609" y="989.8260869565217"/>
      <point x="695.8695652173913" y="1034.1739130434783"/>
      <point x="567.0" y="1034.1739130434783" type="curve" smooth="yes"/>
      <point x="257.8695652173913" y="1034.1739130434783"/>
      <point x="33.565217391304344" y="742.0434782608696"/>
      <point x="33.565217391304344" y="391.4347826086956" type="curve" smooth="yes"/>
      <point x="33.565217391304344" y="141.56521739130434"/>
      <point x="148.30434782608697" y="-25.565217391304348"/>
      <point x="411.0869565217391" y="-25.565217391304348" type="curve" smooth="yes"/>
      <point x="531.1304347826086" y="-25.565217391304348"/>
      <point x="634.6086956521739" y="22.434782608695656"/>
      <point x="717.5217391304348" y="96.17391304347827" type="curve"/>
      <point x="774.1739130434784" y="20.347826086956523"/>
      <point x="868.0" y="-21.08695652173913"/>
      <point x="989.3478260869565" y="-21.08695652173913" type="curve" smooth="yes"/>
      <point x="1174.2173913043478" y="-21.08695652173913"/>
      <point x="1296.0" y="79.91304347826087"/>
      <point x="1359.3043478260868" y="173.6086956521739" type="curve"/>
    </contour>
    <contour>
      <point x="561.0" y="983.5217391304349" type="curve" smooth="yes"/>
      <point x="650.5652173913043" y="983.5217391304349"/>
      <point x="671.1304347826087" y="883.695652173913"/>
      <point x="671.1304347826087" y="714.391304347826" type="curve" smooth="yes"/>
      <point x="671.1304347826087" y="365.26086956521743"/>
      <point x="515.0" y="25.086956521739136"/>
      <point x="414.1304347826087" y="25.086956521739136" type="curve" smooth="yes"/>
      <point x="349.7826086956522" y="25.086956521739136"/>
      <point x="315.47826086956525" y="88.21739130434783"/>
      <point x="315.47826086956525" y="255.0434782608696" type="curve" smooth="yes"/>
      <point x="315.47826086956525" y="553.6521739130435"/>
      <point x="401.6086956521739" y="983.5217391304349"/>
    </contour>
    <contour>
      <point x="1150.1739130434783" y="979.5652173913044" type="curve" smooth="yes"/>
      <point x="1185.5217391304348" y="979.5652173913044"/>
      <point x="1212.695652173913" y="947.4782608695652"/>
      <point x="1212.695652173913" y="873.1304347826087" type="curve" smooth="yes"/>
      <point x="1212.695652173913" y="664.9130434782609"/>
      <point x="1104.4347826086957" y="524.6521739130435"/>
      <point x="922.0869565217391" y="496.4347826086956" type="curve"/>
      <point x="943.4347826086957" y="688.9130434782609"/>
      <point x="1031.5652173913043" y="979.5652173913044"/>
    </contour>
  </outline>
</glyph>
<glyph name="Uhorn" format="2">
  <advance width="1230.7391304347825"/>
  <unicode hex="01AF"/>
  <anchor x="609.0" y="0.0" name="bottom"/>
  <anchor x="709.9565217391305" y="20.0" name="ogonek"/>
  <anchor x="784.304347826087" y="1486.0" name="top"/>
  <anchor x="1123.8260869565217" y="1486.0" name="topright"/>
  <outline>
    <contour>
      <point x="1326.3478260869565" y="1735.0" type="line"/>
      <point x="1310.9130434782608" y="1588.2608695652175"/>
      <point x="1257.608695652174" y="1498.8695652173913"/>
      <point x="1135.4347826086955" y="1486.0" type="curve"/>
      <point x="1164.9130434782608" y="1415.4347826086957" type="line"/>
      <point x="1359.913043478261" y="1407.5217391304348"/>
      <point x="1554.3043478260868" y="1487.0869565217392"/>
      <point x="1562.2173913043478" y="1735.0" type="curve"/>
    </contour>
    <component base="U"/>
  </outline>
</glyph>
<glyph name="ringhalfright" format="2">
  <advance width="337.39130434782606"/>
  <unicode hex="02BE"/>
  <anchor x="93.30434782608695" y="1110.0" name="_top"/>
  <anchor x="184.69565217391303" y="1754.0" name="top"/>
  <outline>
    <contour>
      <point x="118.52173913043478" y="1295.6521739130435" type="line"/>
      <point x="300.30434782608694" y="1295.6521739130435"/>
      <point x="473.69565217391306" y="1389.695652173913"/>
      <point x="473.69565217391306" y="1591.8260869565217" type="curve" smooth="yes"/>
      <point x="473.69565217391306" y="1730.2173913043478"/>
      <point x="353.60869565217394" y="1827.0"/>
      <point x="194.26086956521738" y="1827.0" type="curve"/>
      <point x="176.69565217391303" y="1707.8260869565217" type="line"/>
      <point x="248.56521739130434" y="1706.4347826086957"/>
      <point x="308.69565217391306" y="1666.1739130434783"/>
      <point x="308.69565217391306" y="1567.8695652173913" type="curve" smooth="yes"/>
      <point x="308.69565217391306" y="1451.2173913043478"/>
      <point x="215.43478260869566" y="1418.1304347826087"/>
      <point x="136.08695652173913" y="1418.1304347826087" type="curve"/>
    </contour>
  </outline>
</glyph>
<glyph name="breve" format="2">
  <advance width="855.0434782608695"/>
  <unicode hex="02D8"/>
  <anchor x="528.0869565217391" y="1110.0" name="_top"/>
  <anchor x="587.7391304347825" y="1559.3913043478262" name="top"/>
  <outline>
    <contour>
      <point x="528.7826086956521" y="1148.0" type="curve" smooth="yes"/>
      <point x="725.8260869565217" y="1148.0"/>
      <point x="837.9130434782609" y="1296.4782608695652"/>
      <point x="837.9130434782609" y="1495.5652173913045" type="curve" smooth="yes"/>
      <point x="837.913043478261" y="1516.5652173913043"/>
      <point x="836.9130434782609" y="1524.5652173913043"/>
      <point x="836.9130434782609" y="1536.5652173913043" type="curve"/>
      <point x="774.5217391304348" y="1536.5652173913043" type="line"/>
      <point x="771.7391304347825" y="1419.0"/>
      <point x="684.3913043478261" y="1321.1739130434783"/>
      <point x="538.1739130434784" y="1321.1739130434783" type="curve" smooth="yes"/>
      <point x="401.5652173913044" y="1321.1739130434783"/>
      <point x="352.04347826086956" y="1394.304347826087"/>
      <point x="352.04347826086956" y="1489.913043478261" type="curve" smooth="yes"/>
      <point x="352.04347826086956" y="1516.8695652173913"/>
      <point x="355.34782608695656" y="1528.5652173913045"/>
      <point x="356.3478260869565" y="1536.5652173913043" type="curve"/>
      <point x="295.2608695652174" y="1536.5652173913043" type="line"/>
      <point x="287.2608695652174" y="1509.5652173913043"/>
      <point x="277.4782608695652" y="1479.7826086956522"/>
      <point x="277.4782608695652" y="1417.391304347826" type="curve" smooth="yes"/>
      <point x="277.4782608695652" y="1269.6086956521738"/>
      <point x="354.47826086956525" y="1148.0"/>
    </contour>
  </outline>
</glyph>
<glyph name="dotaccent" format="2">
  <advance width="577.4782608695652"/>
  <unicode hex="02D9"/>
  <anchor x="366.5217391304348" y="1110.0" name="_top"/>
  <anchor x="422.04347826086956" y="1473.608695652174" name="top"/>
  <outline>
    <contour>
      <point x="380.8695652173913" y="1151.4347826086957" type="curve" smooth="yes"/>
      <point x="482.0434782608696" y="1151.4347826086957"/>
      <point x="538.3478260869565" y="1231.7391304347827"/>
      <point x="541.6521739130435" y="1328.913043478261" type="curve" smooth="yes"/>
      <point x="544.3478260869566" y="1398.0"/>
      <point x="505.5217391304348" y="1467.5217391304348"/>
      <point x="413.26086956521743" y="1467.5217391304348" type="curve" smooth="yes"/>
      <point x="318.26086956521743" y="1467.5217391304348"/>
      <point x="258.6521739130435" y="1386.2608695652173"/>
      <point x="257.1739130434783" y="1288.2608695652175" type="curve" smooth="yes"/>
      <point x="255.69565217391303" y="1212.0434782608695"/>
      <point x="300.2173913043478" y="1151.4347826086957"/>
    </contour>
  </outline>
</glyph>
<glyph name="ring" format="2">
  <advance width="845.9130434782609"/>
  <unicode hex="02DA"/>
  <anchor x="505.5652173913043" y="1110.0" name="_top"/>
  <anchor x="835.8260869565217" y="1424.0" name="top"/>
  <outline>
    <contour>
      <point x="515.2608695652174" y="1136.9565217391305" type="curve" smooth="yes"/>
      <point x="688.0869565217391" y="1136.9565217391305"/>
      <point x="821.695652173913" y="1256.5652173913045"/>
      <point x="821.695652173913" y="1426.0" type="curve" smooth="yes"/>
      <point x="821.695652173913" y="1556.6521739130435"/>
      <point x="713.0434782608695" y="1638.9565217391303"/>
      <point x="570.3478260869565" y="1638.9565217391303" type="curve" smooth="yes"/>
      <point x="401.2173913043478" y="1638.9565217391303"/>
      <point x="267.0" y="1525.608695652174"/>
      <point x="267.0" y="1349.2173913043478" type="curve" smooth="yes"/>
      <point x="267.0" y="1219.2608695652175"/>
      <point x="366.21739130434787" y="1136.9565217391305"/>
    </contour>
    <contour>
      <point x="523.0434782608695" y="1190.7826086956522" type="curve" smooth="yes"/>
      <point x="462.52173913043475" y="1190.7826086956522"/>
      <point x="430.26086956521743" y="1244.304347826087"/>
      <point x="430.26086956521743" y="1333.913043478261" type="curve" smooth="yes"/>
      <point x="430.26086956521743" y="1488.8695652173913"/>
      <point x="489.82608695652175" y="1587.2173913043478"/>
      <point x="567.7391304347826" y="1587.2173913043478" type="curve" smooth="yes"/>
      <point x="624.0869565217391" y="1587.2173913043478"/>
      <point x="659.1304347826087" y="1533.695652173913"/>
      <point x="659.1304347826087" y="1437.1304347826087" type="curve" smooth="yes"/>
      <point x="659.1304347826087" y="1326.695652173913"/>
      <point x="614.1739130434783" y="1190.7826086956522"/>
    </contour>
  </outline>
</glyph>
<glyph name="ogonek" format="2">
  <advance width="763.8695652173913"/>
  <unicode hex="02DB"/>
  <anchor x="352.9130434782609" y="0.0" name="_ogonek"/>
  <outline>
    <contour>
      <point x="236.08695652173913" y="-451.0869565217391" type="curve" smooth="yes"/>
      <point x="354.3478260869565" y="-451.0869565217392"/>
      <point x="453.6086956521739" y="-375.3478260869565"/>
      <point x="505.39130434782606" y="-305.7391304347826" type="curve"/>
      <point x="481.73913043478257" y="-260.8695652173913" type="line"/>
      <point x="427.5652173913044" y="-305.0"/>
      <point x="380.1304347826087" y="-328.04347826086956"/>
      <point x="326.95652173913044" y="-328.04347826086956" type="curve" smooth="yes"/>
      <point x="268.6521739130435" y="-328.04347826086956"/>
      <point x="235.43478260869563" y="-296.7391304347826"/>
      <point x="235.43478260869566" y="-242.82608695652175" type="curve" smooth="yes"/>
      <point x="235.43478260869568" y="-152.95652173913044"/>
      <point x="305.6521739130435" y="-59.04347826086957"/>
      <point x="459.304347826087" y="33.95652173913043" type="curve"/>
      <point x="392.13043478260875" y="51.91304347826087" type="line"/>
      <point x="320.82608695652175" y="20.8695652173913" type="line"/>
      <point x="161.39130434782606" y="-51.173913043478265"/>
      <point x="41.91304347826087" y="-155.43478260869566"/>
      <point x="41.91304347826087" y="-285.9130434782609" type="curve" smooth="yes"/>
      <point x="41.91304347826087" y="-393.65217391304344"/>
      <point x="120.78260869565217" y="-451.0869565217391"/>
    </contour>
  </outline>
</glyph>
<glyph name="tilde" format="2">
  <advance width="886.7391304347826"/>
  <unicode hex="02DC"/>
  <anchor x="547.7391304347826" y="1110.0" name="_top"/>
  <anchor x="601.304347826087" y="1530.5217391304348" name="top"/>
  <outline>
    <contour>
      <point x="252.39130434782612" y="1210.9565217391305" type="curve"/>
      <point x="293.7826086956522" y="1196.0" type="line"/>
      <point x="314.3478260869565" y="1272.9565217391305"/>
      <point x="336.5652173913043" y="1306.0"/>
      <point x="388.7826086956522" y="1306.0" type="curve" smooth="yes"/>
      <point x="480.2608695652174" y="1306.0"/>
      <point x="576.7391304347826" y="1179.0"/>
      <point x="687.8260869565217" y="1179.0" type="curve" smooth="yes"/>
      <point x="820.5652173913044" y="1179.0"/>
      <point x="863.5217391304349" y="1286.6956521739132"/>
      <point x="857.2173913043479" y="1438.7826086956522" type="curve"/>
      <point x="813.0434782608695" y="1453.0434782608695" type="line"/>
      <point x="795.9565217391304" y="1382.3478260869565"/>
      <point x="772.3478260869566" y="1358.3478260869565"/>
      <point x="724.3043478260869" y="1358.3478260869565" type="curve" smooth="yes"/>
      <point x="640.7826086956522" y="1358.3478260869565"/>
      <point x="570.4782608695652" y="1476.304347826087"/>
      <point x="437.7826086956522" y="1476.304347826087" type="curve" smooth="yes"/>
      <point x="315.47826086956525" y="1476.304347826087"/>
      <point x="246.08695652173913" y="1374.1739130434783"/>
    </contour>
  </outline>
</glyph>
<glyph name="tildecomb" format="2">
  <unicode hex="0303"/>
  <anchor x="373.1304347826087" y="1110.0" name="_top"/>
  <anchor x="430.7826086956522" y="1530.5217391304348" name="top"/>
  <outline>
    <contour>
      <point x="122.30434782608695" y="1210.9565217391305" type="curve"/>
      <point x="165.52173913043478" y="1196.0" type="line"/>
      <point x="193.04347826086956" y="1272.9565217391305"/>
      <point x="214.04347826086956" y="1306.0"/>
      <point x="265.95652173913044" y="1306.0" type="curve" smooth="yes"/>
      <point x="343.7826086956522" y="1306.0"/>
      <point x="418.17391304347825" y="1179.0"/>
      <point x="521.695652173913" y="1179.0" type="curve" smooth="yes"/>
      <point x="646.8695652173913" y="1179.0"/>
      <point x="686.7826086956522" y="1286.6956521739132"/>
      <point x="687.1304347826087" y="1438.7826086956522" type="curve"/>
      <point x="641.1304347826086" y="1453.0434782608695" type="line"/>
      <point x="617.0869565217391" y="1382.3478260869565"/>
      <point x="589.2608695652175" y="1358.3478260869565"/>
      <point x="541.5217391304348" y="1358.3478260869565" type="curve" smooth="yes"/>
      <point x="465.5652173913043" y="1358.3478260869565"/>
      <point x="423.4347826086957" y="1476.304347826087"/>
      <point x="298.304347826087" y="1476.304347826087" type="curve" smooth="yes"/>
      <point x="189.65217391304347" y="1476.304347826087"/>
      <point x="122.65217391304347" y="1374.1739130434783"/>
    </contour>
  </outline>
</glyph>
<glyph name="macroncomb" format="2">
  <unicode hex="0304"/>
  <anchor x="368.0869565217391" y="1110.0" name="_top"/>
  <anchor x="406.6521739130435" y="1415.9130434782608" name="top"/>
  <outline>
    <contour>
      <point x="124.8695652173913" y="1336.2608695652175" type="line"/>
      <point x="103.6086956521739" y="1176.8260869565215" type="line"/>
      <point x="649.0" y="1176.8260869565215" type="line"/>
      <point x="669.9565217391305" y="1336.2608695652175" type="line"/>
    </contour>
  </outline>
</glyph>
<glyph name="dotaccentcomb" format="2">
  <unicode hex="0307"/>
  <anchor x="228.52173913043478" y="1110.0" name="_top"/>
  <anchor x="284.04347826086956" y="1473.608695652174" name="top"/>
  <outline>
    <contour>
      <point x="242.8695652173913" y="1151.4347826086957" type="curve" smooth="yes"/>
      <point x="344.04347826086956" y="1151.4347826086957"/>
      <point x="400.34782608695656" y="1231.7391304347827"/>
      <point x="403.65217391304344" y="1328.913043478261" type="curve" smooth="yes"/>
      <point x="406.3478260869565" y="1398.0"/>
      <point x="367.5217391304348" y="1467.5217391304348"/>
      <point x="275.26086956521743" y="1467.5217391304348" type="curve" smooth="yes"/>
      <point x="180.26086956521738" y="1467.5217391304348"/>
      <point x="120.6521739130435" y="1386.2608695652173"/>
      <point x="119.17391304347825" y="1288.2608695652175" type="curve" smooth="yes"/>
      <point x="117.69565217391303" y="1212.0434782608695"/>
      <point x="162.2173913043478" y="1151.4347826086957"/>
    </contour>
  </outline>
</glyph>
<glyph name="commaturnedabovecomb" format="2">
  <unicode hex="0312"/>
  <anchor x="234.52173913043478" y="1110.0" name="_top"/>
  <outline>
    <contour>
      <point x="123.17391304347828" y="1310.7826086956522" type="curve" smooth="yes"/>
      <point x="123.17391304347828" y="1217.1304347826087"/>
      <point x="183.56521739130434" y="1158.695652173913"/>
      <point x="280.60869565217394" y="1143.478260869565" type="curve"/>
      <point x="414.3478260869565" y="1272.608695652174" type="line"/>
      <point x="414.3478260869565" y="1295.9565217391305" type="line"/>
      <point x="365.304347826087" y="1311.6521739130435"/>
      <point x="336.4782608695652" y="1349.8260869565217"/>
      <point x="336.4782608695652" y="1404.1739130434783" type="curve" smooth="yes"/>
      <point x="336.4782608695652" y="1475.8695652173915"/>
      <point x="367.8695652173913" y="1546.0869565217392"/>
      <point x="434.95652173913044" y="1604.695652173913" type="curve"/>
      <point x="434.95652173913044" y="1615.0869565217392" type="line"/>
      <point x="405.30434782608694" y="1635.6521739130435" type="line"/>
      <point x="220.91304347826087" y="1528.6521739130435"/>
      <point x="123.17391304347828" y="1440.304347826087"/>
    </contour>
  </outline>
</glyph>
<glyph name="horncomb" format="2">
  <unicode hex="031B"/>
  <anchor x="-54.69565217391305" y="0.0" name="_topright"/>
  <outline>
    <contour>
      <point x="165.82608695652175" y="245.9565217391304" type="line"/>
      <point x="150.3913043478261" y="99.21739130434783"/>
      <point x="101.34782608695652" y="12.869565217391305"/>
      <point x="-58.69565217391305" y="0.0" type="curve"/>
      <point x="-64.69565217391305" y="-46.04347826086957" type="line"/>
      <point x="183.0" y="-104.73913043478261"/>
      <point x="369.8695652173913" y="-1.9565217391304337"/>
      <point x="377.1739130434783" y="245.9565217391304" type="curve"/>
    </contour>
  </outline>
</glyph>
<glyph name="dotbelowcomb" format="2">
  <unicode hex="0323"/>
  <anchor x="95.17391304347827" y="0.0" name="_bottom"/>
  <outline>
    <contour>
      <point x="29.95652173913043" y="-471.7391304347826" type="curve" smooth="yes"/>
      <point x="145.3478260869565" y="-471.7391304347826"/>
      <point x="207.08695652173913" y="-388.0"/>
      <point x="207.08695652173913" y="-290.2608695652174" type="curve" smooth="yes"/>
      <point x="207.08695652173913" y="-209.2173913043478"/>
      <point x="162.56521739130432" y="-160.08695652173913"/>
      <point x="71.95652173913044" y="-160.08695652173913" type="curve" smooth="yes"/>
      <point x="-26.56521739130435" y="-160.08695652173913"/>
      <point x="-101.17391304347827" y="-228.69565217391303"/>
      <point x="-101.78260869565217" y="-327.2173913043478" type="curve" smooth="yes"/>
      <point x="-102.3913043478261" y="-410.95652173913044"/>
      <point x="-51.34782608695652" y="-471.7391304347826"/>
    </contour>
  </outline>
</glyph>
<glyph name="commaaccentcomb" format="2">
  <unicode hex="0326"/>
  <anchor x="77.65217391304347" y="0.0" name="_bottom"/>
  <outline>
    <contour>
      <point x="-112.0" y="-579.4347826086956" type="line"/>
      <point x="-82.34782608695652" y="-600.0" type="line"/>
      <point x="102.04347826086956" y="-492.99999999999994"/>
      <point x="199.7826086956522" y="-404.6521739130435"/>
      <point x="199.78260869565216" y="-275.1304347826087" type="curve" smooth="yes"/>
      <point x="199.7826086956522" y="-181.47826086956522"/>
      <point x="139.3913043478261" y="-123.04347826086958"/>
      <point x="42.347826086956516" y="-107.82608695652173" type="curve"/>
      <point x="-91.39130434782608" y="-236.95652173913044" type="line"/>
      <point x="-91.39130434782608" y="-260.30434782608694" type="line"/>
      <point x="-42.34782608695652" y="-276.0"/>
      <point x="-13.521739130434781" y="-314.17391304347825"/>
      <point x="-13.521739130434781" y="-368.5217391304348" type="curve" smooth="yes"/>
      <point x="-13.521739130434783" y="-440.2173913043478"/>
      <point x="-44.913043478260875" y="-510.4347826086956"/>
      <point x="-112.0" y="-569.0434782608695" type="curve"/>
    </contour>
  </outline>
</glyph>
<glyph name="cedillacomb" format="2">
  <unicode hex="0327"/>
  <anchor x="191.2608695652174" y="0.0" name="_bottom"/>
  <outline>
    <contour>
      <point x="139.43478260869566" y="47.69565217391305" type="line"/>
      <point x="82.47826086956522" y="44.0" type="line"/>
      <point x="115.08695652173913" y="6.086956521739131"/>
      <point x="145.65217391304347" y="-50.04347826086957"/>
      <point x="145.6521739130435" y="-126.91304347826087" type="curve" smooth="yes"/>
      <point x="145.65217391304347" y="-214.43478260869566"/>
      <point x="96.0" y="-261.17391304347825"/>
      <point x="31.52173913043478" y="-263.95652173913044" type="curve" smooth="yes"/>
      <point x="-10.78260869565218" y="-266.04347826086956"/>
      <point x="-44.47826086956522" y="-253.56521739130434"/>
      <point x="-75.56521739130434" y="-237.78260869565216" type="curve"/>
      <point x="-95.73913043478262" y="-390.34782608695656" type="line"/>
      <point x="-57.60869565217391" y="-415.0869565217391"/>
      <point x="-5.956521739130437" y="-430.39130434782606"/>
      <point x="47.565217391304344" y="-430.39130434782606" type="curve" smooth="yes"/>
      <point x="189.04347826086956" y="-430.39130434782606"/>
      <point x="263.69565217391306" y="-336.17391304347825"/>
      <point x="263.69565217391306" y="-195.95652173913044" type="curve" smooth="yes"/>
      <point x="263.69565217391306" y="-94.91304347826087"/>
      <point x="214.7826086956522" y="-16.47826086956522"/>
      <point x="152.30434782608694" y="44.0" type="curve"/>
    </contour>
  </outline>
</glyph>
<glyph name="strokeshortcomb" format="2">
  <unicode hex="0335"/>
  <anchor x="281.4782608695652" y="555.304347826087" name="_bar"/>
  <anchor x="354.95652173913044" y="556.0" name="_center"/>
  <outline>
    <contour>
      <point x="510.21739130434776" y="570.9130434782609" type="line"/>
      <point x="192.43478260869568" y="570.9130434782609" type="line"/>
      <point x="189.43478260869563" y="539.7826086956522" type="line"/>
      <point x="507.2173913043478" y="539.7826086956522" type="line"/>
    </contour>
  </outline>
</glyph>
<glyph name="E-cy" format="2">
  <advance width="1100.0869565217392"/>
  <unicode hex="0404"/>
  <outline>
    <contour>
      <point x="558.7391304347826" y="-21.869565217391305" type="curve" smooth="yes"/>
      <point x="792.4782608695651" y="-21.869565217391305"/>
      <point x="895.7826086956521" y="55.347826086956516"/>
      <point x="972.4347826086956" y="61.260869565217384" type="curve"/>
      <point x="1035.2173913043478" y="442.82608695652175" type="line"/>
      <point x="890.0" y="442.82608695652175" type="line"/>
      <point x="871.608695652174" y="368.7391304347826"/>
      <point x="814.8260869565217" y="188.7826086956522"/>
      <point x="792.0434782608696" y="140.95652173913044" type="curve"/>
      <point x="761.3913043478261" y="73.65217391304348"/>
      <point x="671.9130434782609" y="33.99999999999999"/>
      <point x="598.7826086956521" y="33.99999999999999" type="curve" smooth="yes"/>
      <point x="404.47826086956525" y="33.99999999999999"/>
      <point x="369.39130434782606" y="345.5652173913044"/>
      <point x="369.39130434782606" y="564.2608695652174" type="curve" smooth="yes"/>
      <point x="369.39130434782606" y="613.6521739130435"/>
      <point x="371.0869565217391" y="663.3478260869565"/>
      <point x="374.47826086956525" y="712.0434782608696" type="curve"/>
      <point x="528.695652173913" y="694.304347826087"/>
      <point x="764.9565217391305" y="661.6956521739131"/>
      <point x="863.3478260869565" y="657.304347826087" type="curve"/>
      <point x="892.6086956521739" y="845.0" type="line"/>
      <point x="380.86956521739125" y="788.9130434782609" type="line"/>
      <point x="418.6521739130435" y="1142.5217391304348"/>
      <point x="546.8695652173914" y="1449.9130434782608"/>
      <point x="758.2173913043479" y="1449.9130434782608" type="curve" smooth="yes"/>
      <point x="824.2608695652175" y="1449.9130434782608"/>
      <point x="864.9130434782609" y="1430.1739130434783"/>
      <point x="895.9565217391304" y="1404.9565217391305" type="curve"/>
      <point x="906.9130434782609" y="1028.2173913043478" type="line"/>
      <point x="1079.9565217391303" y="1028.2173913043478" type="line"/>
      <point x="1145.913043478261" y="1448.5652173913043" type="line"/>
      <point x="1044.9565217391303" y="1450.608695652174"/>
      <point x="965.1739130434783" y="1504.782608695652"/>
      <point x="755.0434782608696" y="1504.782608695652" type="curve" smooth="yes"/>
      <point x="318.21739130434787" y="1504.782608695652"/>
      <point x="63.652173913043484" y="1061.0"/>
      <point x="63.652173913043484" y="600.1739130434783" type="curve" smooth="yes"/>
      <point x="63.652173913043484" y="293.47826086956525"/>
      <point x="159.30434782608697" y="-21.869565217391305"/>
    </contour>
  </outline>
</glyph>
<glyph name="Lje-cy" format="2">
  <advance width="1848.0869565217392"/>
  <unicode hex="0409"/>
  <outline>
    <contour>
      <point x="116.21739130434783" y="-22.956521739130434" type="curve" smooth="yes"/>
      <point x="280.0869565217391" y="-22.956521739130434"/>
      <point x="362.60869565217394" y="82.60869565217392"/>
      <point x="438.04347826086956" y="302.0" type="curve" smooth="yes"/>
      <point x="515.391304347826" y="526.2173913043479"/>
      <point x="591.3478260869565" y="908.0434782608696"/>
      <point x="649.0" y="1284.1739130434783" type="curve" smooth="yes"/>
      <point x="669.5652173913043" y="1415.1304347826085" type="line"/>
      <point x="965.3478260869565" y="1415.1304347826087" type="line"/>
      <point x="782.1304347826087" y="71.8695652173913" type="line"/>
      <point x="641.0" y="37.39130434782608" type="line"/>
      <point x="636.0" y="0.0" type="line"/>
      <point x="907.6086956521739" y="0.0" type="line" smooth="yes"/>
      <point x="1004.2608695652175" y="0.0"/>
      <point x="1110.4347826086957" y="-18.17391304347826"/>
      <point x="1228.391304347826" y="-18.17391304347826" type="curve" smooth="yes"/>
      <point x="1602.913043478261" y="-18.17391304347826"/>
      <point x="1807.2173913043478" y="171.69565217391303"/>
      <point x="1807.2173913043478" y="500.95652173913044" type="curve" smooth="yes"/>
      <point x="1807.2173913043478" y="774.5652173913043"/>
      <point x="1654.9565217391305" y="913.4347826086957"/>
      <point x="1396.9565217391305" y="913.4347826086957" type="curve" smooth="yes"/>
      <point x="1329.2608695652173" y="913.4347826086957"/>
      <point x="1243.608695652174" y="904.1304347826086"/>
      <point x="1182.7826086956522" y="893.5217391304348" type="curve"/>
      <point x="1254.695652173913" y="1415.1304347826087" type="line"/>
      <point x="1387.217391304348" y="1448.608695652174" type="line"/>
      <point x="1392.2173913043478" y="1486.0" type="line"/>
      <point x="448.17391304347825" y="1486.0" type="line"/>
      <point x="443.17391304347825" y="1448.608695652174" type="line"/>
      <point x="579.1739130434783" y="1415.1304347826087" type="line"/>
      <point x="558.8260869565217" y="1290.7826086956522" type="line" smooth="yes"/>
      <point x="485.1304347826087" y="850.8695652173914"/>
      <point x="408.8695652173913" y="522.4347826086957"/>
      <point x="328.34782608695656" y="360.7391304347826" type="curve" smooth="yes"/>
      <point x="291.1304347826087" y="287.69565217391306"/>
      <point x="241.6521739130435" y="231.3913043478261"/>
      <point x="145.39130434782606" y="231.3913043478261" type="curve" smooth="yes"/>
      <point x="114.78260869565217" y="231.3913043478261"/>
      <point x="80.13043478260869" y="237.6086956521739"/>
      <point x="36.17391304347826" y="248.82608695652175" type="curve"/>
      <point x="-8.30434782608696" y="3.3478260869565215" type="line"/>
      <point x="16.217391304347828" y="-11.26086956521739"/>
      <point x="62.26086956521739" y="-22.956521739130434"/>
    </contour>
    <contour>
      <point x="1221.3913043478262" y="39.08695652173914" type="curve" smooth="yes"/>
      <point x="1179.0869565217392" y="39.08695652173914"/>
      <point x="1118.086956521739" y="47.434782608695656"/>
      <point x="1068.0" y="64.91304347826086" type="curve"/>
      <point x="1174.0869565217392" y="828.1304347826087" type="line"/>
      <point x="1210.0" y="834.3478260869565"/>
      <point x="1250.2173913043478" y="840.1739130434783"/>
      <point x="1292.4782608695652" y="840.1739130434783" type="curve" smooth="yes"/>
      <point x="1430.5652173913043" y="840.1739130434783"/>
      <point x="1506.695652173913" y="772.5217391304348"/>
      <point x="1506.695652173913" y="512.9565217391304" type="curve" smooth="yes"/>
      <point x="1506.695652173913" y="226.69565217391306"/>
      <point x="1412.5652173913043" y="39.08695652173914"/>
    </contour>
  </outline>
</glyph>
<glyph name="Tshe-cy" format="2">
  <advance width="1674.4347826086957"/>
  <unicode hex="040B"/>
  <anchor x="451.304347826087" y="-166.0" name="btm"/>
  <anchor x="661.304347826087" y="1660.0" name="top"/>
  <outline>
    <contour>
      <point x="270.7826086956522" y="0.0" type="line"/>
      <point x="859.2173913043478" y="0.0" type="line"/>
      <point x="863.5217391304349" y="38.08695652173913" type="line"/>
      <point x="714.4782608695652" y="70.47826086956522" type="line"/>
      <point x="810.8695652173913" y="773.5217391304348" type="line"/>
      <point x="867.9565217391305" y="805.391304347826"/>
      <point x="975.6521739130435" y="830.7391304347826"/>
      <point x="1040.0" y="830.7391304347826" type="curve" smooth="yes"/>
      <point x="1156.4347826086955" y="830.7391304347826"/>
      <point x="1203.608695652174" y="766.5652173913044"/>
      <point x="1203.608695652174" y="616.7391304347826" type="curve" smooth="yes"/>
      <point x="1203.608695652174" y="536.4782608695651"/>
      <point x="1189.0434782608695" y="426.34782608695656"/>
      <point x="1176.6521739130435" y="339.82608695652175" type="curve" smooth="yes"/>
      <point x="1137.913043478261" y="70.8695652173913" type="line"/>
      <point x="1013.7391304347826" y="36.0" type="line"/>
      <point x="1009.4347826086956" y="0.0" type="line"/>
      <point x="1546.5652173913043" y="0.0" type="line"/>
      <point x="1551.5652173913043" y="36.0" type="line"/>
      <point x="1427.391304347826" y="70.8695652173913" type="line"/>
      <point x="1483.2173913043478" y="464.2608695652174" type="line" smooth="yes"/>
      <point x="1487.913043478261" y="497.1304347826087"/>
      <point x="1493.391304347826" y="545.304347826087"/>
      <point x="1493.391304347826" y="589.0869565217391" type="curve" smooth="yes"/>
      <point x="1493.391304347826" y="775.2608695652174"/>
      <point x="1421.1304347826087" y="913.9130434782609"/>
      <point x="1138.5652173913043" y="913.9130434782609" type="curve" smooth="yes"/>
      <point x="1027.391304347826" y="913.9130434782609"/>
      <point x="913.1304347826087" y="888.5217391304348"/>
      <point x="819.8695652173914" y="843.0" type="curve"/>
      <point x="900.4782608695652" y="1430.0434782608697" type="line"/>
      <point x="1104.9130434782608" y="1418.9130434782608" type="line"/>
      <point x="1156.7826086956522" y="1052.0434782608695" type="line"/>
      <point x="1278.0" y="1052.6521739130433" type="line"/>
      <point x="1328.8260869565217" y="1486.0" type="line"/>
      <point x="178.04347826086956" y="1486.0" type="line"/>
      <point x="114.39130434782608" y="1053.2608695652173" type="line"/>
      <point x="251.52173913043475" y="1053.8695652173913" type="line"/>
      <point x="387.9130434782609" y="1418.9130434782608" type="line"/>
      <point x="609.6086956521739" y="1430.0434782608697" type="line"/>
      <point x="423.6086956521739" y="70.47826086956522" type="line"/>
      <point x="275.7826086956522" y="38.08695652173913" type="line"/>
    </contour>
  </outline>
</glyph>
<glyph name="Be-cy" format="2">
  <advance width="1215.6521739130435"/>
  <unicode hex="0411"/>
  <anchor x="557.4347826086957" y="-166.0" name="btm"/>
  <anchor x="770.4782608695651" y="1486.0" name="top"/>
  <outline>
    <contour>
      <point x="561.1304347826086" y="-18.17391304347826" type="curve" smooth="yes"/>
      <point x="934.9565217391304" y="-18.17391304347826"/>
      <point x="1152.695652173913" y="167.3913043478261"/>
      <point x="1152.695652173913" y="508.4782608695652" type="curve" smooth="yes"/>
      <point x="1152.695652173913" y="759.5217391304349"/>
      <point x="979.5652173913043" y="881.3913043478261"/>
      <point x="729.8695652173913" y="883.8260869565217" type="curve" smooth="yes"/>
      <point x="669.1739130434783" y="884.4347826086956"/>
      <point x="583.7391304347826" y="875.6956521739131"/>
      <point x="511.0869565217391" y="865.0869565217391" type="curve"/>
      <point x="589.9565217391304" y="1429.7391304347827" type="line"/>
      <point x="978.1304347826086" y="1404.0" type="line"/>
      <point x="1025.4347826086957" y="1053.0434782608695" type="line"/>
      <point x="1147.3478260869565" y="1053.0434782608695" type="line"/>
      <point x="1205.3478260869565" y="1486.0" type="line"/>
      <point x="183.21739130434784" y="1486.0" type="line"/>
      <point x="178.21739130434784" y="1448.608695652174" type="line"/>
      <point x="296.65217391304344" y="1415.1304347826085" type="line"/>
      <point x="114.82608695652173" y="70.4782608695652" type="line"/>
      <point x="-21.217391304347824" y="37.39130434782609" type="line"/>
      <point x="-26.217391304347824" y="0.0" type="line"/>
      <point x="242.95652173913044" y="0.0" type="line" smooth="yes"/>
      <point x="338.4347826086957" y="0.0"/>
      <point x="446.9565217391304" y="-18.17391304347826"/>
    </contour>
    <contour>
      <point x="556.9130434782609" y="39.086956521739125" type="curve" smooth="yes"/>
      <point x="512.8260869565217" y="39.086956521739125"/>
      <point x="452.8695652173913" y="50.91304347826087"/>
      <point x="401.86956521739125" y="64.91304347826087" type="curve"/>
      <point x="502.7826086956522" y="799.0" type="line"/>
      <point x="532.4347826086956" y="803.1304347826086"/>
      <point x="577.1739130434783" y="810.9565217391304"/>
      <point x="626.5652173913043" y="810.9565217391304" type="curve" smooth="yes"/>
      <point x="773.695652173913" y="810.9565217391304"/>
      <point x="851.4782608695652" y="717.9130434782609"/>
      <point x="851.4782608695652" y="491.69565217391306" type="curve" smooth="yes"/>
      <point x="851.4782608695652" y="186.3478260869565"/>
      <point x="736.4782608695652" y="39.086956521739125"/>
    </contour>
  </outline>
</glyph>
<glyph name="De-cy" format="2">
  <advance width="1327.2173913043478"/>
  <unicode hex="0414"/>
  <outline>
    <contour>
      <point x="-119.82608695652175" y="-394.7826086956522" type="curve"/>
      <point x="26.173913043478258" y="-394.7826086956522" type="line"/>
      <point x="64.21739130434783" y="-281.0869565217391"/>
      <point x="122.04347826086956" y="-117.78260869565217"/>
      <point x="170.73913043478262" y="0.0" type="curve"/>
      <point x="993.3043478260869" y="0.0" type="line"/>
      <point x="986.0869565217392" y="-101.26086956521739"/>
      <point x="975.304347826087" y="-277.30434782608694"/>
      <point x="959.8260869565217" y="-394.7826086956522" type="curve"/>
      <point x="1096.7826086956522" y="-394.7826086956522" type="line"/>
      <point x="1121.1304347826085" y="-330.6086956521739"/>
      <point x="1200.9130434782608" y="-82.47826086956522"/>
      <point x="1229.4347826086957" y="70.47826086956522" type="curve"/>
      <point x="1064.3478260869565" y="70.47826086956522" type="line"/>
      <point x="1250.7826086956522" y="1415.1304347826087" type="line"/>
      <point x="1380.2608695652173" y="1448.608695652174" type="line"/>
      <point x="1383.1739130434783" y="1486.0" type="line"/>
      <point x="392.17391304347825" y="1486.0" type="line"/>
      <point x="387.17391304347825" y="1448.608695652174" type="line"/>
      <point x="543.5217391304349" y="1415.1304347826087" type="line"/>
      <point x="524.5652173913044" y="1290.7826086956522" type="line" smooth="yes"/>
      <point x="463.5652173913043" y="889.0434782608696"/>
      <point x="276.95652173913044" y="279.34782608695656"/>
      <point x="88.95652173913044" y="70.47826086956522" type="curve"/>
      <point x="-38.608695652173914" y="70.47826086956522" type="line"/>
      <point x="-63.30434782608695" y="-54.26086956521739"/>
      <point x="-107.0" y="-299.0869565217391"/>
    </contour>
    <contour>
      <point x="210.95652173913047" y="70.47826086956522" type="line"/>
      <point x="364.30434782608694" y="285.39130434782606"/>
      <point x="545.1739130434783" y="865.4782608695652"/>
      <point x="607.0869565217391" y="1284.1739130434783" type="curve" smooth="yes"/>
      <point x="626.9565217391304" y="1415.1304347826087" type="line"/>
      <point x="963.7391304347826" y="1415.1304347826087" type="line"/>
      <point x="777.3043478260869" y="70.47826086956522" type="line"/>
    </contour>
  </outline>
</glyph>
<glyph name="Zhe-cy" format="2">
  <advance width="1976.3478260869565"/>
  <unicode hex="0416"/>
  <anchor x="1915.8695652173913" y="0.0" name="bottomright"/>
  <anchor x="1103.695652173913" y="1486.0" name="top"/>
  <outline>
    <contour>
      <point x="-53.04347826086956" y="0.0" type="line"/>
      <point x="289.0869565217391" y="0.0" type="line" smooth="yes"/>
      <point x="370.04347826086956" y="0.0"/>
      <point x="584.8695652173913" y="741.0869565217391"/>
      <point x="769.8695652173913" y="741.0869565217391" type="curve" smooth="yes"/>
      <point x="878.9565217391304" y="741.0869565217391" type="line"/>
      <point x="889.0434782608696" y="814.1739130434783" type="line"/>
      <point x="740.0869565217391" y="814.8695652173914" type="line"/>
      <point x="420.8695652173913" y="1415.7391304347827" type="line"/>
      <point x="575.8695652173914" y="1448.608695652174" type="line"/>
      <point x="579.8695652173914" y="1486.0" type="line"/>
      <point x="171.0" y="1486.0" type="line"/>
      <point x="167.69565217391303" y="1448.608695652174" type="line"/>
      <point x="303.82608695652175" y="1415.1304347826085" type="line"/>
      <point x="679.0434782608696" y="761.6086956521739" type="line"/>
      <point x="668.8695652173914" y="808.0434782608696" type="line"/>
      <point x="457.0" y="833.9565217391304"/>
      <point x="369.82608695652175" y="602.4347826086956"/>
      <point x="214.7391304347826" y="341.60869565217394" type="curve" smooth="yes"/>
      <point x="147.26086956521738" y="227.8695652173913"/>
      <point x="75.26086956521739" y="109.95652173913042"/>
      <point x="24.82608695652174" y="55.826086956521735" type="curve"/>
      <point x="-49.434782608695656" y="37.39130434782608" type="line"/>
    </contour>
    <contour>
      <point x="604.3478260869565" y="0.0" type="line"/>
      <point x="1205.1304347826087" y="0.0" type="line"/>
      <point x="1210.8260869565217" y="37.39130434782609" type="line"/>
      <point x="1046.913043478261" y="70.47826086956522" type="line"/>
      <point x="1230.0" y="1415.1304347826087" type="line"/>
      <point x="1392.8695652173915" y="1448.608695652174" type="line"/>
      <point x="1396.8695652173913" y="1486.0" type="line"/>
      <point x="794.1739130434783" y="1486.0" type="line"/>
      <point x="789.4782608695652" y="1448.608695652174" type="line"/>
      <point x="945.4347826086956" y="1415.8260869565217" type="line"/>
      <point x="763.1304347826086" y="70.47826086956522" type="line"/>
      <point x="607.5652173913044" y="37.39130434782609" type="line"/>
    </contour>
    <contour>
      <point x="1548.3478260869565" y="0.0" type="curve" smooth="yes"/>
      <point x="1894.304347826087" y="0.0" type="line"/>
      <point x="1896.695652173913" y="37.39130434782608" type="line"/>
      <point x="1826.391304347826" y="55.52173913043478" type="line"/>
      <point x="1772.304347826087" y="111.47826086956523"/>
      <point x="1727.9999999999998" y="238.60869565217394"/>
      <point x="1677.0434782608695" y="371.86956521739137" type="curve" smooth="yes"/>
      <point x="1587.5652173913043" y="608.2608695652174"/>
      <point x="1530.6521739130435" y="832.5652173913044"/>
      <point x="1320.7826086956522" y="807.6086956521739" type="curve"/>
      <point x="1304.782608695652" y="736.0434782608696" type="line"/>
      <point x="1843.7391304347825" y="1412.7826086956522" type="line"/>
      <point x="1976.8260869565217" y="1450.304347826087" type="line"/>
      <point x="1980.7391304347825" y="1486.0" type="line"/>
      <point x="1585.5652173913043" y="1486.0" type="line"/>
      <point x="1580.9565217391305" y="1450.0" type="line"/>
      <point x="1722.7391304347825" y="1413.8695652173913" type="line"/>
      <point x="1286.1739130434783" y="814.4782608695652" type="line"/>
      <point x="1089.8695652173913" y="814.4782608695652" type="line"/>
      <point x="1080.8695652173913" y="741.0869565217391" type="line"/>
      <point x="1208.1304347826087" y="741.0869565217391" type="line" smooth="yes"/>
      <point x="1392.086956521739" y="741.0869565217391"/>
      <point x="1446.913043478261" y="0.0"/>
    </contour>
  </outline>
</glyph>
<glyph name="Ii-cy" format="2">
  <advance width="1381.1739130434783"/>
  <unicode hex="0418"/>
  <anchor x="1314.0" y="0.0" name="bottomright"/>
  <anchor x="822.6086956521739" y="1486.0" name="top"/>
  <outline>
    <contour>
      <point x="-27.73913043478261" y="0.0" type="line"/>
      <point x="526.2608695652174" y="0.0" type="line"/>
      <point x="532.6521739130435" y="37.39130434782609" type="line"/>
      <point x="395.78260869565213" y="70.47826086956522" type="line"/>
      <point x="428.5217391304348" y="306.47826086956525" type="line"/>
      <point x="349.69565217391306" y="100.08695652173913" type="line"/>
      <point x="903.0869565217391" y="976.5652173913044" type="line"/>
      <point x="1069.3478260869565" y="1254.3478260869565" type="line"/>
      <point x="1019.7826086956521" y="1218.8695652173913" type="line"/>
      <point x="863.0434782608696" y="70.47826086956522" type="line"/>
      <point x="720.5217391304348" y="38.08695652173913" type="line"/>
      <point x="715.5217391304348" y="0.0" type="line"/>
      <point x="1268.1304347826087" y="0.0" type="line"/>
      <point x="1273.8260869565217" y="38.08695652173913" type="line"/>
      <point x="1146.6956521739132" y="70.47826086956522" type="line"/>
      <point x="1331.304347826087" y="1415.1304347826087" type="line"/>
      <point x="1463.8260869565217" y="1448.608695652174" type="line"/>
      <point x="1466.7391304347827" y="1486.0" type="line"/>
      <point x="922.9130434782609" y="1486.0" type="line"/>
      <point x="917.9130434782609" y="1448.608695652174" type="line"/>
      <point x="1048.0434782608697" y="1415.1304347826087" type="line"/>
      <point x="1019.6521739130434" y="1216.3478260869565" type="line"/>
      <point x="1096.1304347826087" y="1401.2608695652175" type="line"/>
      <point x="560.1304347826086" y="549.6521739130435" type="line"/>
      <point x="367.8695652173913" y="231.73913043478257" type="line"/>
      <point x="415.8695652173913" y="218.3913043478261" type="line"/>
      <point x="580.3913043478261" y="1415.1304347826087" type="line"/>
      <point x="726.8260869565217" y="1448.608695652174" type="line"/>
      <point x="731.1304347826086" y="1486.0" type="line"/>
      <point x="178.2608695652174" y="1486.0" type="line"/>
      <point x="173.26086956521738" y="1448.608695652174" type="line"/>
      <point x="296.7391304347826" y="1415.1304347826087" type="line"/>
      <point x="112.1304347826087" y="70.47826086956522" type="line"/>
      <point x="-22.73913043478261" y="37.39130434782609" type="line"/>
    </contour>
  </outline>
</glyph>
<glyph name="Pe-cy" format="2">
  <advance width="1327.5652173913043"/>
  <unicode hex="041F"/>
  <anchor x="1239.1304347826087" y="0.0" name="bottomright"/>
  <outline>
    <contour>
      <point x="-25.304347826086957" y="0.0" type="line"/>
      <point x="528.2608695652174" y="0.0" type="line"/>
      <point x="534.6521739130435" y="37.39130434782609" type="line"/>
      <point x="399.0" y="70.47826086956522" type="line"/>
      <point x="583.608695652174" y="1415.1304347826085" type="line"/>
      <point x="1002.9999999999999" y="1415.1304347826085" type="line"/>
      <point x="818.391304347826" y="70.47826086956522" type="line"/>
      <point x="675.4782608695652" y="37.39130434782609" type="line"/>
      <point x="670.4782608695652" y="0.0" type="line"/>
      <point x="1216.6086956521738" y="0.0" type="line"/>
      <point x="1222.304347826087" y="37.39130434782609" type="line"/>
      <point x="1104.0434782608697" y="70.47826086956522" type="line"/>
      <point x="1288.6521739130435" y="1415.1304347826087" type="line"/>
      <point x="1406.304347826087" y="1448.608695652174" type="line"/>
      <point x="1410.608695652174" y="1486.0" type="line"/>
      <point x="177.6521739130435" y="1486.0" type="line"/>
      <point x="172.65217391304347" y="1448.608695652174" type="line"/>
      <point x="297.95652173913044" y="1415.1304347826087" type="line"/>
      <point x="113.3478260869565" y="70.47826086956522" type="line"/>
      <point x="-20.304347826086957" y="37.39130434782609" type="line"/>
    </contour>
  </outline>
</glyph>
<glyph name="Sha-cy" format="2">
  <advance width="2008.3913043478262"/>
  <unicode hex="0428"/>
  <anchor x="1899.391304347826" y="0.0" name="bottomright"/>
  <outline>
    <contour>
      <point x="-22.69565217391304" y="0.0" type="line"/>
      <point x="1895.8260869565215" y="0.0" type="line"/>
      <point x="1900.8260869565215" y="37.39130434782609" type="line"/>
      <point x="1783.5652173913045" y="70.86956521739131" type="line"/>
      <point x="1968.1739130434783" y="1415.5217391304348" type="line"/>
      <point x="2090.9565217391305" y="1448.608695652174" type="line"/>
      <point x="2095.9565217391305" y="1486.0" type="line"/>
      <point x="1550.9565217391305" y="1486.0" type="line"/>
      <point x="1544.5652173913043" y="1448.608695652174" type="line"/>
      <point x="1681.4347826086957" y="1415.5217391304348" type="line"/>
      <point x="1496.8260869565217" y="70.86956521739131" type="line"/>
      <point x="1094.5217391304348" y="70.86956521739131" type="line"/>
      <point x="1275.9565217391305" y="1415.5217391304348" type="line"/>
      <point x="1411.5217391304348" y="1448.608695652174" type="line"/>
      <point x="1416.5217391304348" y="1486.0" type="line"/>
      <point x="868.4782608695651" y="1486.0" type="line"/>
      <point x="862.0869565217391" y="1448.608695652174" type="line"/>
      <point x="989.2173913043479" y="1415.5217391304348" type="line"/>
      <point x="807.7826086956522" y="70.86956521739131" type="line"/>
      <point x="402.69565217391306" y="70.86956521739131" type="line"/>
      <point x="587.304347826087" y="1415.5217391304348" type="line"/>
      <point x="729.6521739130435" y="1448.608695652174" type="line"/>
      <point x="734.6521739130435" y="1486.0" type="line"/>
      <point x="181.73913043478262" y="1486.0" type="line"/>
      <point x="176.04347826086956" y="1448.608695652174" type="line"/>
      <point x="300.5652173913044" y="1415.5217391304348" type="line"/>
      <point x="115.95652173913044" y="70.86956521739131" type="line"/>
      <point x="-17.0" y="37.39130434782609" type="line"/>
    </contour>
  </outline>
</glyph>
<glyph name="Hardsign-cy" format="2">
  <advance width="1513.1304347826087"/>
  <unicode hex="042A"/>
  <outline>
    <contour>
      <point x="875.0" y="-18.17391304347826" type="curve" smooth="yes"/>
      <point x="1247.1739130434783" y="-18.17391304347826"/>
      <point x="1472.2608695652173" y="162.47826086956522"/>
      <point x="1472.2608695652173" y="496.13043478260863" type="curve" smooth="yes"/>
      <point x="1472.2608695652173" y="791.391304347826"/>
      <point x="1296.4347826086957" y="913.4347826086956"/>
      <point x="1034.0" y="913.4347826086956" type="curve" smooth="yes"/>
      <point x="964.304347826087" y="913.4347826086956"/>
      <point x="894.9130434782609" y="904.5217391304349"/>
      <point x="827.5652173913043" y="893.5217391304348" type="curve"/>
      <point x="901.1739130434781" y="1415.1304347826087" type="line"/>
      <point x="1037.1739130434783" y="1448.608695652174" type="line"/>
      <point x="1042.1739130434783" y="1486.0" type="line"/>
      <point x="197.3913043478261" y="1486.0" type="line"/>
      <point x="122.52173913043478" y="986.9130434782609" type="line"/>
      <point x="255.47826086956522" y="986.9130434782609" type="line"/>
      <point x="382.3478260869565" y="1420.4347826086955" type="line"/>
      <point x="611.1304347826087" y="1429.7391304347827" type="line"/>
      <point x="427.21739130434787" y="71.86956521739131" type="line"/>
      <point x="284.69565217391306" y="37.39130434782609" type="line"/>
      <point x="279.69565217391306" y="0.0" type="line"/>
      <point x="552.3913043478261" y="0.0" type="line" smooth="yes"/>
      <point x="649.6521739130434" y="0.0"/>
      <point x="756.7826086956522" y="-18.17391304347826"/>
    </contour>
    <contour>
      <point x="876.3478260869565" y="39.08695652173913" type="curve" smooth="yes"/>
      <point x="815.4782608695651" y="39.08695652173913"/>
      <point x="756.4347826086956" y="49.52173913043478"/>
      <point x="715.1739130434783" y="64.91304347826087" type="curve"/>
      <point x="819.2608695652174" y="828.1304347826086" type="line"/>
      <point x="853.7826086956522" y="835.3478260869565"/>
      <point x="887.0434782608696" y="840.8695652173913"/>
      <point x="942.8695652173913" y="840.8695652173913" type="curve" smooth="yes"/>
      <point x="1100.6521739130435" y="840.8695652173913"/>
      <point x="1171.7391304347825" y="755.5217391304348"/>
      <point x="1171.7391304347825" y="497.95652173913044" type="curve" smooth="yes"/>
      <point x="1171.7391304347825" y="193.695652173913"/>
      <point x="1049.391304347826" y="39.08695652173913"/>
    </contour>
  </outline>
</glyph>
<glyph name="Softsign-cy" format="2">
  <advance width="1203.6086956521738"/>
  <unicode hex="042C"/>
  <outline>
    <contour>
      <point x="582.6521739130434" y="-18.17391304347826" type="curve" smooth="yes"/>
      <point x="929.3043478260869" y="-18.17391304347826"/>
      <point x="1163.0434782608695" y="157.95652173913044"/>
      <point x="1163.0434782608695" y="500.6521739130435" type="curve" smooth="yes"/>
      <point x="1163.0434782608695" y="763.695652173913"/>
      <point x="1001.2173913043479" y="903.8260869565217"/>
      <point x="739.7826086956521" y="903.8260869565217" type="curve" smooth="yes"/>
      <point x="649.0" y="903.8260869565217"/>
      <point x="525.9130434782609" y="887.0869565217391"/>
      <point x="477.7826086956522" y="873.7826086956522" type="curve"/>
      <point x="477.78260869565213" y="811.4782608695652" type="line"/>
      <point x="521.1304347826086" y="819.304347826087"/>
      <point x="573.4782608695652" y="830.5652173913043"/>
      <point x="631.0434782608696" y="830.5652173913043" type="curve" smooth="yes"/>
      <point x="780.0434782608695" y="830.5652173913043"/>
      <point x="863.9130434782609" y="762.0"/>
      <point x="863.9130434782609" y="510.1304347826087" type="curve" smooth="yes"/>
      <point x="863.9130434782609" y="224.56521739130432"/>
      <point x="762.1304347826086" y="39.08695652173913"/>
      <point x="555.8695652173913" y="39.08695652173913" type="curve" smooth="yes"/>
      <point x="504.86956521739137" y="39.08695652173913"/>
      <point x="455.1304347826087" y="47.04347826086956"/>
      <point x="405.65217391304344" y="64.91304347826087" type="curve"/>
      <point x="592.3478260869565" y="1415.1304347826087" type="line"/>
      <point x="728.3478260869566" y="1448.608695652174" type="line"/>
      <point x="733.3478260869565" y="1486.0" type="line"/>
      <point x="184.52173913043478" y="1486.0" type="line"/>
      <point x="179.52173913043478" y="1448.608695652174" type="line"/>
      <point x="301.6086956521739" y="1415.1304347826087" type="line"/>
      <point x="118.3913043478261" y="71.86956521739131" type="line"/>
      <point x="-22.739130434782606" y="37.39130434782609" type="line"/>
      <point x="-27.73913043478261" y="0.0" type="line"/>
      <point x="242.86956521739128" y="0.0" type="line" smooth="yes"/>
      <point x="338.1304347826087" y="0.0"/>
      <point x="451.2608695652174" y="-18.17391304347826"/>
    </contour>
  </outline>
</glyph>
